<svg xmlns="http://www.w3.org/2000/svg" aria-hidden="true" style="position:absolute;width:0;height:0;overflow:hidden">
  <defs>
    <symbol id="icon-name" viewBox="0 0 32 32">
      <!-- path -->
    </symbol>

    <symbol id="icon-logo" viewBox="0 0 153 56" fill="none" >
<path d="M16.6009 1.10878C16.518 1.95852 16.4558 2.78753 16.4144 3.59582C16.3936 4.38339 16.3833 4.98442 16.3833 5.39893C16.3833 5.79272 16.3936 6.17613 16.4144 6.54919C16.4351 6.90152 16.4558 7.20204 16.4765 7.45075H15.7615C15.5957 6.02069 15.3263 4.90152 14.9532 4.09323C14.5802 3.26422 14.0724 2.68391 13.4299 2.3523C12.8081 1.99997 11.9895 1.8238 10.974 1.8238H9.26411C8.64235 1.8238 8.16566 1.87562 7.83406 1.97924C7.50245 2.08287 7.27447 2.30049 7.15012 2.63209C7.04649 2.9637 6.99468 3.47147 6.99468 4.15541V20.0725C6.99468 20.7357 7.04649 21.2435 7.15012 21.5958C7.27447 21.9274 7.50245 22.145 7.83406 22.2487C8.16566 22.3523 8.64235 22.4041 9.26411 22.4041H11.0361C12.0931 22.4041 12.974 22.2072 13.6786 21.8134C14.404 21.4197 14.9843 20.7772 15.4195 19.886C15.8548 18.9741 16.176 17.7305 16.3833 16.1554H17.0983C17.0361 16.7979 17.005 17.6269 17.005 18.6425C17.005 19.0777 17.0154 19.7098 17.0361 20.5388C17.0776 21.3678 17.1398 22.2279 17.2227 23.1191C16.1657 23.0777 14.974 23.057 13.6475 23.057C12.3211 23.0362 11.1398 23.0259 10.1035 23.0259C9.6268 23.0259 8.99468 23.0259 8.20711 23.0259C7.44027 23.0259 6.60089 23.0362 5.68898 23.057C4.79779 23.057 3.88587 23.0673 2.95323 23.0881C2.04131 23.0881 1.17084 23.0984 0.341827 23.1191V22.4974C1.02577 22.4559 1.53354 22.373 1.86514 22.2487C2.21748 22.1243 2.44545 21.8756 2.54908 21.5026C2.67343 21.1295 2.73561 20.5699 2.73561 19.8238V4.40411C2.73561 3.63727 2.67343 3.07769 2.54908 2.72536C2.44545 2.3523 2.21748 2.1036 1.86514 1.97924C1.53354 1.83417 1.02577 1.75126 0.341827 1.73054V1.10878C1.17084 1.1295 2.04131 1.15023 2.95323 1.17095C3.88587 1.17095 4.79779 1.18132 5.68898 1.20204C6.60089 1.20204 7.44027 1.20204 8.20711 1.20204C8.99468 1.20204 9.6268 1.20204 10.1035 1.20204C11.0569 1.20204 12.1346 1.20204 13.3366 1.20204C14.5594 1.18132 15.6475 1.15023 16.6009 1.10878ZM11.5957 11.7409C11.5957 11.7409 11.5957 11.8445 11.5957 12.0518C11.5957 12.259 11.5957 12.3627 11.5957 12.3627H6.06203C6.06203 12.3627 6.06203 12.259 6.06203 12.0518C6.06203 11.8445 6.06203 11.7409 6.06203 11.7409H11.5957ZM12.4973 7.63727C12.4144 8.81862 12.3729 9.72018 12.3729 10.3419C12.3936 10.9637 12.404 11.5336 12.404 12.0518C12.404 12.5699 12.4144 13.1399 12.4351 13.7616C12.4558 14.3834 12.5076 15.2849 12.5905 16.4663H11.8755C11.7719 15.7616 11.6061 15.0984 11.3781 14.4767C11.1708 13.8342 10.8289 13.3264 10.3522 12.9533C9.89623 12.5596 9.23302 12.3627 8.36255 12.3627V11.7409C9.00504 11.7409 9.52317 11.6062 9.91696 11.3368C10.3315 11.0673 10.6631 10.7254 10.9118 10.3108C11.1605 9.87562 11.347 9.43002 11.4714 8.97406C11.6164 8.49738 11.7201 8.05178 11.7822 7.63727H12.4973ZM39.948 1.10878V1.73054C39.2848 1.79271 38.7771 1.94815 38.4247 2.19686C38.0724 2.42484 37.8341 2.7979 37.7097 3.31603C37.6061 3.81344 37.5543 4.52847 37.5543 5.46111V23.2124C37.3677 23.1917 37.1605 23.1813 36.9325 23.1813C36.7252 23.1813 36.4973 23.1917 36.2486 23.2124L22.9118 5.08805V18.5181C22.9118 19.5129 22.974 20.2901 23.0983 20.8497C23.2227 21.3886 23.4921 21.7824 23.9066 22.0311C24.3418 22.259 24.9947 22.4145 25.8651 22.4974V23.1191C25.4714 23.0777 24.9636 23.057 24.3418 23.057C23.7201 23.0362 23.1294 23.0259 22.5698 23.0259C22.0724 23.0259 21.5646 23.0362 21.0465 23.057C20.5491 23.057 20.1346 23.0777 19.803 23.1191V22.4974C20.4869 22.4145 20.9947 22.259 21.3263 22.0311C21.6786 21.8031 21.9066 21.43 22.0102 20.9119C22.1346 20.3938 22.1967 19.6787 22.1967 18.7668V4.40411C22.1967 3.63727 22.1346 3.07769 22.0102 2.72536C21.9066 2.3523 21.6786 2.1036 21.3263 1.97924C20.9947 1.83417 20.4869 1.75126 19.803 1.73054V1.10878C20.1346 1.1295 20.5491 1.15023 21.0465 1.17095C21.5646 1.19168 22.0724 1.20204 22.5698 1.20204C23.0465 1.20204 23.5128 1.19168 23.9688 1.17095C24.4247 1.15023 24.8289 1.1295 25.1812 1.10878L36.8392 16.6217V5.70981C36.8392 4.69427 36.7771 3.91707 36.6527 3.37821C36.5284 2.83935 36.2589 2.44556 35.8444 2.19686C35.4299 1.94815 34.7771 1.79271 33.8859 1.73054V1.10878C34.2797 1.1295 34.7874 1.15023 35.4092 1.17095C36.0517 1.19168 36.6423 1.20204 37.1812 1.20204C37.6993 1.20204 38.2071 1.19168 38.7045 1.17095C39.2227 1.15023 39.6372 1.1295 39.948 1.10878ZM52.9735 0.673543C54.3621 0.673543 55.4916 0.880797 56.3621 1.29531C57.2325 1.68909 58.0305 2.15541 58.7558 2.69427C59.0046 2.90152 59.2118 3.00515 59.3776 3.00515C59.7714 3.00515 60.0305 2.37303 60.1548 1.10878H60.8698C60.8284 1.89634 60.7973 2.86007 60.7766 3.99997C60.7558 5.13987 60.7455 6.64246 60.7455 8.50774H60.0305C59.8854 7.38857 59.6781 6.38339 59.4087 5.4922C59.1393 4.60101 58.6522 3.84453 57.9476 3.22277C57.4087 2.64246 56.7248 2.19686 55.8957 1.88598C55.0875 1.55437 54.2688 1.38857 53.4398 1.38857C52.3413 1.38857 51.3776 1.67872 50.5486 2.25904C49.7403 2.81862 49.0564 3.59582 48.4968 4.59064C47.9579 5.56474 47.5538 6.70463 47.2843 8.01033C47.0149 9.29531 46.8802 10.6735 46.8802 12.145C46.8802 15.8756 47.4191 18.6114 48.4968 20.3523C49.5952 22.0725 51.2014 22.9326 53.3154 22.9326C53.8957 22.9326 54.3932 22.8601 54.8077 22.715C55.2429 22.5492 55.5952 22.3834 55.8647 22.2176C56.1963 21.9896 56.4139 21.7513 56.5175 21.5026C56.6211 21.2539 56.6729 20.943 56.6729 20.5699V17.5233C56.6729 16.6114 56.59 15.9378 56.4242 15.5026C56.2584 15.0466 55.9476 14.7357 55.4916 14.5699C55.0564 14.4041 54.4035 14.3108 53.5331 14.2901V13.6684C53.9476 13.6891 54.4346 13.7098 54.9942 13.7305C55.5745 13.7305 56.1755 13.7409 56.7973 13.7616C57.4398 13.7616 58.0201 13.7616 58.5382 13.7616C59.3465 13.7616 60.0823 13.7513 60.7455 13.7305C61.4087 13.7098 61.9579 13.6891 62.3932 13.6684V14.2901C61.9786 14.3108 61.6574 14.3834 61.4294 14.5077C61.2222 14.6321 61.0875 14.8808 61.0253 15.2539C60.9631 15.6269 60.932 16.1969 60.932 16.9637V23.1191H60.3103C60.2895 22.7668 60.2066 22.3834 60.0615 21.9689C59.9165 21.5544 59.6989 21.3471 59.4087 21.3471C59.2636 21.3471 59.0978 21.3886 58.9113 21.4715C58.7248 21.5336 58.4035 21.6891 57.9476 21.9378C57.2222 22.4145 56.445 22.8083 55.616 23.1191C54.8077 23.4093 53.9165 23.5544 52.9424 23.5544C50.6211 23.5544 48.6522 23.1191 47.0356 22.2487C45.4398 21.3575 44.2274 20.0829 43.3983 18.4248C42.5693 16.7461 42.1548 14.7461 42.1548 12.4248C42.1548 10.0414 42.6211 7.96888 43.5538 6.20722C44.4864 4.44556 45.761 3.08805 47.3776 2.13468C49.0149 1.16059 50.8802 0.673543 52.9735 0.673543ZM73.4802 1.10878V1.73054C72.7755 1.75126 72.2367 1.83417 71.8636 1.97924C71.5113 2.1036 71.2729 2.3523 71.1486 2.72536C71.0242 3.07769 70.9621 3.63727 70.9621 4.40411V20.0725C70.9621 20.7357 71.0139 21.2435 71.1175 21.5958C71.2418 21.9274 71.4595 22.145 71.7703 22.2487C72.0812 22.3523 72.5268 22.4041 73.1071 22.4041H74.8792C75.6874 22.4041 76.3921 22.259 76.9931 21.9689C77.6149 21.6787 78.1538 21.2539 78.6097 20.6943C79.0657 20.1347 79.4387 19.4507 79.7289 18.6425C80.019 17.8134 80.2263 16.8808 80.3507 15.8445H81.0657C81.0035 16.5285 80.9724 17.4197 80.9724 18.5181C80.9724 18.9741 80.9828 19.6269 81.0035 20.4767C81.045 21.3264 81.1071 22.2072 81.19 23.1191C80.133 23.0777 78.9413 23.057 77.6149 23.057C76.2885 23.0362 75.1071 23.0259 74.0709 23.0259C73.5735 23.0259 72.9413 23.0259 72.1745 23.0259C71.4076 23.0259 70.5683 23.0362 69.6564 23.057C68.7652 23.057 67.8532 23.0673 66.9206 23.0881C66.0087 23.0881 65.1382 23.0984 64.3092 23.1191V22.4974C64.9931 22.4559 65.5009 22.373 65.8325 22.2487C66.1849 22.1243 66.4128 21.8756 66.5165 21.5026C66.6408 21.1295 66.703 20.5699 66.703 19.8238V4.40411C66.703 3.63727 66.6408 3.07769 66.5165 2.72536C66.4128 2.3523 66.1849 2.1036 65.8325 1.97924C65.5009 1.83417 64.9931 1.75126 64.3092 1.73054V1.10878C64.8273 1.1295 65.4906 1.15023 66.2988 1.17095C67.1071 1.19168 67.9776 1.20204 68.9102 1.20204C69.76 1.20204 70.5994 1.19168 71.4284 1.17095C72.2574 1.15023 72.9413 1.1295 73.4802 1.10878ZM92.0876 1.10878V1.73054C91.4244 1.75126 90.9166 1.83417 90.5643 1.97924C90.2327 2.1036 90.0047 2.3523 89.8804 2.72536C89.756 3.07769 89.6938 3.63727 89.6938 4.40411V19.8238C89.6938 20.5699 89.756 21.1295 89.8804 21.5026C90.0047 21.8756 90.2327 22.1243 90.5643 22.2487C90.9166 22.373 91.4244 22.4559 92.0876 22.4974V23.1191C91.5695 23.0777 90.9063 23.057 90.098 23.057C89.2897 23.0362 88.471 23.0259 87.642 23.0259C86.7094 23.0259 85.8389 23.0362 85.0306 23.057C84.2223 23.057 83.5591 23.0777 83.041 23.1191V22.4974C83.7249 22.4559 84.2327 22.373 84.5643 22.2487C84.9166 22.1243 85.1446 21.8756 85.2482 21.5026C85.3726 21.1295 85.4348 20.5699 85.4348 19.8238V4.40411C85.4348 3.63727 85.3726 3.07769 85.2482 2.72536C85.1446 2.3523 84.9166 2.1036 84.5643 1.97924C84.2327 1.83417 83.7249 1.75126 83.041 1.73054V1.10878C83.5591 1.1295 84.2223 1.15023 85.0306 1.17095C85.8389 1.19168 86.7094 1.20204 87.642 1.20204C88.471 1.20204 89.2897 1.19168 90.098 1.17095C90.9063 1.15023 91.5695 1.1295 92.0876 1.10878ZM101.764 0.73572C102.925 0.73572 103.816 0.860072 104.438 1.10878C105.059 1.35748 105.598 1.62691 106.054 1.91707C106.303 2.06214 106.5 2.17613 106.645 2.25904C106.811 2.32121 106.966 2.3523 107.111 2.3523C107.318 2.3523 107.464 2.23831 107.546 2.01033C107.65 1.78235 107.733 1.44038 107.795 0.984425H108.51C108.489 1.37821 108.458 1.83417 108.417 2.3523C108.396 2.87044 108.375 3.56474 108.355 4.4352C108.355 5.28494 108.355 6.41448 108.355 7.8238H107.64C107.578 6.76681 107.339 5.75126 106.925 4.77717C106.531 3.80308 105.961 3.00515 105.215 2.38339C104.489 1.7409 103.557 1.41966 102.417 1.41966C101.401 1.41966 100.552 1.72018 99.8677 2.32121C99.2044 2.92225 98.8728 3.73054 98.8728 4.74608C98.8728 5.61655 99.0905 6.3523 99.5257 6.95334C99.9609 7.53365 100.572 8.1036 101.36 8.66318C102.168 9.20204 103.122 9.8238 104.22 10.5285C105.236 11.1917 106.147 11.8549 106.956 12.5181C107.764 13.1606 108.396 13.8756 108.852 14.6632C109.329 15.4507 109.567 16.4145 109.567 17.5544C109.567 18.9015 109.236 20.0207 108.572 20.9119C107.909 21.8031 107.018 22.4663 105.899 22.9015C104.78 23.3368 103.557 23.5544 102.23 23.5544C101.008 23.5544 100.033 23.43 99.3081 23.1813C98.6034 22.9326 97.992 22.6735 97.4739 22.4041C97.0179 22.114 96.6656 21.9689 96.4169 21.9689C96.2096 21.9689 96.0542 22.0829 95.9506 22.3109C95.8677 22.5388 95.7951 22.8808 95.7329 23.3368H95.0179C95.0594 22.8601 95.0801 22.3005 95.0801 21.658C95.1008 21.0155 95.1112 20.1865 95.1112 19.171C95.1319 18.1347 95.1423 16.829 95.1423 15.2539H95.8573C95.9402 16.5803 96.1682 17.8238 96.5412 18.9844C96.935 20.1243 97.5257 21.0466 98.3133 21.7513C99.1215 22.4559 100.189 22.8083 101.515 22.8083C102.241 22.8083 102.894 22.6839 103.474 22.4352C104.075 22.1658 104.552 21.7616 104.904 21.2228C105.256 20.6632 105.432 19.9585 105.432 19.1088C105.432 18.259 105.236 17.5129 104.842 16.8704C104.448 16.2279 103.899 15.6269 103.194 15.0673C102.489 14.5077 101.66 13.9378 100.707 13.3575C99.7329 12.7357 98.821 12.1036 97.9713 11.4611C97.1215 10.8186 96.4376 10.0932 95.9195 9.28494C95.4221 8.45593 95.1734 7.46111 95.1734 6.30049C95.1734 5.01551 95.4842 3.96888 96.106 3.16059C96.7278 2.33157 97.5361 1.72018 98.5309 1.32639C99.5464 0.932611 100.624 0.73572 101.764 0.73572ZM125.184 23.1191V22.4974C125.868 22.4559 126.376 22.373 126.707 22.2487C127.059 22.1243 127.287 21.8756 127.391 21.5026C127.515 21.1295 127.578 20.5699 127.578 19.8238V4.40411C127.578 3.63727 127.515 3.07769 127.391 2.72536C127.287 2.3523 127.059 2.1036 126.707 1.97924C126.376 1.83417 125.868 1.75126 125.184 1.73054V1.10878C125.743 1.1295 126.438 1.15023 127.267 1.17095C128.096 1.19168 128.925 1.20204 129.754 1.20204C130.666 1.20204 131.515 1.19168 132.303 1.17095C133.111 1.15023 133.754 1.1295 134.23 1.10878V1.73054C133.567 1.75126 133.059 1.83417 132.707 1.97924C132.376 2.1036 132.148 2.3523 132.023 2.72536C131.899 3.07769 131.837 3.63727 131.837 4.40411V19.8238C131.837 20.5699 131.899 21.1295 132.023 21.5026C132.148 21.8756 132.376 22.1243 132.707 22.2487C133.059 22.373 133.567 22.4559 134.23 22.4974V23.1191C133.754 23.0777 133.111 23.057 132.303 23.057C131.515 23.0362 130.666 23.0259 129.754 23.0259C128.925 23.0259 128.096 23.0362 127.267 23.057C126.438 23.057 125.743 23.0777 125.184 23.1191ZM112.065 23.1191V22.4974C112.749 22.4559 113.256 22.373 113.588 22.2487C113.94 22.1243 114.168 21.8756 114.272 21.5026C114.396 21.1295 114.458 20.5699 114.458 19.8238V4.40411C114.458 3.63727 114.396 3.07769 114.272 2.72536C114.168 2.3523 113.94 2.1036 113.588 1.97924C113.256 1.83417 112.749 1.75126 112.065 1.73054V1.10878C112.583 1.1295 113.246 1.15023 114.054 1.17095C114.863 1.19168 115.733 1.20204 116.666 1.20204C117.495 1.20204 118.313 1.19168 119.122 1.17095C119.93 1.15023 120.593 1.1295 121.111 1.10878V1.73054C120.448 1.75126 119.94 1.83417 119.588 1.97924C119.256 2.1036 119.028 2.3523 118.904 2.72536C118.78 3.07769 118.717 3.63727 118.717 4.40411V19.8238C118.717 20.5699 118.78 21.1295 118.904 21.5026C119.028 21.8756 119.256 22.1243 119.588 22.2487C119.94 22.373 120.448 22.4559 121.111 22.4974V23.1191C120.593 23.0777 119.93 23.057 119.122 23.057C118.313 23.0362 117.495 23.0259 116.666 23.0259C115.733 23.0259 114.863 23.0362 114.054 23.057C113.246 23.057 112.583 23.0777 112.065 23.1191ZM117.008 12.3627V11.7409H129.287V12.3627H117.008Z" fill="#292929"/>
<path d="M47.8633 45.102C47.5133 45.1575 47.1525 45.0258 46.7809 44.7069C46.4278 44.3851 46.225 44.0584 46.1725 43.7268C46.1579 43.6347 46.1554 43.5596 46.1651 43.5014C46.3566 42.5645 46.652 41.6868 47.0511 40.8682C47.4657 40.0282 47.8697 39.1805 48.263 38.325C48.2785 38.3037 48.2833 38.2746 48.2775 38.2377C48.2688 38.1824 48.2523 38.1378 48.228 38.1039C48.2008 38.0516 48.1829 37.9978 48.1741 37.9425C48.1449 37.7583 48.2248 37.5473 48.4138 37.3096C48.6212 37.069 48.8514 36.8532 49.1044 36.662C49.3758 36.4679 49.5945 36.3578 49.7603 36.3315C49.9629 36.2994 50.168 36.3425 50.3756 36.4607C50.5987 36.5575 50.7277 36.7165 50.7628 36.9376C50.6019 37.1142 50.3756 37.4144 50.0839 37.8383C49.7922 38.2622 49.4817 38.7458 49.1522 39.289C48.8383 39.8108 48.5365 40.3496 48.2468 40.9054C47.9726 41.4399 47.7493 41.9379 47.5769 42.3996C47.4201 42.8399 47.3591 43.1706 47.3941 43.3917C47.4233 43.5759 47.5208 43.6549 47.6866 43.6286C47.8709 43.5995 48.1176 43.4282 48.4268 43.1148C48.7514 42.7801 49.0936 42.3766 49.4531 41.9041C49.8126 41.4317 50.1601 40.9423 50.4953 40.436C50.8306 39.9296 51.1271 39.4766 51.3849 39.077C51.6581 38.656 51.8461 38.3524 51.9488 38.1661C52.1048 37.8393 52.2651 37.54 52.4299 37.2684C52.6101 36.9755 52.8126 36.5846 53.0373 36.0958C53.1555 35.8882 53.2873 35.7068 53.4327 35.5516C53.5752 35.3779 53.7385 35.2765 53.9227 35.2473C54.0149 35.2327 54.1603 35.2569 54.3591 35.3198C54.558 35.3828 54.7214 35.4608 54.8494 35.5538C54.9746 35.6284 55.0474 35.7302 55.0678 35.8592C55.094 36.025 55.05 36.1641 54.9356 36.2767C54.7583 36.588 54.5432 37.0187 54.2904 37.5686C54.0531 38.0973 53.823 38.6719 53.6003 39.2926C53.3931 39.892 53.2275 40.4565 53.1036 40.986C52.9798 41.5155 52.9397 41.9185 52.9835 42.1948C53.0243 42.4527 53.1199 42.5792 53.2702 42.5743C53.4884 42.5209 53.7802 42.2764 54.1455 41.8408C54.5109 41.4052 54.8985 40.8717 55.3084 40.2402C55.7338 39.5874 56.1393 38.9283 56.525 38.2629C56.9077 37.579 57.2376 36.9791 57.5147 36.4631C57.5174 36.1227 57.5153 35.8114 57.5084 35.5293C57.517 35.2257 57.5735 34.8674 57.6781 34.4542C57.7381 34.237 57.8316 34.0522 57.9585 33.8999C58.0826 33.7292 58.2551 33.6263 58.4762 33.5913C58.6789 33.5592 58.8733 33.5945 59.0596 33.6972C59.2642 33.797 59.3826 33.9482 59.4147 34.1509C59.4526 34.3904 59.3955 34.626 59.2434 34.8579C59.0912 35.0897 58.9479 35.3768 58.8132 35.7192C58.6786 36.0616 58.6565 36.5183 58.747 37.0894L58.7645 37.2C58.7762 37.2737 58.7815 37.3672 58.7806 37.4807C58.7797 37.5941 58.7332 37.6582 58.6411 37.6728C58.5121 37.6932 58.3623 37.6414 58.1915 37.5173C58.0208 37.3933 57.916 37.2682 57.8772 37.1422C57.4983 37.731 57.0957 38.4085 56.6694 39.1748C56.2615 39.9382 55.8507 40.6831 55.437 41.4096C55.0388 42.1148 54.6551 42.7327 54.2858 43.2633C53.9321 43.7726 53.6137 44.0874 53.3306 44.2078C53.2599 44.2379 53.1692 44.2617 53.0587 44.2792C52.856 44.3113 52.6553 44.2959 52.4565 44.2329C52.2576 44.17 52.0564 44.0319 51.8526 43.8187C51.8284 43.7847 51.8118 43.7401 51.8031 43.6849C51.7943 43.6296 51.7778 43.585 51.7536 43.5511C51.7235 43.4803 51.6842 43.411 51.6357 43.3431C51.6026 43.2539 51.5788 43.1633 51.5642 43.0711C51.4971 42.6474 51.5381 42.131 51.6871 41.522C51.8546 40.91 52.0483 40.2844 52.2681 39.6453C52.4879 39.0061 52.6641 38.4494 52.7967 37.9752C51.9392 39.3574 51.1597 40.5763 50.4581 41.6316C49.772 42.6657 49.1107 43.6769 48.474 44.6654C48.3965 44.7721 48.3083 44.871 48.2095 44.9622C48.1261 45.0321 48.0107 45.0787 47.8633 45.102ZM64.1357 31.8451C63.712 31.9122 63.4753 31.7892 63.4257 31.476C63.3907 31.2549 63.4725 30.9964 63.6711 30.7006C63.8698 30.4047 64.1907 30.165 64.6337 29.9815C64.8984 29.8641 65.1136 29.7922 65.2795 29.766C65.4608 29.7183 65.63 29.6538 65.787 29.5723C65.7688 29.934 65.672 30.3364 65.4967 30.7797C65.3398 31.22 65.0844 31.5154 64.7305 31.6659C64.5551 31.7503 64.3568 31.8101 64.1357 31.8451ZM61.4561 43.544C61.1614 43.5907 60.8661 43.5147 60.5702 43.3161C60.2928 43.1145 60.1045 42.8799 60.0055 42.6124C60.0053 42.2536 60.058 41.8109 60.1634 41.2843C60.2844 40.7363 60.43 40.1656 60.6004 39.572C60.7708 38.9785 60.947 38.4218 61.1291 37.9019C61.3082 37.3636 61.4666 36.9325 61.6041 36.6086C61.3037 36.9772 60.9814 37.3871 60.6374 37.8381C60.3118 38.2863 60.0002 38.7039 59.7027 39.091C59.6872 39.1123 59.647 39.1565 59.582 39.2234C59.5355 39.2874 59.4846 39.3238 59.4294 39.3326C59.3004 39.353 59.2272 39.3079 59.2097 39.1974C59.1951 39.1053 59.2188 39.0165 59.2808 38.9312C59.6907 38.2997 60.119 37.6653 60.5657 37.028C61.0309 36.3877 61.4747 35.732 61.8972 35.0608C62.0309 34.8318 62.1443 34.6534 62.2373 34.5253C62.3458 34.3759 62.5291 34.2808 62.787 34.24C62.8975 34.2224 63.0677 34.2238 63.2976 34.2441C63.5429 34.243 63.748 34.286 63.9129 34.3732C64.0962 34.4575 64.1457 34.5913 64.0615 34.7746C63.9646 34.9977 63.796 35.3643 63.5558 35.8745C63.3155 36.3847 63.0395 36.9667 62.7275 37.6204C62.434 38.2712 62.142 38.9313 61.8514 39.6005C61.5763 40.2484 61.3569 40.8308 61.1933 41.3478C61.0296 41.8647 60.9668 42.2429 61.0047 42.4824C61.0222 42.593 61.0678 42.6424 61.1415 42.6307C61.2521 42.6132 61.4202 42.4827 61.6461 42.2392C61.8903 41.9928 62.1239 41.7386 62.3468 41.4767C62.5852 41.1934 62.7447 41.0076 62.8251 40.9193C63.2864 40.3741 63.7371 39.8212 64.1771 39.2605C64.6141 38.6814 65.0206 38.0882 65.3966 37.481C65.4276 37.4383 65.4649 37.3757 65.5085 37.2933C65.5705 37.2079 65.6384 37.1594 65.7121 37.1477C65.8042 37.1331 65.859 37.1811 65.8765 37.2916C65.8969 37.4206 65.8713 37.5568 65.7996 37.7004C65.6068 38.0331 65.3864 38.3702 65.1383 38.7116C64.8873 39.0347 64.6547 39.3548 64.4405 39.672C64.0374 40.2269 63.6435 40.7803 63.2588 41.3322C62.8895 41.8628 62.5233 42.4119 62.1599 42.9793C62.0853 43.1045 61.9816 43.2248 61.8488 43.3402C61.7344 43.4528 61.6035 43.5207 61.4561 43.544ZM67.3638 42.75C67.0322 42.8025 66.7291 42.7372 66.4546 42.5541C66.1985 42.368 65.9812 42.1286 65.8026 41.8358C65.6396 41.5217 65.5347 41.2173 65.488 40.9225C65.4413 40.6277 65.4329 40.3363 65.4628 40.0483C65.4898 39.7419 65.5459 39.4403 65.6311 39.1435C65.9409 37.9991 66.3224 36.8905 66.7758 35.8178C67.2291 34.7451 67.7178 33.6573 68.2419 32.5545C67.9132 32.6254 67.4652 32.6586 66.8979 32.654C66.349 32.6465 65.8666 32.5813 65.4505 32.4584C65.2517 32.3954 65.0824 32.2806 64.9427 32.1139C64.8185 31.9258 64.7461 31.7673 64.7257 31.6383C64.6995 31.4725 64.7445 31.3993 64.8609 31.4186C65.5854 31.7005 66.2342 31.8621 66.8073 31.9035C67.396 31.9236 68.0049 31.8932 68.6342 31.8125C69.1293 30.8842 69.6627 29.9593 70.2344 29.0378C70.8245 28.1134 71.4196 27.3393 72.0195 26.7155C72.1029 26.6456 72.1722 26.6063 72.2275 26.5975C72.3748 26.5742 72.5155 26.6275 72.6494 26.7574C72.8017 26.8843 72.8909 27.0307 72.9172 27.1965C72.9551 27.436 72.8893 27.6164 72.7196 27.7377C71.8213 28.862 70.9307 30.1551 70.048 31.6169C70.3641 31.5857 70.6986 31.5516 71.0516 31.5146C71.4016 31.4591 71.7517 31.4037 72.1017 31.3482C72.636 31.2636 73.1596 31.1713 73.6725 31.0711C74.1855 30.971 74.631 30.8627 75.0091 30.7461C77.0123 26.1041 79.1097 22.8919 81.3014 21.1095C81.7676 20.7146 82.2039 20.4283 82.6101 20.2506C83.0134 20.0546 83.3901 19.9288 83.7401 19.8734C84.2744 19.7888 84.7263 19.8399 85.0958 20.0269C85.4809 20.1925 85.8102 20.4237 86.0838 20.7203C86.1993 20.8531 86.2731 21.0208 86.3052 21.2234C86.3839 21.7209 86.2252 22.3881 85.829 23.2252C85.4299 24.0438 84.7971 24.9372 83.9306 25.9054C83.0612 26.8552 81.9727 27.7924 80.665 28.7172C79.3544 29.6235 77.827 30.4131 76.0828 31.086C75.4385 32.2645 74.8897 33.3901 74.4363 34.4628C73.983 35.5355 73.6353 36.4405 73.3933 37.1776C73.8332 36.6169 74.3241 36.0198 74.8659 35.3863C75.4232 34.7315 75.9649 34.098 76.4912 33.4858C77.0145 32.8553 77.439 32.3159 77.7646 31.8677C77.8422 31.761 77.9517 31.6776 78.0932 31.6174C78.2532 31.5543 78.37 31.5169 78.4437 31.5052C78.7017 31.4644 78.98 31.5525 79.2788 31.7696C79.596 31.9837 79.7794 32.2474 79.829 32.5606C79.8728 32.8369 79.7924 33.1046 79.5879 33.3636C79.114 33.9486 78.644 34.6179 78.1779 35.3716C77.709 36.1069 77.3011 36.8702 76.9543 37.6617C76.8603 37.9032 76.7272 38.2548 76.5548 38.7164C76.4008 39.1752 76.3443 39.5335 76.3851 39.7915C76.4143 39.9757 76.4842 40.059 76.5947 40.0415C76.8158 40.0065 77.1008 39.8386 77.4497 39.5378C77.8171 39.2342 78.2019 38.8616 78.6041 38.4202C79.0219 37.9574 79.4289 37.4869 79.8253 37.0087C80.2401 36.5275 80.604 36.0827 80.9171 35.6743C81.2301 35.2659 81.4549 34.9565 81.5915 34.746C81.6846 34.6179 81.7679 34.5481 81.8416 34.5364C81.9522 34.5189 82.0162 34.5654 82.0337 34.6759C82.0424 34.7312 82.0187 34.8199 81.9625 34.9421C81.7726 35.2933 81.4853 35.7448 81.1006 36.2968C80.713 36.8303 80.2822 37.3895 79.8083 37.9745C79.3315 38.5411 78.8672 39.0678 78.4156 39.5548C77.9794 40.0205 77.6116 40.3809 77.3121 40.6361C77.1948 40.7302 77.0348 40.7933 76.8322 40.8254C76.5558 40.8692 76.2188 40.8282 75.8212 40.7023C75.4235 40.5764 75.1999 40.3569 75.1503 40.0437C75.1065 39.7673 75.1524 39.4012 75.288 38.9454C75.4235 38.4896 75.6007 37.9988 75.8196 37.4731C76.0385 36.9474 76.2696 36.4387 76.5127 35.947C76.753 35.4368 76.9588 35.0076 77.1303 34.6594C77.3173 34.2898 77.4297 34.0454 77.4674 33.9261C77.6699 33.5352 77.7915 33.2893 77.8322 33.1885C77.8728 33.0876 77.898 33.0081 77.9077 32.9499C77.7778 33.0837 77.5752 33.2952 77.3 33.5844C77.0218 33.855 76.7451 34.1349 76.4698 34.424C76.1946 34.7131 75.9935 34.9338 75.8665 35.0862C74.9778 36.1523 74.249 37.1553 73.6803 38.0953C73.127 39.0138 72.6285 39.9804 72.1849 40.9949C72.1694 41.0163 72.1262 41.042 72.0555 41.0721C71.9818 41.0838 71.9265 41.0925 71.8897 41.0984C71.7791 41.1159 71.6089 41.1145 71.3791 41.0942C71.1677 41.0711 71.0658 40.9644 71.0735 40.7744C71.1403 40.4805 71.2409 40.1624 71.3756 39.82C71.5102 39.4777 71.701 39.0131 71.948 38.4263C72.1921 37.8211 72.5025 36.9787 72.8792 35.8992C72.945 35.7188 73.0593 35.4269 73.222 35.0234C73.3848 34.6199 73.5615 34.1859 73.7523 33.7213C73.9616 33.2538 74.1553 32.8077 74.3335 32.3828C74.5118 31.958 74.6493 31.6341 74.7462 31.411C74.402 31.5033 73.9196 31.6174 73.299 31.7535C72.6756 31.8711 72.0414 31.981 71.3966 32.0831C71.0834 32.1327 70.7794 32.1809 70.4847 32.2276C70.187 32.2558 69.9077 32.2812 69.6469 32.3036C69.3678 32.6878 69.0412 33.2494 68.6673 33.9885C68.3117 34.7247 67.9693 35.5438 67.6401 36.4457C67.3079 37.3293 67.0494 38.2012 66.8646 39.0614C66.6982 39.9188 66.6661 40.6698 66.7682 41.3146C66.7828 41.4067 66.8037 41.479 66.8309 41.5313C66.858 41.5837 66.9177 41.6026 67.0098 41.588C67.1203 41.5705 67.2173 41.5268 67.3006 41.4569C67.3995 41.3657 67.48 41.2774 67.542 41.1921C67.7678 40.9486 67.9708 40.6803 68.1511 40.3874C68.3468 40.0731 68.5362 39.7787 68.7194 39.5042C69.0547 38.9978 69.4006 38.4993 69.7572 38.0084C70.1138 37.5176 70.4613 37.0282 70.7995 36.5402C70.8305 36.4976 70.8629 36.4641 70.8969 36.4398C70.9279 36.3971 70.9618 36.3729 70.9986 36.3671C71.1276 36.3466 71.2038 36.4101 71.2271 36.5575C71.2359 36.6128 71.2121 36.7015 71.156 36.8237C70.9816 37.1535 70.7888 37.4862 70.5775 37.8218C70.3634 38.139 70.1599 38.464 69.9671 38.7967C69.5785 39.4437 69.1885 40.0814 68.797 40.71C68.424 41.3357 68.0539 41.9797 67.6867 42.6422C67.6343 42.6694 67.5805 42.6874 67.5252 42.6961C67.4729 42.7233 67.4191 42.7412 67.3638 42.75ZM76.2817 30.3746C77.0942 30.0193 77.9366 29.5554 78.8091 28.9828C79.6971 28.3889 80.5487 27.7441 81.3638 27.0485C82.1761 26.3344 82.8934 25.6164 83.5156 24.8947C84.1533 24.1516 84.6373 23.4517 84.9677 22.795C85.3165 22.1355 85.4544 21.5754 85.3815 21.1148C85.361 20.9858 85.3358 20.886 85.3057 20.8152C85.1242 20.504 84.7755 20.3893 84.2597 20.471C84.057 20.5031 83.8311 20.5672 83.5819 20.6633C83.3512 20.7565 83.1093 20.8987 82.8563 21.0898C81.9402 21.7448 81.1076 22.5093 80.3584 23.3834C79.6277 24.2546 78.9373 25.261 78.2871 26.4027C77.637 27.5443 76.9685 28.8683 76.2817 30.3746ZM100.307 38.7222C100.089 38.6621 99.9186 38.5381 99.7944 38.35C99.6701 38.162 99.5847 37.9206 99.538 37.6258C99.4446 37.0362 99.469 36.2958 99.6111 35.4046C99.7688 34.492 99.9322 33.6163 100.102 32.7774C100.245 32.1315 100.389 31.3722 100.534 30.4994C100.694 29.6052 100.849 28.6742 100.998 27.7063C101.162 26.7172 101.314 25.7677 101.453 24.8581C101.593 23.9484 101.702 23.1474 101.781 22.455C101.876 21.7412 101.935 21.2219 101.959 20.897C100.613 21.6957 99.4309 22.5817 98.4142 23.5548C97.3945 24.5095 96.4645 25.5538 95.6243 26.6878C94.7996 27.8005 93.9803 29.0067 93.1664 30.3065L97.0629 29.6894C97.1366 29.6777 97.3039 29.6606 97.5647 29.6382C97.8226 29.5974 98.1019 29.572 98.4025 29.5622C98.7002 29.5339 98.9547 29.5314 99.1661 29.5545C99.3931 29.5564 99.5138 29.6033 99.5284 29.6955C99.5517 29.8428 99.3879 30.001 99.037 30.1699C98.7015 30.3174 98.2541 30.4733 97.6946 30.6374C97.1507 30.7802 96.5777 30.9182 95.9755 31.0514C95.3705 31.1661 94.8115 31.2735 94.2986 31.3736C93.7856 31.4737 93.4002 31.5442 93.1423 31.5851C92.7922 31.6405 92.436 31.8952 92.0735 32.3492C91.7111 32.8032 91.3676 33.377 91.0431 34.0705C90.737 34.7611 90.4566 35.4948 90.2019 36.2717C89.9627 37.0272 89.7561 37.7492 89.5818 38.4378C89.426 39.1235 89.3279 39.6962 89.2874 40.1558C89.2932 40.1927 89.2913 40.2402 89.2816 40.2984C89.272 40.3566 89.2395 40.39 89.1842 40.3988C89.0737 40.4163 88.9471 40.3325 88.8045 40.1473C88.6463 39.9835 88.5599 39.8556 88.5454 39.7634C88.4666 39.266 88.4944 38.6667 88.6289 37.9655C88.7633 37.2644 88.9516 36.5452 89.1937 35.8081C89.4512 35.0497 89.7253 34.3359 90.0159 33.6666C90.3249 32.9945 90.6054 32.4401 90.8573 32.0036C90.3968 32.0766 89.9284 32.1602 89.4523 32.2545C88.9733 32.3304 88.4943 32.4062 88.0153 32.4821C87.9048 32.4996 87.7884 32.4803 87.6662 32.4241C87.5226 32.3524 87.4237 32.2642 87.3693 32.1595C87.4109 31.9452 87.6101 31.772 87.9669 31.6399C88.3208 31.4894 88.7358 31.3671 89.2119 31.2728C89.7035 31.1571 90.1689 31.0551 90.6081 30.9666C91.0473 30.8782 91.3639 30.7903 91.5578 30.7029C91.8252 30.2451 92.1978 29.6762 92.6756 28.9962C93.1533 28.3162 93.7081 27.5862 94.34 26.8062C94.9719 26.0263 95.6421 25.2497 96.3506 24.4765C97.0591 23.7033 97.7671 22.9868 98.4747 22.3271C99.1823 21.6673 99.8613 21.1254 100.512 20.7014C101.159 20.2589 101.732 19.9982 102.229 19.9194C102.377 19.8961 102.584 19.8916 102.85 19.906C103.114 19.902 103.365 19.9378 103.604 20.0133C103.842 20.0888 103.978 20.2279 104.01 20.4306C104.048 20.6701 103.993 21.1603 103.846 21.9012C103.718 22.6393 103.528 23.5286 103.277 24.5692C103.024 25.5914 102.751 26.6732 102.46 27.8147C102.166 28.9378 101.883 30.0119 101.611 31.037C101.339 32.0621 101.108 32.9297 100.918 33.6396C100.658 34.7384 100.476 35.6171 100.372 36.2755C100.287 36.9311 100.274 37.4431 100.332 37.8116C100.376 38.0879 100.469 38.3187 100.612 38.5038C100.633 38.5193 100.602 38.562 100.519 38.6319C100.436 38.7017 100.365 38.7318 100.307 38.7222ZM106.291 36.1313C105.978 36.1809 105.581 36.1209 105.101 35.9515C104.621 35.782 104.276 35.5722 104.067 35.3221C103.927 35.1554 103.837 34.9431 103.796 34.6851C103.703 34.0956 103.79 33.2791 104.06 32.2355C104.344 31.1706 104.728 30.0146 105.21 28.7673C105.423 28.2047 105.706 27.5462 106.058 26.7915C106.429 26.034 106.853 25.2493 107.329 24.4374C107.801 23.6071 108.308 22.8093 108.847 22.0439C109.406 21.2757 109.968 20.5917 110.534 19.9922C111.118 19.3897 111.689 18.9405 112.247 18.6444C112.472 18.5144 112.676 18.4348 112.86 18.4056C113.21 18.3502 113.469 18.432 113.636 18.651C113.818 18.8488 114.041 19.0024 114.304 19.1118C114.466 19.1806 114.563 19.3163 114.595 19.519C114.662 19.9427 114.512 20.4858 114.145 21.1483C113.777 21.8108 113.278 22.532 112.646 23.312C112.014 24.0919 111.327 24.8806 110.585 25.6781C109.839 26.4571 109.114 27.1857 108.41 27.8639C107.723 28.5392 107.133 29.1048 106.639 29.5608C106.144 30.0168 105.831 30.3025 105.698 30.418C105.503 30.9776 105.339 31.608 105.204 32.3092C105.07 33.0103 105.049 33.6557 105.143 34.2452C105.178 34.4663 105.245 34.7106 105.344 34.9782C105.458 35.2245 105.663 35.3243 105.958 35.2776C106.234 35.2338 106.54 35.0814 106.877 34.8204C107.213 34.5594 107.537 34.2814 107.85 33.9865C108.159 33.6731 108.401 33.4175 108.578 33.2196C108.996 32.7568 109.357 32.2936 109.661 31.8299C109.965 31.3663 110.325 30.8371 110.741 30.2425C110.772 30.1998 110.804 30.1663 110.838 30.1421C110.869 30.0994 110.912 30.0737 110.968 30.0649C111.078 30.0474 111.144 30.1031 111.164 30.2321C111.182 30.3426 111.152 30.4512 111.074 30.558C110.466 31.4853 109.825 32.4461 109.151 33.4404C108.496 34.4317 107.72 35.2535 106.822 35.9055C106.652 36.0268 106.475 36.1021 106.291 36.1313ZM106.355 28.8409C106.616 28.705 106.968 28.4227 107.41 27.9938C107.849 27.5466 108.333 27.0261 108.863 26.4324C109.41 25.8357 109.953 25.2115 110.492 24.5596C111.047 23.8863 111.55 23.2495 112.003 22.649C112.471 22.0272 112.851 21.5043 113.142 21.0804C113.45 20.6352 113.619 20.3345 113.651 20.1783C113.67 20.062 113.677 19.9854 113.671 19.9485C113.648 19.8011 113.558 19.7115 113.402 19.6795C113.264 19.6447 113.113 19.6404 112.947 19.6667C112.855 19.6813 112.764 19.7051 112.675 19.7381C112.586 19.7711 112.506 19.8026 112.435 19.8327C112.139 19.9929 111.768 20.3349 111.323 20.8587C110.874 21.3642 110.404 21.9768 109.914 22.6965C109.421 23.3979 108.933 24.1361 108.452 24.9111C107.989 25.6832 107.567 26.4204 107.187 27.1227C106.823 27.8036 106.545 28.3763 106.355 28.8409ZM108.874 46.2885C108.027 46.4227 107.536 46.0661 107.402 45.2186C107.387 45.1265 107.382 45.0329 107.386 44.9379C107.371 44.8458 107.366 44.7522 107.37 44.6572C107.412 43.9706 107.624 43.2854 108.007 42.6015C108.39 41.9177 108.861 41.2576 109.422 40.6212C109.985 40.0032 110.561 39.4114 111.152 38.8458C111.763 38.2957 112.31 37.8125 112.792 37.3963C113.073 37.144 113.43 36.8325 113.862 36.4619C114.313 36.0883 114.787 35.6828 115.284 35.2452C115.784 34.826 116.259 34.4297 116.71 34.0561C116.831 33.5082 116.879 32.9152 116.853 32.2771C116.843 31.6177 116.795 31.0117 116.707 30.459L116.672 30.2379C116.503 30.6045 116.242 31.0425 115.889 31.5518C115.535 32.061 115.124 32.5698 114.657 33.0782C114.187 33.5681 113.716 33.9921 113.244 34.3502C112.772 34.7082 112.324 34.9208 111.9 34.9879C111.606 35.0346 111.388 34.9746 111.249 34.8078C111.127 34.6382 111.048 34.4336 111.01 34.1941C110.908 33.5493 110.941 32.8642 111.109 32.1388C111.278 31.4133 111.492 30.7374 111.751 30.1108C112.008 29.4658 112.244 28.928 112.459 28.4973C112.671 28.0483 112.773 27.7961 112.764 27.7408C112.761 27.7224 112.741 27.7161 112.704 27.7219C112.63 27.7336 112.548 27.7467 112.455 27.7613C112.382 27.773 112.364 27.7192 112.402 27.5999C112.61 27.2458 112.889 26.9184 113.237 26.6177C113.586 26.3169 113.936 26.1388 114.286 26.0833C114.415 26.0629 114.571 26.0948 114.754 26.1791C114.953 26.242 115.064 26.3472 115.088 26.4946C115.102 26.5867 115.063 26.6968 114.97 26.8248C114.861 26.9742 114.728 27.1464 114.57 27.3414C114.431 27.5335 114.241 27.8279 114.002 28.2246C113.865 28.4351 113.683 28.7755 113.455 29.246C113.225 29.698 112.995 30.2159 112.767 30.7998C112.535 31.3652 112.35 31.9234 112.21 32.4743C112.087 33.0038 112.054 33.4528 112.112 33.8212C112.121 33.8765 112.131 33.941 112.143 34.0147C112.17 34.067 112.225 34.115 112.307 34.1586C112.568 34.1362 112.873 33.9746 113.222 33.6738C113.568 33.3546 113.922 32.968 114.285 32.514C114.663 32.0386 115.01 31.5493 115.327 31.0458C115.659 30.5211 115.942 30.0419 116.176 29.6083C116.425 29.1534 116.595 28.796 116.686 28.536C116.83 28.1355 117.105 27.9031 117.51 27.8389C117.805 27.7922 117.981 27.8304 118.038 27.9536C118.114 28.0738 118.169 28.2444 118.204 28.4655C118.318 29.184 118.373 29.8269 118.368 30.3942C118.379 30.9401 118.328 31.5714 118.215 32.2881C119.233 31.0881 120.188 29.8415 121.079 28.5485C121.091 28.5087 121.121 28.4568 121.167 28.3928C121.232 28.3259 121.283 28.2895 121.32 28.2836C121.43 28.2661 121.494 28.3126 121.512 28.4232C121.535 28.5706 121.503 28.7267 121.416 28.8916C121.282 29.1205 121.13 29.3524 120.96 29.5871C120.808 29.8189 120.655 30.0508 120.503 30.2826C120.137 30.8316 119.762 31.3821 119.377 31.9341C118.989 32.4676 118.571 32.9871 118.122 33.4925C117.628 35.856 116.823 37.9854 115.706 39.8807C114.612 41.7916 113.118 43.5106 111.226 45.0379C110.908 45.296 110.542 45.5522 110.129 45.8064C109.717 46.0607 109.298 46.2214 108.874 46.2885ZM109.401 45.4969C109.898 45.4182 110.412 45.1478 110.944 44.686C111.459 44.2455 111.96 43.7129 112.447 43.0882C112.933 42.4634 113.365 41.8475 113.74 41.2402C114.138 40.6485 114.447 40.1558 114.668 39.7619C114.914 39.2886 115.151 38.8167 115.378 38.3463C115.609 37.8943 115.818 37.4268 116.006 36.9438C116.291 36.2377 116.514 35.5603 116.676 34.9114C116.685 34.8533 116.661 34.8193 116.603 34.8097C116.566 34.8155 116.548 34.8184 116.548 34.8184C116.041 35.3142 115.523 35.8022 114.995 36.2825C114.488 36.7782 113.97 37.2662 113.442 37.7465C113.176 37.9774 112.823 38.3073 112.381 38.7361C111.942 39.1834 111.472 39.6733 110.97 40.2059C110.472 40.7569 110.003 41.3128 109.563 41.8735C109.126 42.4526 108.778 42.9988 108.52 43.5119C108.264 44.0434 108.165 44.4934 108.224 44.8619C108.27 45.1566 108.422 45.3403 108.679 45.4129C108.921 45.5069 109.161 45.5349 109.401 45.4969ZM122.93 33.5243C122.396 33.6089 121.966 33.4597 121.641 33.0769C121.313 32.6756 121.113 32.2446 121.04 31.784C120.941 31.1576 121 30.4589 121.218 29.6879C121.433 28.8985 121.718 28.1356 122.073 27.3995C122.447 26.6604 122.785 26.0498 123.086 25.5677C123.161 25.4425 123.272 25.3683 123.419 25.345C123.585 25.3187 123.761 25.3569 123.947 25.4596C124.29 25.122 124.693 24.8032 125.156 24.5034C125.636 24.2006 126.116 24.0113 126.595 23.9354C127.424 23.8041 127.906 24.1622 128.04 25.0096C128.169 25.8203 128.084 26.5985 127.787 27.3444C127.508 28.0873 127.18 28.8191 126.803 29.5398C126.7 29.726 126.596 29.903 126.491 30.0709C126.403 30.2357 126.298 30.4036 126.174 30.5743C126.949 30.2248 127.6 29.744 128.127 29.1319C128.653 28.5197 129.167 27.8906 129.669 27.2446C129.731 27.1592 129.787 27.0937 129.836 27.0481C129.901 26.9812 129.989 26.9389 130.099 26.9214C130.192 26.9068 130.248 26.964 130.268 27.093C130.271 27.1114 130.251 27.1618 130.207 27.2443C130.164 27.3267 130.135 27.3878 130.123 27.4276C129.632 28.2608 128.986 29.0713 128.185 29.8591C127.4 30.6256 126.531 31.1598 125.578 31.4619C125.283 31.8673 124.898 32.2966 124.422 32.7497C123.943 33.1844 123.446 33.4426 122.93 33.5243ZM124.74 30.9997C124.813 30.988 124.878 30.9778 124.933 30.9691C125.007 30.9574 125.079 30.9365 125.15 30.9064C125.448 30.4059 125.743 29.821 126.033 29.1518C126.342 28.4796 126.584 27.7992 126.758 27.1107C126.93 26.4037 126.973 25.783 126.888 25.2487C126.836 24.9171 126.653 24.7761 126.34 24.8257C126.027 24.8753 125.682 25.0244 125.306 25.2728C124.93 25.5212 124.619 25.7686 124.375 26.0151L124.388 26.098C124.418 26.2822 124.312 26.5727 124.073 26.9694C123.849 27.3448 123.599 27.7338 123.323 28.1363C123.065 28.536 122.882 28.8672 122.772 29.1301C122.813 29.7468 123.013 30.2345 123.372 30.5931C123.731 30.9517 124.187 31.0872 124.74 30.9997ZM122.883 33.0501C123.233 32.9946 123.554 32.8117 123.844 32.5013C124.154 32.1879 124.411 31.9017 124.615 31.6427C124.167 31.6759 123.738 31.5927 123.329 31.3931C122.935 31.1722 122.565 30.9193 122.217 30.6344C122.18 30.7537 122.139 30.9772 122.097 31.305C122.054 31.6328 122.058 31.9532 122.108 32.2664C122.146 32.5059 122.225 32.7105 122.346 32.8802C122.465 33.0314 122.644 33.088 122.883 33.0501ZM135.862 31.476C135.586 31.5198 135.26 31.4865 134.883 31.3761C134.528 31.2812 134.325 31.068 134.272 30.7364C134.211 30.3495 134.285 29.8656 134.495 29.2846C134.706 28.7036 134.968 28.0955 135.283 27.4602C135.595 26.8065 135.893 26.1833 136.177 25.5906C136.479 24.9951 136.684 24.4999 136.791 24.1052C136.689 24.178 136.523 24.3177 136.291 24.5244C136.075 24.7097 135.86 24.9042 135.647 25.108C135.431 25.2933 135.275 25.4408 135.179 25.5504C134.48 26.2654 133.885 26.9828 133.395 27.7026C132.923 28.4194 132.457 29.2298 131.995 30.1338C131.883 30.3782 131.763 30.6333 131.635 30.8991C131.526 31.1619 131.405 31.417 131.275 31.6644C131.216 31.7682 131.101 31.8807 130.932 32.002C130.78 32.1204 130.631 32.1912 130.484 32.2146C130.244 32.2525 130.104 32.1425 130.063 31.8846C130.028 31.6635 130.085 31.3052 130.233 30.8096C130.399 30.3111 130.611 29.7393 130.868 29.0943C131.124 28.4493 131.401 27.8107 131.697 27.1783C131.991 26.5274 132.258 25.9469 132.498 25.4368C132.735 24.9081 132.902 24.5323 132.999 24.3092C132.971 24.3703 132.886 24.4877 132.743 24.6614C132.598 24.8166 132.454 24.981 132.312 25.1547C132.185 25.307 132.089 25.4166 132.024 25.4835C131.726 25.8706 131.439 26.2654 131.163 26.668C130.887 27.0705 130.611 27.4731 130.335 27.8757C130.304 27.9183 130.239 27.9853 130.14 28.0765C130.059 28.1648 129.982 28.2147 129.909 28.2264C129.816 28.241 129.763 28.2022 129.749 28.1101C129.734 28.018 129.832 27.8041 130.044 27.4685C130.255 27.1329 130.522 26.7318 130.844 26.2652C131.167 25.7986 131.498 25.3214 131.836 24.8334C132.192 24.3426 132.501 23.9065 132.762 23.5253C133.022 23.1441 133.198 22.8803 133.288 22.7338C133.434 22.4651 133.597 22.241 133.776 22.0615C133.974 21.8791 134.22 21.7646 134.515 21.7179C134.681 21.6916 134.897 21.7424 135.162 21.8703C135.425 21.9798 135.573 22.1358 135.605 22.3385C135.616 22.4122 135.605 22.4612 135.571 22.4854C135.092 23.0335 134.634 23.6631 134.199 24.3741C133.783 25.0822 133.396 25.8043 133.041 26.5405C132.685 27.2767 132.359 27.961 132.063 28.5934C132.426 28.0259 132.846 27.4589 133.323 26.8924C133.797 26.3074 134.259 25.7622 134.707 25.2568L136.415 23.3432C136.527 23.2122 136.637 23.0721 136.745 22.9227C136.872 22.7704 136.993 22.6379 137.107 22.5254C137.24 22.4099 137.391 22.3483 137.56 22.3405C137.744 22.3113 137.928 22.2821 138.112 22.2529C138.315 22.2208 138.517 22.2455 138.719 22.3268C138.939 22.4053 139.068 22.5642 139.106 22.8037C139.144 23.0432 139.109 23.2377 139 23.3871C138.907 23.5151 138.799 23.6645 138.675 23.8352C138.408 24.1796 138.083 24.6278 137.698 25.1797C137.332 25.7288 136.971 26.3146 136.616 26.9374C136.262 27.5601 135.982 28.1804 135.778 28.7982C135.571 29.3975 135.505 29.9367 135.581 30.4157C135.59 30.471 135.599 30.5263 135.607 30.5816C135.616 30.6368 135.634 30.6906 135.661 30.743C136.025 30.5343 136.411 30.2277 136.819 29.8231C137.242 29.3972 137.66 28.9345 138.072 28.4349C138.484 27.9353 138.859 27.4415 139.197 26.9536C139.554 26.4627 139.844 26.0296 140.068 25.6542C140.099 25.6116 140.128 25.5597 140.156 25.4986C140.203 25.4345 140.263 25.3967 140.337 25.385C140.429 25.3704 140.485 25.4276 140.505 25.5566C140.517 25.6303 140.503 25.7175 140.462 25.8184C140.185 26.3344 139.801 26.9523 139.311 27.6721C138.82 28.3919 138.307 29.0869 137.771 29.7572C137.232 30.4091 136.738 30.9219 136.287 31.2954C136.17 31.3895 136.028 31.4497 135.862 31.476ZM145.731 29.8563C145.565 29.8826 145.36 29.8395 145.115 29.7272C144.889 29.6119 144.688 29.4738 144.512 29.3129C144.332 29.1336 144.229 28.961 144.203 28.7952C144.159 28.5189 144.202 28.1343 144.332 27.6417C144.459 27.1306 144.615 26.6243 144.8 26.1229C145.003 25.6185 145.161 25.2441 145.273 24.9997C145.05 25.2616 144.776 25.6734 144.449 26.235C144.138 26.7753 143.796 27.3583 143.423 27.9839C143.065 28.5882 142.705 29.1174 142.343 29.5714C141.999 30.0225 141.68 30.2713 141.385 30.318C140.979 30.3822 140.626 30.2966 140.324 30.0611C140.038 29.8042 139.863 29.4732 139.799 29.0679C139.711 28.5152 139.774 27.9008 139.988 27.2248C140.199 26.5304 140.507 25.849 140.911 25.1807C141.331 24.491 141.796 23.8508 142.306 23.26C142.836 22.6663 143.362 22.1768 143.887 21.7916C144.43 21.4034 144.931 21.1729 145.392 21.0999C145.889 21.0212 146.314 21.0767 146.665 21.2666C147.013 21.4381 147.224 21.7541 147.297 22.2147C147.308 22.2884 147.312 22.4295 147.307 22.638C147.321 22.8435 147.272 22.9551 147.162 22.9726C147.106 22.9813 147.001 22.913 146.846 22.7676C146.709 22.6193 146.526 22.4783 146.297 22.3446C146.068 22.2109 145.797 22.1689 145.484 22.2185C144.968 22.3002 144.456 22.5797 143.946 23.057C143.451 23.513 142.993 24.0767 142.57 24.7479C142.145 25.4007 141.787 26.0618 141.496 26.731C141.206 27.4002 140.994 27.972 140.862 28.4462C140.827 28.584 140.793 28.7309 140.762 28.887C140.748 29.0403 140.753 29.1906 140.776 29.3379C140.803 29.5038 140.862 29.5794 140.954 29.5648C141.046 29.5502 141.223 29.4182 141.486 29.1689C141.767 28.9166 141.965 28.7342 142.079 28.6217C142.651 28.059 143.176 27.4376 143.654 26.7576C144.15 26.0747 144.579 25.3836 144.94 24.6842C145.055 24.4582 145.161 24.2337 145.258 24.0106C145.355 23.7875 145.453 23.5737 145.553 23.369C145.625 23.2254 145.707 23.1464 145.799 23.1318C146.002 23.0997 146.217 23.2072 146.445 23.4544C146.691 23.6986 146.831 23.9221 146.863 24.1248C146.877 24.2169 146.868 24.2751 146.834 24.2993C146.818 24.3207 146.772 24.3847 146.694 24.4914C146.461 24.8115 146.246 25.2422 146.049 25.7834C145.87 26.3216 145.72 26.8647 145.599 27.4127C145.493 27.9393 145.422 28.3849 145.386 28.7495C145.376 28.8077 145.369 28.8843 145.365 28.9794C145.377 29.0531 145.427 29.0734 145.517 29.0404C145.692 28.956 145.955 28.7066 146.305 28.2924C146.67 27.8568 147.056 27.3708 147.462 26.8343C147.883 26.2765 148.255 25.7644 148.578 25.2978C148.919 24.8283 149.141 24.5004 149.244 24.3142C149.275 24.2715 149.306 24.2288 149.337 24.1861C149.383 24.1221 149.434 24.0857 149.49 24.077C149.619 24.0565 149.693 24.1108 149.714 24.2398C149.725 24.3135 149.613 24.5579 149.377 24.973C149.137 25.3698 148.834 25.8426 148.468 26.3917C148.099 26.9223 147.72 27.4543 147.333 27.9879C146.942 28.503 146.597 28.9449 146.296 29.3135C146.011 29.6608 145.823 29.8417 145.731 29.8563Z" fill="#DC3353"/>
</symbol>
<symbol id="icon-menu" viewBox="0 0 32 32">
<path d="M5.334 23.027v-1.333h21.333v1.333h-21.333zM5.334 16.667v-1.333h21.333v1.333h-21.333zM5.334 10.307v-1.333h21.333v1.333h-21.333z"></path>
</symbol>
<symbol id="icon-menu-close" viewBox="0 0 14 14" fill="none" xmlns="http://www.w3.org/2000/svg">
  <path d="M1.4 14L0 12.6L5.6 7L0 1.4L1.4 0L7 5.6L12.6 0L14 1.4L8.4 7L14 12.6L12.6 14L7 8.4L1.4 14Z" fill="#292929" />
</symbol>
  </defs>
</svg>