<svg xmlns="http://www.w3.org/2000/svg" aria-hidden="true" style="position:absolute;width:0;height:0;overflow:hidden">
  <defs>
    <symbol id="icon-name" viewBox="0 0 32 32">
      <!-- path -->
    </symbol>
    <symbol id="footer-icon-logo" viewBox="0 0 197 87" fill="none" xmlns="http://www.w3.org/2000/svg">
<path d="M22.36 14.68C22.2533 15.7733 22.1733 16.84 22.12 17.88C22.0933 18.8933 22.08 19.6667 22.08 20.2C22.08 20.7067 22.0933 21.2 22.12 21.68C22.1467 22.1333 22.1733 22.52 22.2 22.84H21.28C21.0667 21 20.72 19.56 20.24 18.52C19.76 17.4533 19.1067 16.7067 18.28 16.28C17.48 15.8267 16.4267 15.6 15.12 15.6H12.92C12.12 15.6 11.5067 15.6667 11.08 15.8C10.6533 15.9333 10.36 16.2133 10.2 16.64C10.0667 17.0667 10 17.72 10 18.6V39.08C10 39.9333 10.0667 40.5867 10.2 41.04C10.36 41.4667 10.6533 41.7467 11.08 41.88C11.5067 42.0133 12.12 42.08 12.92 42.08H15.2C16.56 42.08 17.6933 41.8267 18.6 41.32C19.5333 40.8133 20.28 39.9867 20.84 38.84C21.4 37.6667 21.8133 36.0667 22.08 34.04H23C22.92 34.8667 22.88 35.9333 22.88 37.24C22.88 37.8 22.8933 38.6133 22.92 39.68C22.9733 40.7467 23.0533 41.8533 23.16 43C21.8 42.9467 20.2667 42.92 18.56 42.92C16.8533 42.8933 15.3333 42.88 14 42.88C13.3867 42.88 12.5733 42.88 11.56 42.88C10.5733 42.88 9.49333 42.8933 8.32 42.92C7.17333 42.92 6 42.9333 4.8 42.96C3.62667 42.96 2.50667 42.9733 1.44 43V42.2C2.32 42.1467 2.97333 42.04 3.4 41.88C3.85333 41.72 4.14667 41.4 4.28 40.92C4.44 40.44 4.52 39.72 4.52 38.76V18.92C4.52 17.9333 4.44 17.2133 4.28 16.76C4.14667 16.28 3.85333 15.96 3.4 15.8C2.97333 15.6133 2.32 15.5067 1.44 15.48V14.68C2.50667 14.7067 3.62667 14.7333 4.8 14.76C6 14.76 7.17333 14.7733 8.32 14.8C9.49333 14.8 10.5733 14.8 11.56 14.8C12.5733 14.8 13.3867 14.8 14 14.8C15.2267 14.8 16.6133 14.8 18.16 14.8C19.7333 14.7733 21.1333 14.7333 22.36 14.68ZM15.92 28.36C15.92 28.36 15.92 28.4933 15.92 28.76C15.92 29.0267 15.92 29.16 15.92 29.16H8.8C8.8 29.16 8.8 29.0267 8.8 28.76C8.8 28.4933 8.8 28.36 8.8 28.36H15.92ZM17.08 23.08C16.9733 24.6 16.92 25.76 16.92 26.56C16.9467 27.36 16.96 28.0933 16.96 28.76C16.96 29.4267 16.9733 30.16 17 30.96C17.0267 31.76 17.0933 32.92 17.2 34.44H16.28C16.1467 33.5333 15.9333 32.68 15.64 31.88C15.3733 31.0533 14.9333 30.4 14.32 29.92C13.7333 29.4133 12.88 29.16 11.76 29.16V28.36C12.5867 28.36 13.2533 28.1867 13.76 27.84C14.2933 27.4933 14.72 27.0533 15.04 26.52C15.36 25.96 15.6 25.3867 15.76 24.8C15.9467 24.1867 16.08 23.6133 16.16 23.08H17.08ZM52.4 14.68V15.48C51.5467 15.56 50.8933 15.76 50.44 16.08C49.9867 16.3733 49.68 16.8533 49.52 17.52C49.3867 18.16 49.32 19.08 49.32 20.28V43.12C49.08 43.0933 48.8133 43.08 48.52 43.08C48.2533 43.08 47.96 43.0933 47.64 43.12L30.48 19.8V37.08C30.48 38.36 30.56 39.36 30.72 40.08C30.88 40.7733 31.2267 41.28 31.76 41.6C32.32 41.8933 33.16 42.0933 34.28 42.2V43C33.7733 42.9467 33.12 42.92 32.32 42.92C31.52 42.8933 30.76 42.88 30.04 42.88C29.4 42.88 28.7467 42.8933 28.08 42.92C27.44 42.92 26.9067 42.9467 26.48 43V42.2C27.36 42.0933 28.0133 41.8933 28.44 41.6C28.8933 41.3067 29.1867 40.8267 29.32 40.16C29.48 39.4933 29.56 38.5733 29.56 37.4V18.92C29.56 17.9333 29.48 17.2133 29.32 16.76C29.1867 16.28 28.8933 15.96 28.44 15.8C28.0133 15.6133 27.36 15.5067 26.48 15.48V14.68C26.9067 14.7067 27.44 14.7333 28.08 14.76C28.7467 14.7867 29.4 14.8 30.04 14.8C30.6533 14.8 31.2533 14.7867 31.84 14.76C32.4267 14.7333 32.9467 14.7067 33.4 14.68L48.4 34.64V20.6C48.4 19.2933 48.32 18.2933 48.16 17.6C48 16.9067 47.6533 16.4 47.12 16.08C46.5867 15.76 45.7467 15.56 44.6 15.48V14.68C45.1067 14.7067 45.76 14.7333 46.56 14.76C47.3867 14.7867 48.1467 14.8 48.84 14.8C49.5067 14.8 50.16 14.7867 50.8 14.76C51.4667 14.7333 52 14.7067 52.4 14.68ZM69.1594 14.12C70.946 14.12 72.3994 14.3867 73.5194 14.92C74.6394 15.4267 75.666 16.0267 76.5994 16.72C76.9194 16.9867 77.186 17.12 77.3994 17.12C77.906 17.12 78.2394 16.3067 78.3994 14.68H79.3194C79.266 15.6933 79.226 16.9333 79.1994 18.4C79.1727 19.8667 79.1594 21.8 79.1594 24.2H78.2394C78.0527 22.76 77.786 21.4667 77.4394 20.32C77.0927 19.1733 76.466 18.2 75.5594 17.4C74.866 16.6533 73.986 16.08 72.9194 15.68C71.8794 15.2533 70.826 15.04 69.7594 15.04C68.346 15.04 67.106 15.4133 66.0394 16.16C64.9994 16.88 64.1194 17.88 63.3994 19.16C62.706 20.4133 62.186 21.88 61.8394 23.56C61.4927 25.2133 61.3194 26.9867 61.3194 28.88C61.3194 33.68 62.0127 37.2 63.3994 39.44C64.8127 41.6533 66.8794 42.76 69.5994 42.76C70.346 42.76 70.986 42.6667 71.5194 42.48C72.0794 42.2667 72.5327 42.0533 72.8794 41.84C73.306 41.5467 73.586 41.24 73.7194 40.92C73.8527 40.6 73.9194 40.2 73.9194 39.72V35.8C73.9194 34.6267 73.8127 33.76 73.5994 33.2C73.386 32.6133 72.986 32.2133 72.3994 32C71.8394 31.7867 70.9994 31.6667 69.8794 31.64V30.84C70.4127 30.8667 71.0394 30.8933 71.7594 30.92C72.506 30.92 73.2794 30.9333 74.0794 30.96C74.906 30.96 75.6527 30.96 76.3194 30.96C77.3594 30.96 78.306 30.9467 79.1594 30.92C80.0127 30.8933 80.7194 30.8667 81.2794 30.84V31.64C80.746 31.6667 80.3327 31.76 80.0394 31.92C79.7727 32.08 79.5994 32.4 79.5194 32.88C79.4394 33.36 79.3994 34.0933 79.3994 35.08V43H78.5994C78.5727 42.5467 78.466 42.0533 78.2794 41.52C78.0927 40.9867 77.8127 40.72 77.4394 40.72C77.2527 40.72 77.0394 40.7733 76.7994 40.88C76.5594 40.96 76.146 41.16 75.5594 41.48C74.626 42.0933 73.626 42.6 72.5594 43C71.5194 43.3733 70.3727 43.56 69.1194 43.56C66.1327 43.56 63.5994 43 61.5194 41.88C59.466 40.7333 57.906 39.0933 56.8394 36.96C55.7727 34.8 55.2394 32.2267 55.2394 29.24C55.2394 26.1733 55.8394 23.5067 57.0394 21.24C58.2394 18.9733 59.8794 17.2267 61.9594 16C64.066 14.7467 66.466 14.12 69.1594 14.12ZM95.5447 14.68V15.48C94.638 15.5067 93.9447 15.6133 93.4647 15.8C93.0114 15.96 92.7047 16.28 92.5447 16.76C92.3847 17.2133 92.3047 17.9333 92.3047 18.92V39.08C92.3047 39.9333 92.3714 40.5867 92.5047 41.04C92.6647 41.4667 92.9447 41.7467 93.3447 41.88C93.7447 42.0133 94.318 42.08 95.0647 42.08H97.3447C98.3847 42.08 99.2914 41.8933 100.065 41.52C100.865 41.1467 101.558 40.6 102.145 39.88C102.731 39.16 103.211 38.28 103.585 37.24C103.958 36.1733 104.225 34.9733 104.385 33.64H105.305C105.225 34.52 105.185 35.6667 105.185 37.08C105.185 37.6667 105.198 38.5067 105.225 39.6C105.278 40.6933 105.358 41.8267 105.465 43C104.105 42.9467 102.571 42.92 100.865 42.92C99.158 42.8933 97.638 42.88 96.3047 42.88C95.6647 42.88 94.8514 42.88 93.8647 42.88C92.878 42.88 91.798 42.8933 90.6247 42.92C89.478 42.92 88.3047 42.9333 87.1047 42.96C85.9314 42.96 84.8114 42.9733 83.7447 43V42.2C84.6247 42.1467 85.278 42.04 85.7047 41.88C86.158 41.72 86.4514 41.4 86.5847 40.92C86.7447 40.44 86.8247 39.72 86.8247 38.76V18.92C86.8247 17.9333 86.7447 17.2133 86.5847 16.76C86.4514 16.28 86.158 15.96 85.7047 15.8C85.278 15.6133 84.6247 15.5067 83.7447 15.48V14.68C84.4114 14.7067 85.2647 14.7333 86.3047 14.76C87.3447 14.7867 88.4647 14.8 89.6647 14.8C90.758 14.8 91.838 14.7867 92.9047 14.76C93.9714 14.7333 94.8514 14.7067 95.5447 14.68ZM119.486 14.68V15.48C118.633 15.5067 117.98 15.6133 117.526 15.8C117.1 15.96 116.806 16.28 116.646 16.76C116.486 17.2133 116.406 17.9333 116.406 18.92V38.76C116.406 39.72 116.486 40.44 116.646 40.92C116.806 41.4 117.1 41.72 117.526 41.88C117.98 42.04 118.633 42.1467 119.486 42.2V43C118.82 42.9467 117.966 42.92 116.926 42.92C115.886 42.8933 114.833 42.88 113.766 42.88C112.566 42.88 111.446 42.8933 110.406 42.92C109.366 42.92 108.513 42.9467 107.846 43V42.2C108.726 42.1467 109.38 42.04 109.806 41.88C110.26 41.72 110.553 41.4 110.686 40.92C110.846 40.44 110.926 39.72 110.926 38.76V18.92C110.926 17.9333 110.846 17.2133 110.686 16.76C110.553 16.28 110.26 15.96 109.806 15.8C109.38 15.6133 108.726 15.5067 107.846 15.48V14.68C108.513 14.7067 109.366 14.7333 110.406 14.76C111.446 14.7867 112.566 14.8 113.766 14.8C114.833 14.8 115.886 14.7867 116.926 14.76C117.966 14.7333 118.82 14.7067 119.486 14.68ZM131.937 14.2C133.43 14.2 134.577 14.36 135.377 14.68C136.177 15 136.87 15.3467 137.457 15.72C137.777 15.9067 138.03 16.0533 138.217 16.16C138.43 16.24 138.63 16.28 138.817 16.28C139.083 16.28 139.27 16.1333 139.377 15.84C139.51 15.5467 139.617 15.1067 139.697 14.52H140.617C140.59 15.0267 140.55 15.6133 140.497 16.28C140.47 16.9467 140.443 17.84 140.417 18.96C140.417 20.0533 140.417 21.5067 140.417 23.32H139.497C139.417 21.96 139.11 20.6533 138.577 19.4C138.07 18.1467 137.337 17.12 136.377 16.32C135.443 15.4933 134.243 15.08 132.777 15.08C131.47 15.08 130.377 15.4667 129.497 16.24C128.643 17.0133 128.217 18.0533 128.217 19.36C128.217 20.48 128.497 21.4267 129.057 22.2C129.617 22.9467 130.403 23.68 131.417 24.4C132.457 25.0933 133.683 25.8933 135.097 26.8C136.403 27.6533 137.577 28.5067 138.617 29.36C139.657 30.1867 140.47 31.1067 141.057 32.12C141.67 33.1333 141.977 34.3733 141.977 35.84C141.977 37.5733 141.55 39.0133 140.697 40.16C139.843 41.3067 138.697 42.16 137.257 42.72C135.817 43.28 134.243 43.56 132.537 43.56C130.963 43.56 129.71 43.4 128.777 43.08C127.87 42.76 127.083 42.4267 126.417 42.08C125.83 41.7067 125.377 41.52 125.057 41.52C124.79 41.52 124.59 41.6667 124.457 41.96C124.35 42.2533 124.257 42.6933 124.177 43.28H123.257C123.31 42.6667 123.337 41.9467 123.337 41.12C123.363 40.2933 123.377 39.2267 123.377 37.92C123.403 36.5867 123.417 34.9067 123.417 32.88H124.337C124.443 34.5867 124.737 36.1867 125.217 37.68C125.723 39.1467 126.483 40.3333 127.497 41.24C128.537 42.1467 129.91 42.6 131.617 42.6C132.55 42.6 133.39 42.44 134.137 42.12C134.91 41.7733 135.523 41.2533 135.977 40.56C136.43 39.84 136.657 38.9333 136.657 37.84C136.657 36.7467 136.403 35.7867 135.897 34.96C135.39 34.1333 134.683 33.36 133.777 32.64C132.87 31.92 131.803 31.1867 130.577 30.44C129.323 29.64 128.15 28.8267 127.057 28C125.963 27.1733 125.083 26.24 124.417 25.2C123.777 24.1333 123.457 22.8533 123.457 21.36C123.457 19.7067 123.857 18.36 124.657 17.32C125.457 16.2533 126.497 15.4667 127.777 14.96C129.083 14.4533 130.47 14.2 131.937 14.2ZM162.07 43V42.2C162.95 42.1467 163.603 42.04 164.03 41.88C164.483 41.72 164.777 41.4 164.91 40.92C165.07 40.44 165.15 39.72 165.15 38.76V18.92C165.15 17.9333 165.07 17.2133 164.91 16.76C164.777 16.28 164.483 15.96 164.03 15.8C163.603 15.6133 162.95 15.5067 162.07 15.48V14.68C162.79 14.7067 163.683 14.7333 164.75 14.76C165.817 14.7867 166.883 14.8 167.95 14.8C169.123 14.8 170.217 14.7867 171.23 14.76C172.27 14.7333 173.097 14.7067 173.71 14.68V15.48C172.857 15.5067 172.203 15.6133 171.75 15.8C171.323 15.96 171.03 16.28 170.87 16.76C170.71 17.2133 170.63 17.9333 170.63 18.92V38.76C170.63 39.72 170.71 40.44 170.87 40.92C171.03 41.4 171.323 41.72 171.75 41.88C172.203 42.04 172.857 42.1467 173.71 42.2V43C173.097 42.9467 172.27 42.92 171.23 42.92C170.217 42.8933 169.123 42.88 167.95 42.88C166.883 42.88 165.817 42.8933 164.75 42.92C163.683 42.92 162.79 42.9467 162.07 43ZM145.19 43V42.2C146.07 42.1467 146.723 42.04 147.15 41.88C147.603 41.72 147.897 41.4 148.03 40.92C148.19 40.44 148.27 39.72 148.27 38.76V18.92C148.27 17.9333 148.19 17.2133 148.03 16.76C147.897 16.28 147.603 15.96 147.15 15.8C146.723 15.6133 146.07 15.5067 145.19 15.48V14.68C145.857 14.7067 146.71 14.7333 147.75 14.76C148.79 14.7867 149.91 14.8 151.11 14.8C152.177 14.8 153.23 14.7867 154.27 14.76C155.31 14.7333 156.163 14.7067 156.83 14.68V15.48C155.977 15.5067 155.323 15.6133 154.87 15.8C154.443 15.96 154.15 16.28 153.99 16.76C153.83 17.2133 153.75 17.9333 153.75 18.92V38.76C153.75 39.72 153.83 40.44 153.99 40.92C154.15 41.4 154.443 41.72 154.87 41.88C155.323 42.04 155.977 42.1467 156.83 42.2V43C156.163 42.9467 155.31 42.92 154.27 42.92C153.23 42.8933 152.177 42.88 151.11 42.88C149.91 42.88 148.79 42.8933 147.75 42.92C146.71 42.92 145.857 42.9467 145.19 43ZM151.55 29.16V28.36H167.35V29.16H151.55Z" fill="white"/>
<path d="M62.4678 70.015C62.0174 70.0863 61.5532 69.9168 61.0751 69.5066C60.6207 69.0925 60.3598 68.6722 60.2922 68.2455C60.2734 68.127 60.2703 68.0303 60.2827 67.9554C60.5292 66.75 60.9092 65.6207 61.4227 64.5674C61.9562 63.4866 62.476 62.3959 62.982 61.2952C63.002 61.2677 63.0082 61.2303 63.0007 61.1828C62.9894 61.1117 62.9682 61.0544 62.937 61.0107C62.902 60.9433 62.8789 60.8741 62.8676 60.803C62.8301 60.5659 62.9329 60.2945 63.176 59.9887C63.4429 59.6792 63.7391 59.4014 64.0646 59.1555C64.4139 58.9057 64.6952 58.764 64.9085 58.7302C65.1693 58.6889 65.4332 58.7443 65.7002 58.8964C65.9873 59.021 66.1533 59.2256 66.1984 59.51C65.9914 59.7372 65.7002 60.1235 65.3249 60.6689C64.9496 61.2144 64.55 61.8365 64.1261 62.5354C63.7222 63.2069 63.3339 63.9002 62.9612 64.6153C62.6084 65.3029 62.3211 65.9438 62.0993 66.5378C61.8974 67.1043 61.819 67.5298 61.8641 67.8143C61.9016 68.0513 62.0271 68.153 62.2404 68.1192C62.4775 68.0816 62.7949 67.8613 63.1927 67.4581C63.6105 67.0274 64.0507 66.5082 64.5133 65.9003C64.9759 65.2925 65.4229 64.6628 65.8543 64.0113C66.2857 63.3598 66.6672 62.7769 66.9988 62.2627C67.3504 61.721 67.5923 61.3304 67.7244 61.0908C67.9251 60.6702 68.1314 60.2852 68.3434 59.9357C68.5753 59.5588 68.8358 59.0559 69.125 58.4269C69.2771 58.1598 69.4466 57.9264 69.6337 57.7267C69.817 57.5032 70.0272 57.3728 70.2642 57.3352C70.3827 57.3164 70.5699 57.3475 70.8257 57.4285C71.0815 57.5095 71.2918 57.6098 71.4566 57.7295C71.6176 57.8255 71.7112 57.9565 71.7375 58.1224C71.7713 58.3358 71.7146 58.5148 71.5674 58.6596C71.3393 59.0603 71.0626 59.6144 70.7373 60.322C70.4319 61.0021 70.1359 61.7415 69.8493 62.5402C69.5827 63.3114 69.3697 64.0377 69.2103 64.719C69.0509 65.4003 68.9994 65.9188 69.0557 66.2743C69.1083 66.6062 69.2313 66.7689 69.4246 66.7626C69.7053 66.6939 70.0808 66.3793 70.5509 65.8188C71.021 65.2584 71.5197 64.5719 72.0471 63.7594C72.5945 62.9194 73.1162 62.0714 73.6124 61.2152C74.1048 60.3353 74.5293 59.5634 74.8858 58.8995C74.8894 58.4615 74.8867 58.061 74.8778 57.698C74.8888 57.3074 74.9616 56.8464 75.0961 56.3148C75.1733 56.0353 75.2936 55.7975 75.4569 55.6015C75.6165 55.3819 75.8386 55.2495 76.123 55.2045C76.3838 55.1632 76.634 55.2086 76.8736 55.3407C77.1369 55.4691 77.2892 55.6637 77.3305 55.9244C77.3793 56.2326 77.3059 56.5358 77.1101 56.8341C76.9144 57.1324 76.7299 57.5018 76.5567 57.9423C76.3834 58.3829 76.355 58.9705 76.4714 59.7054L76.4939 59.8476C76.509 59.9424 76.5159 60.0628 76.5147 60.2088C76.5135 60.3548 76.4537 60.4372 76.3351 60.4559C76.1692 60.4822 75.9764 60.4156 75.7567 60.256C75.5371 60.0964 75.4022 59.9355 75.3523 59.7733C74.8648 60.5309 74.3468 61.4026 73.7982 62.3886C73.2734 63.3708 72.7449 64.3293 72.2125 65.264C71.7002 66.1714 71.2065 66.9664 70.7314 67.6491C70.2763 68.3044 69.8666 68.7094 69.5024 68.8643C69.4113 68.9031 69.2947 68.9337 69.1525 68.9562C68.8917 68.9975 68.6334 68.9777 68.3776 68.8967C68.1218 68.8157 67.8628 68.638 67.6007 68.3637C67.5694 68.32 67.5482 68.2626 67.5369 68.1915C67.5257 68.1204 67.5044 68.063 67.4732 68.0194C67.4345 67.9283 67.3839 67.8391 67.3215 67.7518C67.279 67.637 67.2484 67.5204 67.2296 67.4019C67.1433 66.8567 67.196 66.1922 67.3878 65.4086C67.6032 64.6212 67.8524 63.8163 68.1352 62.9939C68.4181 62.1716 68.6448 61.4553 68.8154 60.8451C67.7121 62.6236 66.709 64.1918 65.8064 65.5497C64.9236 66.8802 64.0727 68.1813 63.2536 69.4531C63.1538 69.5904 63.0403 69.7177 62.9131 69.8351C62.8059 69.925 62.6574 69.9849 62.4678 70.015ZM83.4049 52.9577C82.8597 53.044 82.5552 52.8857 82.4913 52.4827C82.4463 52.1983 82.5516 51.8657 82.8072 51.485C83.0628 51.1044 83.4756 50.796 84.0457 50.5599C84.3862 50.4088 84.6632 50.3163 84.8765 50.2825C85.1098 50.2213 85.3275 50.1382 85.5296 50.0333C85.5061 50.4987 85.3816 51.0165 85.156 51.5869C84.9541 52.1534 84.6256 52.5335 84.1702 52.7271C83.9445 52.8358 83.6893 52.9126 83.4049 52.9577ZM79.9572 68.0103C79.5779 68.0704 79.1979 67.9726 78.8173 67.717C78.4603 67.4577 78.2181 67.1559 78.0907 66.8116C78.0905 66.3499 78.1582 65.7803 78.2939 65.1027C78.4495 64.3977 78.6369 63.6633 78.8562 62.8996C79.0754 62.1359 79.3021 61.4197 79.5364 60.7508C79.7669 60.0582 79.9706 59.5035 80.1476 59.0867C79.761 59.561 79.3464 60.0883 78.9037 60.6687C78.4848 61.2454 78.0839 61.7827 77.7011 62.2807C77.6812 62.3082 77.6294 62.365 77.5459 62.4511C77.486 62.5335 77.4205 62.5803 77.3494 62.5916C77.1835 62.6178 77.0892 62.5599 77.0667 62.4176C77.0479 62.2991 77.0785 62.1849 77.1583 62.0751C77.6856 61.2626 78.2367 60.4463 78.8115 59.6263C79.41 58.8026 79.9811 57.9588 80.5247 57.0952C80.6967 56.8006 80.8426 56.571 80.9623 56.4062C81.1019 56.214 81.3377 56.0916 81.6696 56.0391C81.8118 56.0165 82.0308 56.0183 82.3265 56.0444C82.6421 56.043 82.9061 56.0984 83.1182 56.2106C83.3541 56.319 83.4178 56.4911 83.3094 56.727C83.1847 57.014 82.9679 57.4858 82.6587 58.1422C82.3496 58.7987 81.9944 59.5474 81.593 60.3886C81.2154 61.226 80.8396 62.0752 80.4657 62.9363C80.1118 63.7699 79.8295 64.5193 79.619 65.1844C79.4084 65.8496 79.3276 66.3362 79.3764 66.6444C79.3989 66.7866 79.4576 66.8502 79.5524 66.8352C79.6946 66.8127 79.911 66.6447 80.2016 66.3314C80.5158 66.0144 80.8164 65.6873 81.1032 65.3503C81.4099 64.9858 81.6151 64.7468 81.7186 64.6332C82.3122 63.9317 82.892 63.2202 83.4581 62.4988C84.0205 61.7537 84.5435 60.9904 85.0272 60.2091C85.0671 60.1542 85.1151 60.0737 85.1712 59.9677C85.251 59.8578 85.3383 59.7954 85.4332 59.7804C85.5517 59.7616 85.6222 59.8233 85.6447 59.9656C85.671 60.1315 85.638 60.3068 85.5458 60.4915C85.2977 60.9196 85.0141 61.3533 84.6949 61.7926C84.3719 62.2083 84.0727 62.6202 83.7971 63.0283C83.2784 63.7422 82.7716 64.4543 82.2766 65.1645C81.8015 65.8472 81.3302 66.5536 80.8627 67.2837C80.7667 67.4447 80.6333 67.5995 80.4624 67.7481C80.3152 67.8929 80.1468 67.9803 79.9572 68.0103ZM87.5584 66.9887C87.1317 67.0562 86.7418 66.9722 86.3886 66.7366C86.059 66.4972 85.7794 66.1891 85.5497 65.8124C85.3398 65.4083 85.2049 65.0165 85.1448 64.6373C85.0848 64.258 85.074 63.8831 85.1125 63.5125C85.1472 63.1182 85.2194 62.7301 85.329 62.3483C85.7276 60.8758 86.2185 59.4494 86.8018 58.0692C87.385 56.689 88.0138 55.2894 88.6882 53.8704C88.2652 53.9617 87.6888 54.0044 86.9589 53.9985C86.2527 53.9889 85.6319 53.9049 85.0966 53.7467C84.8408 53.6658 84.623 53.518 84.4432 53.3035C84.2834 53.0615 84.1903 52.8576 84.1641 52.6916C84.1303 52.4783 84.1882 52.3841 84.338 52.4089C85.2702 52.7716 86.105 52.9795 86.8424 53.0328C87.5998 53.0587 88.3833 53.0196 89.193 52.9157C89.83 51.7213 90.5163 50.5313 91.2519 49.3457C92.0112 48.1562 92.7768 47.1602 93.5487 46.3576C93.656 46.2677 93.7452 46.2171 93.8163 46.2058C94.0059 46.1758 94.1869 46.2443 94.3591 46.4114C94.5551 46.5748 94.67 46.7632 94.7038 46.9765C94.7526 47.2846 94.6678 47.5168 94.4496 47.6728C93.2936 49.1195 92.1478 50.7832 91.012 52.664C91.4188 52.6239 91.8492 52.58 92.3034 52.5324C92.7537 52.4611 93.2041 52.3897 93.6545 52.3184C94.3419 52.2095 95.0156 52.0907 95.6756 51.9618C96.3356 51.833 96.9088 51.6936 97.3954 51.5437C99.9728 45.5709 102.671 41.4379 105.491 39.1445C106.091 38.6364 106.653 38.2681 107.175 38.0395C107.694 37.7872 108.179 37.6254 108.629 37.5541C109.317 37.4452 109.898 37.511 110.374 37.7516C110.869 37.9647 111.293 38.2621 111.645 38.6437C111.793 38.8146 111.888 39.0304 111.93 39.2912C112.031 39.9312 111.827 40.7897 111.317 41.8667C110.803 42.92 109.989 44.0695 108.874 45.3153C107.756 46.5373 106.355 47.7433 104.673 48.9331C102.986 50.0993 101.021 51.1152 98.7768 51.9809C97.9478 53.4973 97.2417 54.9456 96.6584 56.3258C96.0751 57.7061 95.6278 58.8704 95.3163 59.8188C95.8824 59.0973 96.514 58.3291 97.2111 57.514C97.9281 56.6715 98.6252 55.8564 99.3023 55.0688C99.9757 54.2574 100.522 53.5634 100.941 52.9868C101.041 52.8495 101.181 52.7421 101.364 52.6647C101.569 52.5835 101.72 52.5354 101.815 52.5204C102.146 52.4678 102.505 52.5812 102.889 52.8605C103.297 53.136 103.533 53.4753 103.597 53.8783C103.653 54.2338 103.55 54.5782 103.287 54.9115C102.677 55.6642 102.072 56.5254 101.473 57.4951C100.869 58.4412 100.344 59.4234 99.8981 60.4417C99.7773 60.7524 99.6059 61.2048 99.3841 61.7988C99.186 62.3891 99.1132 62.8501 99.1658 63.182C99.2033 63.419 99.2932 63.5263 99.4355 63.5038C99.7199 63.4587 100.087 63.2427 100.536 62.8557C101.008 62.4649 101.503 61.9856 102.021 61.4176C102.558 60.8222 103.082 60.2168 103.592 59.6015C104.126 58.9824 104.594 58.4101 104.997 57.8846C105.4 57.3591 105.689 56.961 105.865 56.6901C105.984 56.5254 106.092 56.4355 106.187 56.4205C106.329 56.3979 106.411 56.4578 106.434 56.6C106.445 56.6711 106.414 56.7853 106.342 56.9426C106.098 57.3943 105.728 57.9753 105.233 58.6855C104.734 59.372 104.18 60.0915 103.57 60.8442C102.957 61.5731 102.359 62.2509 101.778 62.8776C101.217 63.4767 100.744 63.9405 100.359 64.2688C100.208 64.3899 100.002 64.4711 99.741 64.5124C99.3854 64.5687 98.9518 64.5159 98.4402 64.3539C97.9286 64.192 97.6408 63.9095 97.577 63.5065C97.5207 63.151 97.5797 62.6799 97.7541 62.0934C97.9285 61.5069 98.1566 60.8755 98.4382 60.1991C98.7199 59.5227 99.0171 58.8681 99.33 58.2354C99.6391 57.579 99.904 57.0267 100.125 56.5787C100.365 56.1032 100.51 55.7887 100.558 55.6352C100.819 55.1323 100.975 54.8159 101.028 54.6861C101.08 54.5563 101.112 54.454 101.125 54.3792C100.958 54.5514 100.697 54.8235 100.343 55.1955C99.985 55.5438 99.629 55.9039 99.2748 56.2759C98.9206 56.6479 98.6619 56.9319 98.4985 57.1278C97.355 58.4996 96.4174 59.7902 95.6855 60.9996C94.9737 62.1815 94.3323 63.4251 93.7615 64.7305C93.7416 64.7579 93.686 64.791 93.595 64.8297C93.5002 64.8448 93.4291 64.856 93.3816 64.8635C93.2394 64.8861 93.0204 64.8843 92.7247 64.8582C92.4527 64.8284 92.3216 64.6912 92.3315 64.4467C92.4174 64.0686 92.547 63.6593 92.7202 63.2188C92.8934 62.7782 93.1389 62.1805 93.4567 61.4255C93.7708 60.6467 94.1702 59.5629 94.6548 58.174C94.7396 57.9419 94.8866 57.5663 95.096 57.0471C95.3054 56.528 95.5328 55.9695 95.7783 55.3718C96.0475 54.7702 96.2968 54.1962 96.5261 53.6496C96.7554 53.103 96.9324 52.6862 97.057 52.3991C96.6142 52.5179 95.9935 52.6648 95.195 52.8398C94.3928 52.9912 93.5769 53.1326 92.7473 53.264C92.3443 53.3278 91.9532 53.3897 91.5739 53.4498C91.1909 53.4862 90.8315 53.5188 90.4959 53.5476C90.1368 54.0419 89.7167 54.7645 89.2355 55.7155C88.7781 56.6627 88.3375 57.7166 87.9139 58.8772C87.4864 60.014 87.1538 61.1359 86.9161 62.2427C86.702 63.3458 86.6606 64.3121 86.792 65.1418C86.8108 65.2603 86.8377 65.3533 86.8727 65.4206C86.9076 65.488 86.9844 65.5123 87.1029 65.4935C87.2451 65.471 87.3699 65.4148 87.4771 65.3249C87.6043 65.2075 87.7078 65.094 87.7876 64.9841C88.0782 64.6708 88.3394 64.3257 88.5713 63.9488C88.8232 63.5444 89.0669 63.1656 89.3026 62.8124C89.7339 62.1609 90.1791 61.5194 90.6379 60.8878C91.0968 60.2562 91.5438 59.6266 91.9789 58.9988C92.0188 58.9438 92.0606 58.9008 92.1043 58.8696C92.1442 58.8147 92.1878 58.7834 92.2352 58.7759C92.4011 58.7496 92.4991 58.8313 92.5292 59.021C92.5404 59.0921 92.5099 59.2063 92.4376 59.3635C92.2132 59.7878 91.9652 60.2159 91.6934 60.6477C91.4178 61.0559 91.156 61.474 90.9079 61.9021C90.408 62.7345 89.9062 63.5551 89.4025 64.3639C88.9225 65.1689 88.4463 65.9976 87.9738 66.85C87.9065 66.8849 87.8372 66.908 87.7661 66.9193C87.6987 66.9543 87.6295 66.9774 87.5584 66.9887ZM99.0327 51.0656C100.078 50.6085 101.162 50.0116 102.285 49.2749C103.427 48.5107 104.523 47.6811 105.572 46.786C106.617 45.8672 107.54 44.9435 108.34 44.0148C109.161 43.0587 109.784 42.1582 110.209 41.3133C110.658 40.4646 110.835 39.744 110.741 39.1514C110.715 38.9854 110.682 38.8569 110.644 38.7659C110.41 38.3655 109.961 38.2178 109.298 38.323C109.037 38.3643 108.746 38.4467 108.426 38.5704C108.129 38.6903 107.818 38.8733 107.492 39.1192C106.313 39.962 105.242 40.9457 104.278 42.0703C103.338 43.1912 102.45 44.4861 101.613 45.9551C100.777 47.424 99.9164 49.1275 99.0327 51.0656ZM129.945 61.8062C129.665 61.7289 129.446 61.5693 129.286 61.3274C129.126 61.0854 129.016 60.7748 128.956 60.3955C128.836 59.637 128.867 58.6843 129.05 57.5376C129.253 56.3634 129.463 55.2366 129.681 54.1573C129.865 53.3262 130.051 52.3492 130.237 51.2262C130.444 50.0757 130.643 48.8778 130.834 47.6325C131.046 46.3597 131.241 45.1381 131.42 43.9677C131.599 42.7973 131.74 41.7666 131.842 40.8757C131.964 39.9573 132.04 39.2892 132.071 38.8712C130.338 39.8989 128.818 41.0387 127.51 42.2908C126.198 43.5192 125.001 44.8629 123.92 46.322C122.859 47.7536 121.805 49.3056 120.758 50.978L125.771 50.184C125.866 50.1689 126.081 50.147 126.417 50.1181C126.749 50.0656 127.108 50.033 127.495 50.0203C127.878 49.9839 128.205 49.9807 128.477 50.0105C128.769 50.0128 128.925 50.0733 128.943 50.1918C128.974 50.3814 128.763 50.5849 128.311 50.8022C127.88 50.9921 127.304 51.1926 126.584 51.4038C125.884 51.5876 125.147 51.7651 124.372 51.9364C123.594 52.084 122.874 52.2222 122.214 52.351C121.554 52.4799 121.059 52.5706 120.727 52.6231C120.276 52.6945 119.818 53.0222 119.352 53.6064C118.885 54.1905 118.443 54.9287 118.026 55.821C117.632 56.7096 117.271 57.6536 116.943 58.6532C116.636 59.6253 116.37 60.5544 116.146 61.4403C115.945 62.3225 115.819 63.0594 115.767 63.6508C115.774 63.6982 115.772 63.7594 115.759 63.8342C115.747 63.9091 115.705 63.9522 115.634 63.9634C115.492 63.9859 115.329 63.8781 115.145 63.6399C114.942 63.4291 114.831 63.2645 114.812 63.1459C114.711 62.5059 114.746 61.7348 114.919 60.8327C115.092 59.9305 115.335 59.0052 115.646 58.0568C115.978 57.0809 116.33 56.1625 116.704 55.3014C117.102 54.4365 117.463 53.7233 117.787 53.1617C117.194 53.2555 116.592 53.3631 115.979 53.4844C115.363 53.5821 114.746 53.6797 114.13 53.7773C113.988 53.7998 113.838 53.7749 113.681 53.7026C113.496 53.6104 113.369 53.4969 113.299 53.3622C113.352 53.0864 113.609 52.8636 114.068 52.6937C114.523 52.5001 115.057 52.3426 115.67 52.2213C116.302 52.0725 116.901 51.9412 117.466 51.8274C118.031 51.7136 118.439 51.6005 118.688 51.4881C119.032 50.899 119.511 50.167 120.126 49.2921C120.741 48.4171 121.455 47.4779 122.268 46.4744C123.081 45.4708 123.943 44.4716 124.855 43.4768C125.766 42.4819 126.677 41.56 127.588 40.7112C128.498 39.8623 129.372 39.165 130.209 38.6194C131.042 38.05 131.779 37.7147 132.419 37.6133C132.608 37.5833 132.875 37.5775 133.218 37.5961C133.557 37.5909 133.88 37.637 134.187 37.7341C134.494 37.8313 134.668 38.0103 134.71 38.271C134.758 38.5792 134.688 39.2099 134.499 40.1633C134.334 41.1128 134.09 42.2571 133.767 43.596C133.441 44.9113 133.09 46.3032 132.715 47.772C132.337 49.217 131.972 50.599 131.623 51.918C131.273 53.237 130.975 54.3532 130.731 55.2666C130.396 56.6804 130.162 57.8109 130.029 58.6582C129.92 59.5017 129.903 60.1605 129.978 60.6346C130.034 60.9901 130.154 61.287 130.338 61.5253C130.365 61.5452 130.325 61.6001 130.218 61.69C130.111 61.7799 130.02 61.8186 129.945 61.8062ZM137.645 58.4725C137.242 58.5364 136.732 58.4592 136.114 58.2412C135.496 58.0231 135.053 57.7532 134.783 57.4315C134.603 57.2169 134.487 56.9437 134.434 56.6119C134.314 55.8533 134.427 54.8027 134.774 53.46C135.14 52.0899 135.633 50.6024 136.254 48.9975C136.528 48.2737 136.892 47.4264 137.345 46.4555C137.823 45.4808 138.368 44.4711 138.98 43.4265C139.588 42.3582 140.24 41.3316 140.934 40.3469C141.652 39.3583 142.375 38.4784 143.104 37.7069C143.856 36.9318 144.59 36.3537 145.308 35.9728C145.597 35.8055 145.86 35.7031 146.097 35.6655C146.548 35.5942 146.88 35.6995 147.095 35.9813C147.33 36.2358 147.616 36.4334 147.954 36.5742C148.163 36.6627 148.288 36.8373 148.329 37.0981C148.415 37.6433 148.222 38.3421 147.75 39.1945C147.277 40.0469 146.634 40.9749 145.821 41.9784C145.008 42.9819 144.124 43.9967 143.169 45.0228C142.21 46.0252 141.277 46.9626 140.371 47.8352C139.488 48.704 138.728 49.4318 138.092 50.0185C137.456 50.6053 137.053 50.9729 136.882 51.1214C136.631 51.8415 136.419 52.6526 136.246 53.5548C136.073 54.4569 136.047 55.2873 136.167 56.0458C136.212 56.3303 136.298 56.6447 136.426 56.989C136.573 57.3058 136.837 57.4342 137.216 57.3741C137.571 57.3178 137.966 57.1217 138.398 56.7859C138.831 56.4501 139.248 56.0924 139.65 55.7129C140.048 55.3097 140.36 54.9808 140.587 54.7262C141.125 54.1307 141.589 53.5347 141.981 52.9382C142.372 52.3416 142.835 51.6607 143.37 50.8956C143.41 50.8407 143.452 50.7977 143.496 50.7664C143.535 50.7115 143.591 50.6784 143.662 50.6672C143.804 50.6446 143.889 50.7163 143.915 50.8823C143.937 51.0245 143.899 51.1643 143.799 51.3016C143.016 52.4947 142.191 53.731 141.325 55.0103C140.482 56.2858 139.483 57.3431 138.328 58.1821C138.11 58.3382 137.882 58.435 137.645 58.4725ZM137.727 49.0923C138.063 48.9174 138.516 48.5541 139.085 48.0024C139.65 47.4269 140.273 46.7572 140.954 45.9933C141.658 45.2257 142.357 44.4224 143.05 43.5836C143.764 42.7174 144.411 41.898 144.994 41.1254C145.596 40.3253 146.085 39.6526 146.46 39.1071C146.855 38.5342 147.074 38.1474 147.115 37.9465C147.139 37.7967 147.148 37.6981 147.141 37.6507C147.111 37.4611 146.995 37.3457 146.794 37.3047C146.617 37.2598 146.422 37.2543 146.208 37.2881C146.09 37.3069 145.973 37.3375 145.859 37.38C145.744 37.4225 145.641 37.4631 145.55 37.5018C145.169 37.7078 144.692 38.1479 144.119 38.8219C143.541 39.4722 142.937 40.2604 142.306 41.1865C141.672 42.0889 141.044 43.0387 140.425 44.0359C139.829 45.0294 139.287 45.9779 138.798 46.8815C138.329 47.7576 137.972 48.4945 137.727 49.0923ZM140.969 71.5415C139.878 71.7142 139.247 71.2553 139.074 70.1649C139.055 70.0464 139.048 69.926 139.053 69.8037C139.035 69.6852 139.028 69.5648 139.033 69.4425C139.087 68.5591 139.36 67.6775 139.853 66.7976C140.345 65.9178 140.952 65.0684 141.673 64.2496C142.397 63.4545 143.139 62.693 143.899 61.9652C144.686 61.2574 145.389 60.6357 146.009 60.1002C146.371 59.7756 146.83 59.3749 147.386 58.898C147.966 58.4173 148.576 57.8955 149.215 57.3325C149.859 56.7932 150.471 56.2832 151.051 55.8025C151.206 55.0975 151.268 54.3345 151.235 53.5136C151.222 52.6651 151.159 51.8853 151.047 51.1742L151.002 50.8898C150.785 51.3615 150.449 51.925 149.994 52.5802C149.539 53.2355 149.01 53.8902 148.409 54.5443C147.805 55.1746 147.198 55.7202 146.591 56.1809C145.984 56.6416 145.407 56.9151 144.862 57.0014C144.483 57.0615 144.203 56.9843 144.024 56.7698C143.867 56.5515 143.765 56.2883 143.716 55.9801C143.585 55.1504 143.627 54.2689 143.844 53.3355C144.061 52.4022 144.336 51.5324 144.67 50.7262C145 49.8963 145.304 49.2043 145.581 48.6502C145.853 48.0724 145.984 47.7479 145.973 47.6768C145.969 47.6531 145.944 47.645 145.896 47.6525C145.802 47.6676 145.695 47.6844 145.576 47.7032C145.481 47.7182 145.458 47.649 145.507 47.4955C145.775 47.04 146.134 46.6187 146.583 46.2317C147.031 45.8447 147.481 45.6155 147.932 45.5442C148.097 45.5179 148.298 45.559 148.534 45.6674C148.79 45.7484 148.933 45.8837 148.963 46.0734C148.982 46.1919 148.931 46.3335 148.812 46.4983C148.672 46.6905 148.501 46.912 148.297 47.1629C148.118 47.41 147.874 47.7888 147.566 48.2993C147.39 48.5701 147.156 49.0082 146.863 49.6135C146.566 50.195 146.271 50.8614 145.977 51.6127C145.679 52.3403 145.44 53.0584 145.261 53.7672C145.102 54.4485 145.06 55.0262 145.135 55.5003C145.146 55.5714 145.159 55.6544 145.174 55.7492C145.209 55.8166 145.28 55.8783 145.386 55.9344C145.721 55.9055 146.114 55.6976 146.563 55.3106C147.008 54.8999 147.464 54.4025 147.93 53.8183C148.416 53.2067 148.863 52.577 149.271 51.9293C149.699 51.2541 150.063 50.6375 150.363 50.0797C150.683 49.4943 150.902 49.0345 151.019 48.7C151.205 48.1846 151.558 47.8856 152.08 47.803C152.459 47.743 152.686 47.7922 152.759 47.9506C152.857 48.1052 152.928 48.3248 152.973 48.6093C153.12 49.5337 153.19 50.3609 153.184 51.0908C153.198 51.7933 153.132 52.6056 152.987 53.5277C154.297 51.9837 155.526 50.3798 156.671 48.716C156.688 48.6649 156.726 48.5981 156.785 48.5157C156.869 48.4296 156.934 48.3828 156.982 48.3753C157.124 48.3527 157.206 48.4126 157.229 48.5548C157.259 48.7445 157.218 48.9454 157.106 49.1575C156.934 49.4521 156.738 49.7504 156.519 50.0524C156.323 50.3507 156.127 50.649 155.931 50.9473C155.46 51.6537 154.977 52.362 154.482 53.0722C153.983 53.7587 153.445 54.4271 152.868 55.0774C152.232 58.1183 151.195 60.8582 149.759 63.2969C148.35 65.7555 146.429 67.9673 143.994 69.9324C143.585 70.2645 143.115 70.5941 142.584 70.9212C142.052 71.2484 141.514 71.4551 140.969 71.5415ZM141.646 70.523C142.286 70.4217 142.947 70.0739 143.631 69.4796C144.294 68.9129 144.939 68.2276 145.565 67.4238C146.191 66.6199 146.746 65.8274 147.23 65.0461C147.741 64.2848 148.139 63.6507 148.423 63.144C148.739 62.535 149.044 61.9278 149.337 61.3226C149.634 60.741 149.903 60.1395 150.145 59.518C150.511 58.6095 150.798 57.7379 151.006 56.903C151.019 56.8282 150.988 56.7845 150.913 56.7721C150.865 56.7796 150.842 56.7833 150.842 56.7833C150.189 57.4212 149.523 58.0491 148.844 58.6671C148.191 59.305 147.525 59.9329 146.846 60.5508C146.504 60.8479 146.049 61.2724 145.48 61.8241C144.915 62.3996 144.31 63.03 143.666 63.7153C143.025 64.4243 142.421 65.1395 141.855 65.8609C141.293 66.6061 140.845 67.3087 140.512 67.9689C140.183 68.6528 140.056 69.2318 140.131 69.7059C140.191 70.0852 140.387 70.3215 140.717 70.4149C141.028 70.5358 141.338 70.5719 141.646 70.523ZM159.054 55.1182C158.366 55.2271 157.813 55.0352 157.395 54.5426C156.973 54.0262 156.715 53.4717 156.621 52.8791C156.494 52.0732 156.57 51.1742 156.85 50.1821C157.127 49.1663 157.494 48.1848 157.951 47.2376C158.432 46.2866 158.867 45.501 159.255 44.8807C159.351 44.7197 159.493 44.6242 159.683 44.5942C159.896 44.5604 160.123 44.6096 160.362 44.7417C160.804 44.3073 161.322 43.8972 161.917 43.5113C162.536 43.1218 163.153 42.8782 163.77 42.7806C164.836 42.6116 165.456 43.0723 165.629 44.1627C165.794 45.2057 165.685 46.2071 165.303 47.1667C164.944 48.1226 164.522 49.0642 164.037 49.9915C163.905 50.2311 163.771 50.4589 163.635 50.6748C163.523 50.887 163.387 51.1029 163.227 51.3226C164.225 50.8729 165.063 50.2543 165.74 49.4667C166.417 48.679 167.078 47.8696 167.724 47.0383C167.804 46.9285 167.876 46.8442 167.939 46.7855C168.023 46.6994 168.136 46.6451 168.278 46.6226C168.397 46.6038 168.469 46.6774 168.495 46.8433C168.499 46.867 168.473 46.9319 168.417 47.038C168.361 47.1441 168.325 47.2227 168.308 47.2738C167.676 48.3459 166.845 49.3888 165.815 50.4024C164.805 51.3886 163.687 52.076 162.46 52.4646C162.081 52.9863 161.586 53.5386 160.973 54.1216C160.357 54.6809 159.717 55.0131 159.054 55.1182ZM161.382 51.8699C161.477 51.8549 161.56 51.8418 161.631 51.8305C161.726 51.8155 161.819 51.7886 161.91 51.7499C162.294 51.1059 162.673 50.3534 163.047 49.4923C163.444 48.6274 163.755 47.752 163.979 46.866C164.2 45.9564 164.255 45.1578 164.147 44.4704C164.079 44.0437 163.844 43.8623 163.441 43.9261C163.038 43.9899 162.594 44.1817 162.11 44.5013C161.626 44.8209 161.227 45.1393 160.913 45.4564L160.93 45.563C160.967 45.8001 160.832 46.1738 160.524 46.6843C160.236 47.1673 159.915 47.6678 159.559 48.1857C159.228 48.6999 158.991 49.1261 158.851 49.4643C158.903 50.2579 159.161 50.8853 159.623 51.3468C160.084 51.8082 160.671 51.9826 161.382 51.8699ZM158.993 54.5081C159.444 54.4368 159.856 54.2014 160.23 53.8019C160.628 53.3987 160.958 53.0305 161.222 52.6972C160.645 52.7399 160.094 52.6329 159.567 52.3761C159.06 52.0919 158.583 51.7665 158.137 51.3999C158.088 51.5534 158.036 51.841 157.982 52.2627C157.927 52.6845 157.932 53.0968 157.995 53.4998C158.044 53.808 158.147 54.0712 158.303 54.2895C158.455 54.484 158.685 54.5569 158.993 54.5081ZM175.693 52.4828C175.337 52.5391 174.918 52.4962 174.433 52.3542C173.977 52.2322 173.715 51.9578 173.647 51.5311C173.568 51.0333 173.664 50.4107 173.934 49.6632C174.205 48.9157 174.542 48.1332 174.948 47.3158C175.349 46.4746 175.732 45.6728 176.097 44.9103C176.486 44.144 176.75 43.5069 176.888 42.999C176.757 43.0927 176.543 43.2725 176.245 43.5384C175.967 43.7768 175.69 44.0271 175.416 44.2892C175.138 44.5277 174.937 44.7174 174.814 44.8585C173.914 45.7785 173.149 46.7015 172.518 47.6276C171.911 48.5499 171.311 49.5927 170.718 50.7558C170.573 51.0703 170.419 51.3985 170.254 51.7405C170.113 52.0787 169.959 52.4069 169.79 52.7251C169.714 52.8587 169.567 53.0035 169.349 53.1596C169.154 53.3119 168.962 53.403 168.773 53.4331C168.464 53.4819 168.284 53.3404 168.231 53.0085C168.186 52.724 168.259 52.263 168.45 51.6253C168.664 50.9839 168.936 50.2482 169.267 49.4184C169.597 48.5885 169.953 47.7667 170.334 46.953C170.712 46.1156 171.055 45.3687 171.364 44.7123C171.67 44.0321 171.885 43.5486 172.009 43.2615C171.973 43.3401 171.863 43.4912 171.68 43.7146C171.493 43.9143 171.308 44.1259 171.124 44.3493C170.961 44.5453 170.838 44.6863 170.754 44.7725C170.371 45.2705 170.002 45.7785 169.647 46.2964C169.292 46.8144 168.936 47.3324 168.581 47.8503C168.541 47.9052 168.457 47.9914 168.33 48.1087C168.227 48.2223 168.127 48.2866 168.033 48.3016C167.914 48.3204 167.846 48.2705 167.827 48.152C167.808 48.0335 167.934 47.7583 168.206 47.3265C168.478 46.8946 168.822 46.3786 169.237 45.7782C169.652 45.1779 170.077 44.5638 170.512 43.936C170.971 43.3044 171.368 42.7434 171.704 42.2529C172.039 41.7624 172.265 41.4229 172.381 41.2345C172.569 40.8888 172.778 40.6004 173.009 40.3695C173.264 40.1348 173.58 39.9874 173.96 39.9274C174.173 39.8936 174.451 39.9589 174.793 40.1235C175.131 40.2643 175.32 40.4651 175.362 40.7258C175.377 40.8207 175.362 40.8837 175.319 40.9149C174.702 41.6201 174.113 42.4302 173.553 43.345C173.017 44.2561 172.52 45.1852 172.063 46.1325C171.606 47.0797 171.186 47.9601 170.805 48.7738C171.272 48.0437 171.813 47.3141 172.426 46.5852C173.036 45.8325 173.63 45.1311 174.207 44.4807L176.405 42.0186C176.548 41.8501 176.69 41.6697 176.829 41.4775C176.993 41.2815 177.148 41.1111 177.295 40.9663C177.466 40.8178 177.66 40.7385 177.877 40.7284C178.114 40.6908 178.351 40.6533 178.588 40.6157C178.849 40.5744 179.109 40.6061 179.369 40.7108C179.652 40.8118 179.818 41.0163 179.867 41.3245C179.916 41.6326 179.87 41.8828 179.731 42.075C179.611 42.2398 179.471 42.432 179.312 42.6517C178.969 43.0947 178.55 43.6714 178.055 44.3816C177.584 45.088 177.12 45.8418 176.663 46.6431C176.207 47.4443 175.848 48.2424 175.585 49.0373C175.318 49.8085 175.234 50.5023 175.331 51.1186C175.342 51.1897 175.354 51.2608 175.365 51.3319C175.376 51.403 175.399 51.4723 175.434 51.5396C175.902 51.2711 176.398 50.8766 176.924 50.3561C177.469 49.8081 178.006 49.2127 178.536 48.5699C179.066 47.927 179.548 47.2917 179.984 46.6639C180.442 46.0324 180.816 45.4751 181.104 44.9921C181.144 44.9372 181.182 44.8704 181.218 44.7918C181.278 44.7094 181.355 44.6607 181.45 44.6457C181.568 44.6269 181.641 44.7005 181.667 44.8664C181.682 44.9613 181.664 45.0736 181.611 45.2033C181.255 45.8673 180.761 46.6623 180.13 47.5884C179.499 48.5145 178.839 49.4088 178.149 50.2713C177.456 51.1101 176.819 51.7698 176.239 52.2504C176.089 52.3715 175.906 52.449 175.693 52.4828ZM188.391 50.3988C188.177 50.4326 187.913 50.3772 187.599 50.2326C187.308 50.0843 187.049 49.9066 186.822 49.6996C186.591 49.4689 186.459 49.2468 186.425 49.0335C186.368 48.6779 186.424 48.1832 186.591 47.5493C186.754 46.8917 186.954 46.2403 187.192 45.5951C187.454 44.9462 187.657 44.4644 187.802 44.15C187.515 44.487 187.162 45.0168 186.741 45.7394C186.341 46.4346 185.901 47.1846 185.421 47.9896C184.961 48.7672 184.498 49.448 184.032 50.0322C183.589 50.6126 183.178 50.9328 182.799 50.9929C182.277 51.0755 181.822 50.9653 181.434 50.6622C181.066 50.3318 180.841 49.9058 180.758 49.3843C180.645 48.6732 180.727 47.8827 181.002 47.0129C181.274 46.1194 181.669 45.2427 182.189 44.3828C182.729 43.4955 183.327 42.6717 183.985 41.9115C184.666 41.1476 185.343 40.5178 186.018 40.0222C186.717 39.5227 187.362 39.2261 187.955 39.1323C188.595 39.0309 189.141 39.1024 189.592 39.3467C190.04 39.5673 190.311 39.9739 190.405 40.5666C190.42 40.6614 190.425 40.8429 190.419 41.1112C190.436 41.3757 190.374 41.5192 190.232 41.5417C190.161 41.553 190.025 41.4651 189.825 41.278C189.649 41.0872 189.414 40.9058 189.12 40.7337C188.825 40.5617 188.476 40.5076 188.073 40.5714C187.41 40.6765 186.75 41.0362 186.094 41.6504C185.458 42.2371 184.868 42.9623 184.324 43.826C183.777 44.6659 183.316 45.5165 182.942 46.3775C182.569 47.2386 182.296 47.9743 182.126 48.5845C182.081 48.7617 182.038 48.9507 181.997 49.1516C181.979 49.3488 181.986 49.5422 182.016 49.7318C182.05 49.9452 182.126 50.0424 182.244 50.0237C182.363 50.0049 182.591 49.8351 182.929 49.5143C183.291 49.1897 183.545 48.955 183.692 48.8102C184.428 48.0862 185.103 47.2867 185.718 46.4118C186.356 45.5331 186.908 44.6438 187.373 43.744C187.521 43.4532 187.658 43.1643 187.782 42.8773C187.907 42.5903 188.034 42.3151 188.162 42.0518C188.254 41.8671 188.36 41.7653 188.478 41.7466C188.739 41.7053 189.016 41.8436 189.309 42.1616C189.626 42.4759 189.806 42.7634 189.847 43.0242C189.866 43.1427 189.853 43.2176 189.81 43.2488C189.79 43.2762 189.73 43.3586 189.63 43.4959C189.331 43.9078 189.054 44.4619 188.8 45.1582C188.569 45.8508 188.376 46.5496 188.221 47.2547C188.085 47.9322 187.994 48.5056 187.946 48.9747C187.934 49.0496 187.925 49.1482 187.92 49.2705C187.935 49.3653 188 49.3914 188.115 49.349C188.341 49.2403 188.679 48.9195 189.129 48.3865C189.599 47.8261 190.095 47.2007 190.618 46.5105C191.16 45.7928 191.639 45.1338 192.054 44.5335C192.493 43.9294 192.779 43.5075 192.911 43.2679C192.951 43.213 192.991 43.158 193.03 43.1031C193.09 43.0208 193.156 42.9739 193.227 42.9627C193.393 42.9364 193.489 43.0062 193.515 43.1721C193.53 43.267 193.386 43.5815 193.081 44.1156C192.773 44.6261 192.384 45.2345 191.913 45.9409C191.438 46.6237 190.951 47.3082 190.452 47.9947C189.949 48.6575 189.505 49.226 189.118 49.7003C188.752 50.1472 188.509 50.38 188.391 50.3988Z" fill="#DC3353"/>
</symbol>

 <symbol id="icon-footer-phone" viewBox="0 0 20 20" fill="none" xmlns="http://www.w3.org/2000/svg"><path d="M1.66797 3.92232C1.66797 11.8815 8.12047 18.334 16.0796 18.334L19.168 15.2457L15.5655 11.6432L12.9913 14.2165L5.78547 7.01065L8.3588 4.43732L4.7563 0.833984L1.66797 3.92232Z"/>
 </symbol>

<symbol id="icon-footer-horisontal-line" viewBox="0 0 944 1" fill="none" xmlns="http://www.w3.org/2000/svg">
<line x1="944" y1="0.5" y2="0.5" stroke="white"/>
</symbol>



  </defs>
</svg>