<svg xmlns="http://www.w3.org/2000/svg" aria-hidden="true" style="position:absolute;width:0;height:0;overflow:hidden">
  <defs>
    <symbol id="icon-name" viewBox="0 0 32 32">
      <!-- path -->
    </symbol>
    <symbol id="footer-icon-logo" viewBox="0 0 197 87" fill="none" xmlns="http://www.w3.org/2000/svg">
<path d="M22.36 14.68C22.2533 15.7733 22.1733 16.84 22.12 17.88C22.0933 18.8933 22.08 19.6667 22.08 20.2C22.08 20.7067 22.0933 21.2 22.12 21.68C22.1467 22.1333 22.1733 22.52 22.2 22.84H21.28C21.0667 21 20.72 19.56 20.24 18.52C19.76 17.4533 19.1067 16.7067 18.28 16.28C17.48 15.8267 16.4267 15.6 15.12 15.6H12.92C12.12 15.6 11.5067 15.6667 11.08 15.8C10.6533 15.9333 10.36 16.2133 10.2 16.64C10.0667 17.0667 10 17.72 10 18.6V39.08C10 39.9333 10.0667 40.5867 10.2 41.04C10.36 41.4667 10.6533 41.7467 11.08 41.88C11.5067 42.0133 12.12 42.08 12.92 42.08H15.2C16.56 42.08 17.6933 41.8267 18.6 41.32C19.5333 40.8133 20.28 39.9867 20.84 38.84C21.4 37.6667 21.8133 36.0667 22.08 34.04H23C22.92 34.8667 22.88 35.9333 22.88 37.24C22.88 37.8 22.8933 38.6133 22.92 39.68C22.9733 40.7467 23.0533 41.8533 23.16 43C21.8 42.9467 20.2667 42.92 18.56 42.92C16.8533 42.8933 15.3333 42.88 14 42.88C13.3867 42.88 12.5733 42.88 11.56 42.88C10.5733 42.88 9.49333 42.8933 8.32 42.92C7.17333 42.92 6 42.9333 4.8 42.96C3.62667 42.96 2.50667 42.9733 1.44 43V42.2C2.32 42.1467 2.97333 42.04 3.4 41.88C3.85333 41.72 4.14667 41.4 4.28 40.92C4.44 40.44 4.52 39.72 4.52 38.76V18.92C4.52 17.9333 4.44 17.2133 4.28 16.76C4.14667 16.28 3.85333 15.96 3.4 15.8C2.97333 15.6133 2.32 15.5067 1.44 15.48V14.68C2.50667 14.7067 3.62667 14.7333 4.8 14.76C6 14.76 7.17333 14.7733 8.32 14.8C9.49333 14.8 10.5733 14.8 11.56 14.8C12.5733 14.8 13.3867 14.8 14 14.8C15.2267 14.8 16.6133 14.8 18.16 14.8C19.7333 14.7733 21.1333 14.7333 22.36 14.68ZM15.92 28.36C15.92 28.36 15.92 28.4933 15.92 28.76C15.92 29.0267 15.92 29.16 15.92 29.16H8.8C8.8 29.16 8.8 29.0267 8.8 28.76C8.8 28.4933 8.8 28.36 8.8 28.36H15.92ZM17.08 23.08C16.9733 24.6 16.92 25.76 16.92 26.56C16.9467 27.36 16.96 28.0933 16.96 28.76C16.96 29.4267 16.9733 30.16 17 30.96C17.0267 31.76 17.0933 32.92 17.2 34.44H16.28C16.1467 33.5333 15.9333 32.68 15.64 31.88C15.3733 31.0533 14.9333 30.4 14.32 29.92C13.7333 29.4133 12.88 29.16 11.76 29.16V28.36C12.5867 28.36 13.2533 28.1867 13.76 27.84C14.2933 27.4933 14.72 27.0533 15.04 26.52C15.36 25.96 15.6 25.3867 15.76 24.8C15.9467 24.1867 16.08 23.6133 16.16 23.08H17.08ZM52.4 14.68V15.48C51.5467 15.56 50.8933 15.76 50.44 16.08C49.9867 16.3733 49.68 16.8533 49.52 17.52C49.3867 18.16 49.32 19.08 49.32 20.28V43.12C49.08 43.0933 48.8133 43.08 48.52 43.08C48.2533 43.08 47.96 43.0933 47.64 43.12L30.48 19.8V37.08C30.48 38.36 30.56 39.36 30.72 40.08C30.88 40.7733 31.2267 41.28 31.76 41.6C32.32 41.8933 33.16 42.0933 34.28 42.2V43C33.7733 42.9467 33.12 42.92 32.32 42.92C31.52 42.8933 30.76 42.88 30.04 42.88C29.4 42.88 28.7467 42.8933 28.08 42.92C27.44 42.92 26.9067 42.9467 26.48 43V42.2C27.36 42.0933 28.0133 41.8933 28.44 41.6C28.8933 41.3067 29.1867 40.8267 29.32 40.16C29.48 39.4933 29.56 38.5733 29.56 37.4V18.92C29.56 17.9333 29.48 17.2133 29.32 16.76C29.1867 16.28 28.8933 15.96 28.44 15.8C28.0133 15.6133 27.36 15.5067 26.48 15.48V14.68C26.9067 14.7067 27.44 14.7333 28.08 14.76C28.7467 14.7867 29.4 14.8 30.04 14.8C30.6533 14.8 31.2533 14.7867 31.84 14.76C32.4267 14.7333 32.9467 14.7067 33.4 14.68L48.4 34.64V20.6C48.4 19.2933 48.32 18.2933 48.16 17.6C48 16.9067 47.6533 16.4 47.12 16.08C46.5867 15.76 45.7467 15.56 44.6 15.48V14.68C45.1067 14.7067 45.76 14.7333 46.56 14.76C47.3867 14.7867 48.1467 14.8 48.84 14.8C49.5067 14.8 50.16 14.7867 50.8 14.76C51.4667 14.7333 52 14.7067 52.4 14.68ZM69.1594 14.12C70.946 14.12 72.3994 14.3867 73.5194 14.92C74.6394 15.4267 75.666 16.0267 76.5994 16.72C76.9194 16.9867 77.186 17.12 77.3994 17.12C77.906 17.12 78.2394 16.3067 78.3994 14.68H79.3194C79.266 15.6933 79.226 16.9333 79.1994 18.4C79.1727 19.8667 79.1594 21.8 79.1594 24.2H78.2394C78.0527 22.76 77.786 21.4667 77.4394 20.32C77.0927 19.1733 76.466 18.2 75.5594 17.4C74.866 16.6533 73.986 16.08 72.9194 15.68C71.8794 15.2533 70.826 15.04 69.7594 15.04C68.346 15.04 67.106 15.4133 66.0394 16.16C64.9994 16.88 64.1194 17.88 63.3994 19.16C62.706 20.4133 62.186 21.88 61.8394 23.56C61.4927 25.2133 61.3194 26.9867 61.3194 28.88C61.3194 33.68 62.0127 37.2 63.3994 39.44C64.8127 41.6533 66.8794 42.76 69.5994 42.76C70.346 42.76 70.986 42.6667 71.5194 42.48C72.0794 42.2667 72.5327 42.0533 72.8794 41.84C73.306 41.5467 73.586 41.24 73.7194 40.92C73.8527 40.6 73.9194 40.2 73.9194 39.72V35.8C73.9194 34.6267 73.8127 33.76 73.5994 33.2C73.386 32.6133 72.986 32.2133 72.3994 32C71.8394 31.7867 70.9994 31.6667 69.8794 31.64V30.84C70.4127 30.8667 71.0394 30.8933 71.7594 30.92C72.506 30.92 73.2794 30.9333 74.0794 30.96C74.906 30.96 75.6527 30.96 76.3194 30.96C77.3594 30.96 78.306 30.9467 79.1594 30.92C80.0127 30.8933 80.7194 30.8667 81.2794 30.84V31.64C80.746 31.6667 80.3327 31.76 80.0394 31.92C79.7727 32.08 79.5994 32.4 79.5194 32.88C79.4394 33.36 79.3994 34.0933 79.3994 35.08V43H78.5994C78.5727 42.5467 78.466 42.0533 78.2794 41.52C78.0927 40.9867 77.8127 40.72 77.4394 40.72C77.2527 40.72 77.0394 40.7733 76.7994 40.88C76.5594 40.96 76.146 41.16 75.5594 41.48C74.626 42.0933 73.626 42.6 72.5594 43C71.5194 43.3733 70.3727 43.56 69.1194 43.56C66.1327 43.56 63.5994 43 61.5194 41.88C59.466 40.7333 57.906 39.0933 56.8394 36.96C55.7727 34.8 55.2394 32.2267 55.2394 29.24C55.2394 26.1733 55.8394 23.5067 57.0394 21.24C58.2394 18.9733 59.8794 17.2267 61.9594 16C64.066 14.7467 66.466 14.12 69.1594 14.12ZM95.5447 14.68V15.48C94.638 15.5067 93.9447 15.6133 93.4647 15.8C93.0114 15.96 92.7047 16.28 92.5447 16.76C92.3847 17.2133 92.3047 17.9333 92.3047 18.92V39.08C92.3047 39.9333 92.3714 40.5867 92.5047 41.04C92.6647 41.4667 92.9447 41.7467 93.3447 41.88C93.7447 42.0133 94.318 42.08 95.0647 42.08H97.3447C98.3847 42.08 99.2914 41.8933 100.065 41.52C100.865 41.1467 101.558 40.6 102.145 39.88C102.731 39.16 103.211 38.28 103.585 37.24C103.958 36.1733 104.225 34.9733 104.385 33.64H105.305C105.225 34.52 105.185 35.6667 105.185 37.08C105.185 37.6667 105.198 38.5067 105.225 39.6C105.278 40.6933 105.358 41.8267 105.465 43C104.105 42.9467 102.571 42.92 100.865 42.92C99.158 42.8933 97.638 42.88 96.3047 42.88C95.6647 42.88 94.8514 42.88 93.8647 42.88C92.878 42.88 91.798 42.8933 90.6247 42.92C89.478 42.92 88.3047 42.9333 87.1047 42.96C85.9314 42.96 84.8114 42.9733 83.7447 43V42.2C84.6247 42.1467 85.278 42.04 85.7047 41.88C86.158 41.72 86.4514 41.4 86.5847 40.92C86.7447 40.44 86.8247 39.72 86.8247 38.76V18.92C86.8247 17.9333 86.7447 17.2133 86.5847 16.76C86.4514 16.28 86.158 15.96 85.7047 15.8C85.278 15.6133 84.6247 15.5067 83.7447 15.48V14.68C84.4114 14.7067 85.2647 14.7333 86.3047 14.76C87.3447 14.7867 88.4647 14.8 89.6647 14.8C90.758 14.8 91.838 14.7867 92.9047 14.76C93.9714 14.7333 94.8514 14.7067 95.5447 14.68ZM119.486 14.68V15.48C118.633 15.5067 117.98 15.6133 117.526 15.8C117.1 15.96 116.806 16.28 116.646 16.76C116.486 17.2133 116.406 17.9333 116.406 18.92V38.76C116.406 39.72 116.486 40.44 116.646 40.92C116.806 41.4 117.1 41.72 117.526 41.88C117.98 42.04 118.633 42.1467 119.486 42.2V43C118.82 42.9467 117.966 42.92 116.926 42.92C115.886 42.8933 114.833 42.88 113.766 42.88C112.566 42.88 111.446 42.8933 110.406 42.92C109.366 42.92 108.513 42.9467 107.846 43V42.2C108.726 42.1467 109.38 42.04 109.806 41.88C110.26 41.72 110.553 41.4 110.686 40.92C110.846 40.44 110.926 39.72 110.926 38.76V18.92C110.926 17.9333 110.846 17.2133 110.686 16.76C110.553 16.28 110.26 15.96 109.806 15.8C109.38 15.6133 108.726 15.5067 107.846 15.48V14.68C108.513 14.7067 109.366 14.7333 110.406 14.76C111.446 14.7867 112.566 14.8 113.766 14.8C114.833 14.8 115.886 14.7867 116.926 14.76C117.966 14.7333 118.82 14.7067 119.486 14.68ZM131.937 14.2C133.43 14.2 134.577 14.36 135.377 14.68C136.177 15 136.87 15.3467 137.457 15.72C137.777 15.9067 138.03 16.0533 138.217 16.16C138.43 16.24 138.63 16.28 138.817 16.28C139.083 16.28 139.27 16.1333 139.377 15.84C139.51 15.5467 139.617 15.1067 139.697 14.52H140.617C140.59 15.0267 140.55 15.6133 140.497 16.28C140.47 16.9467 140.443 17.84 140.417 18.96C140.417 20.0533 140.417 21.5067 140.417 23.32H139.497C139.417 21.96 139.11 20.6533 138.577 19.4C138.07 18.1467 137.337 17.12 136.377 16.32C135.443 15.4933 134.243 15.08 132.777 15.08C131.47 15.08 130.377 15.4667 129.497 16.24C128.643 17.0133 128.217 18.0533 128.217 19.36C128.217 20.48 128.497 21.4267 129.057 22.2C129.617 22.9467 130.403 23.68 131.417 24.4C132.457 25.0933 133.683 25.8933 135.097 26.8C136.403 27.6533 137.577 28.5067 138.617 29.36C139.657 30.1867 140.47 31.1067 141.057 32.12C141.67 33.1333 141.977 34.3733 141.977 35.84C141.977 37.5733 141.55 39.0133 140.697 40.16C139.843 41.3067 138.697 42.16 137.257 42.72C135.817 43.28 134.243 43.56 132.537 43.56C130.963 43.56 129.71 43.4 128.777 43.08C127.87 42.76 127.083 42.4267 126.417 42.08C125.83 41.7067 125.377 41.52 125.057 41.52C124.79 41.52 124.59 41.6667 124.457 41.96C124.35 42.2533 124.257 42.6933 124.177 43.28H123.257C123.31 42.6667 123.337 41.9467 123.337 41.12C123.363 40.2933 123.377 39.2267 123.377 37.92C123.403 36.5867 123.417 34.9067 123.417 32.88H124.337C124.443 34.5867 124.737 36.1867 125.217 37.68C125.723 39.1467 126.483 40.3333 127.497 41.24C128.537 42.1467 129.91 42.6 131.617 42.6C132.55 42.6 133.39 42.44 134.137 42.12C134.91 41.7733 135.523 41.2533 135.977 40.56C136.43 39.84 136.657 38.9333 136.657 37.84C136.657 36.7467 136.403 35.7867 135.897 34.96C135.39 34.1333 134.683 33.36 133.777 32.64C132.87 31.92 131.803 31.1867 130.577 30.44C129.323 29.64 128.15 28.8267 127.057 28C125.963 27.1733 125.083 26.24 124.417 25.2C123.777 24.1333 123.457 22.8533 123.457 21.36C123.457 19.7067 123.857 18.36 124.657 17.32C125.457 16.2533 126.497 15.4667 127.777 14.96C129.083 14.4533 130.47 14.2 131.937 14.2ZM162.07 43V42.2C162.95 42.1467 163.603 42.04 164.03 41.88C164.483 41.72 164.777 41.4 164.91 40.92C165.07 40.44 165.15 39.72 165.15 38.76V18.92C165.15 17.9333 165.07 17.2133 164.91 16.76C164.777 16.28 164.483 15.96 164.03 15.8C163.603 15.6133 162.95 15.5067 162.07 15.48V14.68C162.79 14.7067 163.683 14.7333 164.75 14.76C165.817 14.7867 166.883 14.8 167.95 14.8C169.123 14.8 170.217 14.7867 171.23 14.76C172.27 14.7333 173.097 14.7067 173.71 14.68V15.48C172.857 15.5067 172.203 15.6133 171.75 15.8C171.323 15.96 171.03 16.28 170.87 16.76C170.71 17.2133 170.63 17.9333 170.63 18.92V38.76C170.63 39.72 170.71 40.44 170.87 40.92C171.03 41.4 171.323 41.72 171.75 41.88C172.203 42.04 172.857 42.1467 173.71 42.2V43C173.097 42.9467 172.27 42.92 171.23 42.92C170.217 42.8933 169.123 42.88 167.95 42.88C166.883 42.88 165.817 42.8933 164.75 42.92C163.683 42.92 162.79 42.9467 162.07 43ZM145.19 43V42.2C146.07 42.1467 146.723 42.04 147.15 41.88C147.603 41.72 147.897 41.4 148.03 40.92C148.19 40.44 148.27 39.72 148.27 38.76V18.92C148.27 17.9333 148.19 17.2133 148.03 16.76C147.897 16.28 147.603 15.96 147.15 15.8C146.723 15.6133 146.07 15.5067 145.19 15.48V14.68C145.857 14.7067 146.71 14.7333 147.75 14.76C148.79 14.7867 149.91 14.8 151.11 14.8C152.177 14.8 153.23 14.7867 154.27 14.76C155.31 14.7333 156.163 14.7067 156.83 14.68V15.48C155.977 15.5067 155.323 15.6133 154.87 15.8C154.443 15.96 154.15 16.28 153.99 16.76C153.83 17.2133 153.75 17.9333 153.75 18.92V38.76C153.75 39.72 153.83 40.44 153.99 40.92C154.15 41.4 154.443 41.72 154.87 41.88C155.323 42.04 155.977 42.1467 156.83 42.2V43C156.163 42.9467 155.31 42.92 154.27 42.92C153.23 42.8933 152.177 42.88 151.11 42.88C149.91 42.88 148.79 42.8933 147.75 42.92C146.71 42.92 145.857 42.9467 145.19 43ZM151.55 29.16V28.36H167.35V29.16H151.55Z" fill="white"/>
<path d="M62.4678 70.015C62.0174 70.0863 61.5532 69.9168 61.0751 69.5066C60.6207 69.0925 60.3598 68.6722 60.2922 68.2455C60.2734 68.127 60.2703 68.0303 60.2827 67.9554C60.5292 66.75 60.9092 65.6207 61.4227 64.5674C61.9562 63.4866 62.476 62.3959 62.982 61.2952C63.002 61.2677 63.0082 61.2303 63.0007 61.1828C62.9894 61.1117 62.9682 61.0544 62.937 61.0107C62.902 60.9433 62.8789 60.8741 62.8676 60.803C62.8301 60.5659 62.9329 60.2945 63.176 59.9887C63.4429 59.6792 63.7391 59.4014 64.0646 59.1555C64.4139 58.9057 64.6952 58.764 64.9085 58.7302C65.1693 58.6889 65.4332 58.7443 65.7002 58.8964C65.9873 59.021 66.1533 59.2256 66.1984 59.51C65.9914 59.7372 65.7002 60.1235 65.3249 60.6689C64.9496 61.2144 64.55 61.8365 64.1261 62.5354C63.7222 63.2069 63.3339 63.9002 62.9612 64.6153C62.6084 65.3029 62.3211 65.9438 62.0993 66.5378C61.8974 67.1043 61.819 67.5298 61.8641 67.8143C61.9016 68.0513 62.0271 68.153 62.2404 68.1192C62.4775 68.0816 62.7949 67.8613 63.1927 67.4581C63.6105 67.0274 64.0507 66.5082 64.5133 65.9003C64.9759 65.2925 65.4229 64.6628 65.8543 64.0113C66.2857 63.3598 66.6672 62.7769 66.9988 62.2627C67.3504 61.721 67.5923 61.3304 67.7244 61.0908C67.9251 60.6702 68.1314 60.2852 68.3434 59.9357C68.5753 59.5588 68.8358 59.0559 69.125 58.4269C69.2771 58.1598 69.4466 57.9264 69.6337 57.7267C69.817 57.5032 70.0272 57.3728 70.2642 57.3352C70.3827 57.3164 70.5699 57.3475 70.8257 57.4285C71.0815 57.5095 71.2918 57.6098 71.4566 57.7295C71.6176 57.8255 71.7112 57.9565 71.7375 58.1224C71.7713 58.3358 71.7146 58.5148 71.5674 58.6596C71.3393 59.0603 71.0626 59.6144 70.7373 60.322C70.4319 61.0021 70.1359 61.7415 69.8493 62.5402C69.5827 63.3114 69.3697 64.0377 69.2103 64.719C69.0509 65.4003 68.9994 65.9188 69.0557 66.2743C69.1083 66.6062 69.2313 66.7689 69.4246 66.7626C69.7053 66.6939 70.0808 66.3793 70.5509 65.8188C71.021 65.2584 71.5197 64.5719 72.0471 63.7594C72.5945 62.9194 73.1162 62.0714 73.6124 61.2152C74.1048 60.3353 74.5293 59.5634 74.8858 58.8995C74.8894 58.4615 74.8867 58.061 74.8778 57.698C74.8888 57.3074 74.9616 56.8464 75.0961 56.3148C75.1733 56.0353 75.2936 55.7975 75.4569 55.6015C75.6165 55.3819 75.8386 55.2495 76.123 55.2045C76.3838 55.1632 76.634 55.2086 76.8736 55.3407C77.1369 55.4691 77.2892 55.6637 77.3305 55.9244C77.3793 56.2326 77.3059 56.5358 77.1101 56.8341C76.9144 57.1324 76.7299 57.5018 76.5567 57.9423C76.3834 58.3829 76.355 58.9705 76.4714 59.7054L76.4939 59.8476C76.509 59.9424 76.5159 60.0628 76.5147 60.2088C76.5135 60.3548 76.4537 60.4372 76.3351 60.4559C76.1692 60.4822 75.9764 60.4156 75.7567 60.256C75.5371 60.0964 75.4022 59.9355 75.3523 59.7733C74.8648 60.5309 74.3468 61.4026 73.7982 62.3886C73.2734 63.3708 72.7449 64.3293 72.2125 65.264C71.7002 66.1714 71.2065 66.9664 70.7314 67.6491C70.2763 68.3044 69.8666 68.7094 69.5024 68.8643C69.4113 68.9031 69.2947 68.9337 69.1525 68.9562C68.8917 68.9975 68.6334 68.9777 68.3776 68.8967C68.1218 68.8157 67.8628 68.638 67.6007 68.3637C67.5694 68.32 67.5482 68.2626 67.5369 68.1915C67.5257 68.1204 67.5044 68.063 67.4732 68.0194C67.4345 67.9283 67.3839 67.8391 67.3215 67.7518C67.279 67.637 67.2484 67.5204 67.2296 67.4019C67.1433 66.8567 67.196 66.1922 67.3878 65.4086C67.6032 64.6212 67.8524 63.8163 68.1352 62.9939C68.4181 62.1716 68.6448 61.4553 68.8154 60.8451C67.7121 62.6236 66.709 64.1918 65.8064 65.5497C64.9236 66.8802 64.0727 68.1813 63.2536 69.4531C63.1538 69.5904 63.0403 69.7177 62.9131 69.8351C62.8059 69.925 62.6574 69.9849 62.4678 70.015ZM83.4049 52.9577C82.8597 53.044 82.5552 52.8857 82.4913 52.4827C82.4463 52.1983 82.5516 51.8657 82.8072 51.485C83.0628 51.1044 83.4756 50.796 84.0457 50.5599C84.3862 50.4088 84.6632 50.3163 84.8765 50.2825C85.1098 50.2213 85.3275 50.1382 85.5296 50.0333C85.5061 50.4987 85.3816 51.0165 85.156 51.5869C84.9541 52.1534 84.6256 52.5335 84.1702 52.7271C83.9445 52.8358 83.6893 52.9126 83.4049 52.9577ZM79.9572 68.0103C79.5779 68.0704 79.1979 67.9726 78.8173 67.717C78.4603 67.4577 78.2181 67.1559 78.0907 66.8116C78.0905 66.3499 78.1582 65.7803 78.2939 65.1027C78.4495 64.3977 78.6369 63.6633 78.8562 62.8996C79.0754 62.1359 79.3021 61.4197 79.5364 60.7508C79.7669 60.0582 79.9706 59.5035 80.1476 59.0867C79.761 59.561 79.3464 60.0883 78.9037 60.6687C78.4848 61.2454 78.0839 61.7827 77.7011 62.2807C77.6812 62.3082 77.6294 62.365 77.5459 62.4511C77.486 62.5335 77.4205 62.5803 77.3494 62.5916C77.1835 62.6178 77.0892 62.5599 77.0667 62.4176C77.0479 62.2991 77.0785 62.1849 77.1583 62.0751C77.6856 61.2626 78.2367 60.4463 78.8115 59.6263C79.41 58.8026 79.9811 57.9588 80.5247 57.0952C80.6967 56.8006 80.8426 56.571 80.9623 56.4062C81.1019 56.214 81.3377 56.0916 81.6696 56.0391C81.8118 56.0165 82.0308 56.0183 82.3265 56.0444C82.6421 56.043 82.9061 56.0984 83.1182 56.2106C83.3541 56.319 83.4178 56.4911 83.3094 56.727C83.1847 57.014 82.9679 57.4858 82.6587 58.1422C82.3496 58.7987 81.9944 59.5474 81.593 60.3886C81.2154 61.226 80.8396 62.0752 80.4657 62.9363C80.1118 63.7699 79.8295 64.5193 79.619 65.1844C79.4084 65.8496 79.3276 66.3362 79.3764 66.6444C79.3989 66.7866 79.4576 66.8502 79.5524 66.8352C79.6946 66.8127 79.911 66.6447 80.2016 66.3314C80.5158 66.0144 80.8164 65.6873 81.1032 65.3503C81.4099 64.9858 81.6151 64.7468 81.7186 64.6332C82.3122 63.9317 82.892 63.2202 83.4581 62.4988C84.0205 61.7537 84.5435 60.9904 85.0272 60.2091C85.0671 60.1542 85.1151 60.0737 85.1712 59.9677C85.251 59.8578 85.3383 59.7954 85.4332 59.7804C85.5517 59.7616 85.6222 59.8233 85.6447 59.9656C85.671 60.1315 85.638 60.3068 85.5458 60.4915C85.2977 60.9196 85.0141 61.3533 84.6949 61.7926C84.3719 62.2083 84.0727 62.6202 83.7971 63.0283C83.2784 63.7422 82.7716 64.4543 82.2766 65.1645C81.8015 65.8472 81.3302 66.5536 80.8627 67.2837C80.7667 67.4447 80.6333 67.5995 80.4624 67.7481C80.3152 67.8929 80.1468 67.9803 79.9572 68.0103ZM87.5584 66.9887C87.1317 67.0562 86.7418 66.9722 86.3886 66.7366C86.059 66.4972 85.7794 66.1891 85.5497 65.8124C85.3398 65.4083 85.2049 65.0165 85.1448 64.6373C85.0848 64.258 85.074 63.8831 85.1125 63.5125C85.1472 63.1182 85.2194 62.7301 85.329 62.3483C85.7276 60.8758 86.2185 59.4494 86.8018 58.0692C87.385 56.689 88.0138 55.2894 88.6882 53.8704C88.2652 53.9617 87.6888 54.0044 86.9589 53.9985C86.2527 53.9889 85.6319 53.9049 85.0966 53.7467C84.8408 53.6658 84.623 53.518 84.4432 53.3035C84.2834 53.0615 84.1903 52.8576 84.1641 52.6916C84.1303 52.4783 84.1882 52.3841 84.338 52.4089C85.2702 52.7716 86.105 52.9795 86.8424 53.0328C87.5998 53.0587 88.3833 53.0196 89.193 52.9157C89.83 51.7213 90.5163 50.5313 91.2519 49.3457C92.0112 48.1562 92.7768 47.1602 93.5487 46.3576C93.656 46.2677 93.7452 46.2171 93.8163 46.2058C94.0059 46.1758 94.1869 46.2443 94.3591 46.4114C94.5551 46.5748 94.67 46.7632 94.7038 46.9765C94.7526 47.2846 94.6678 47.5168 94.4496 47.6728C93.2936 49.1195 92.1478 50.7832 91.012 52.664C91.4188 52.6239 91.8492 52.58 92.3034 52.5324C92.7537 52.4611 93.2041 52.3897 93.6545 52.3184C94.3419 52.2095 95.0156 52.0907 95.6756 51.9618C96.3356 51.833 96.9088 51.6936 97.3954 51.5437C99.9728 45.5709 102.671 41.4379 105.491 39.1445C106.091 38.6364 106.653 38.2681 107.175 38.0395C107.694 37.7872 108.179 37.6254 108.629 37.5541C109.317 37.4452 109.898 37.511 110.374 37.7516C110.869 37.9647 111.293 38.2621 111.645 38.6437C111.793 38.8146 111.888 39.0304 111.93 39.2912C112.031 39.9312 111.827 40.7897 111.317 41.8667C110.803 42.92 109.989 44.0695 108.874 45.3153C107.756 46.5373 106.355 47.7433 104.673 48.9331C102.986 50.0993 101.021 51.1152 98.7768 51.9809C97.9478 53.4973 97.2417 54.9456 96.6584 56.3258C96.0751 57.7061 95.6278 58.8704 95.3163 59.8188C95.8824 59.0973 96.514 58.3291 97.2111 57.514C97.9281 56.6715 98.6252 55.8564 99.3023 55.0688C99.9757 54.2574 100.522 53.5634 100.941 52.9868C101.041 52.8495 101.181 52.7421 101.364 52.6647C101.569 52.5835 101.72 52.5354 101.815 52.5204C102.146 52.4678 102.505 52.5812 102.889 52.8605C103.297 53.136 103.533 53.4753 103.597 53.8783C103.653 54.2338 103.55 54.5782 103.287 54.9115C102.677 55.6642 102.072 56.5254 101.473 57.4951C100.869 58.4412 100.344 59.4234 99.8981 60.4417C99.7773 60.7524 99.6059 61.2048 99.3841 61.7988C99.186 62.3891 99.1132 62.8501 99.1658 63.182C99.2033 63.419 99.2932 63.5263 99.4355 63.5038C99.7199 63.4587 100.087 63.2427 100.536 62.8557C101.008 62.4649 101.503 61.9856 102.021 61.4176C102.558 60.8222 103.082 60.2168 103.592 59.6015C104.126 58.9824 104.594 58.4101 104.997 57.8846C105.4 57.3591 105.689 56.961 105.865 56.6901C105.984 56.5254 106.092 56.4355 106.187 56.4205C106.329 56.3979 106.411 56.4578 106.434 56.6C106.445 56.6711 106.414 56.7853 106.342 56.9426C106.098 57.3943 105.728 57.9753 105.233 58.6855C104.734 59.372 104.18 60.0915 103.57 60.8442C102.957 61.5731 102.359 62.2509 101.778 62.8776C101.217 63.4767 100.744 63.9405 100.359 64.2688C100.208 64.3899 100.002 64.4711 99.741 64.5124C99.3854 64.5687 98.9518 64.5159 98.4402 64.3539C97.9286 64.192 97.6408 63.9095 97.577 63.5065C97.5207 63.151 97.5797 62.6799 97.7541 62.0934C97.9285 61.5069 98.1566 60.8755 98.4382 60.1991C98.7199 59.5227 99.0171 58.8681 99.33 58.2354C99.6391 57.579 99.904 57.0267 100.125 56.5787C100.365 56.1032 100.51 55.7887 100.558 55.6352C100.819 55.1323 100.975 54.8159 101.028 54.6861C101.08 54.5563 101.112 54.454 101.125 54.3792C100.958 54.5514 100.697 54.8235 100.343 55.1955C99.985 55.5438 99.629 55.9039 99.2748 56.2759C98.9206 56.6479 98.6619 56.9319 98.4985 57.1278C97.355 58.4996 96.4174 59.7902 95.6855 60.9996C94.9737 62.1815 94.3323 63.4251 93.7615 64.7305C93.7416 64.7579 93.686 64.791 93.595 64.8297C93.5002 64.8448 93.4291 64.856 93.3816 64.8635C93.2394 64.8861 93.0204 64.8843 92.7247 64.8582C92.4527 64.8284 92.3216 64.6912 92.3315 64.4467C92.4174 64.0686 92.547 63.6593 92.7202 63.2188C92.8934 62.7782 93.1389 62.1805 93.4567 61.4255C93.7708 60.6467 94.1702 59.5629 94.6548 58.174C94.7396 57.9419 94.8866 57.5663 95.096 57.0471C95.3054 56.528 95.5328 55.9695 95.7783 55.3718C96.0475 54.7702 96.2968 54.1962 96.5261 53.6496C96.7554 53.103 96.9324 52.6862 97.057 52.3991C96.6142 52.5179 95.9935 52.6648 95.195 52.8398C94.3928 52.9912 93.5769 53.1326 92.7473 53.264C92.3443 53.3278 91.9532 53.3897 91.5739 53.4498C91.1909 53.4862 90.8315 53.5188 90.4959 53.5476C90.1368 54.0419 89.7167 54.7645 89.2355 55.7155C88.7781 56.6627 88.3375 57.7166 87.9139 58.8772C87.4864 60.014 87.1538 61.1359 86.9161 62.2427C86.702 63.3458 86.6606 64.3121 86.792 65.1418C86.8108 65.2603 86.8377 65.3533 86.8727 65.4206C86.9076 65.488 86.9844 65.5123 87.1029 65.4935C87.2451 65.471 87.3699 65.4148 87.4771 65.3249C87.6043 65.2075 87.7078 65.094 87.7876 64.9841C88.0782 64.6708 88.3394 64.3257 88.5713 63.9488C88.8232 63.5444 89.0669 63.1656 89.3026 62.8124C89.7339 62.1609 90.1791 61.5194 90.6379 60.8878C91.0968 60.2562 91.5438 59.6266 91.9789 58.9988C92.0188 58.9438 92.0606 58.9008 92.1043 58.8696C92.1442 58.8147 92.1878 58.7834 92.2352 58.7759C92.4011 58.7496 92.4991 58.8313 92.5292 59.021C92.5404 59.0921 92.5099 59.2063 92.4376 59.3635C92.2132 59.7878 91.9652 60.2159 91.6934 60.6477C91.4178 61.0559 91.156 61.474 90.9079 61.9021C90.408 62.7345 89.9062 63.5551 89.4025 64.3639C88.9225 65.1689 88.4463 65.9976 87.9738 66.85C87.9065 66.8849 87.8372 66.908 87.7661 66.9193C87.6987 66.9543 87.6295 66.9774 87.5584 66.9887ZM99.0327 51.0656C100.078 50.6085 101.162 50.0116 102.285 49.2749C103.427 48.5107 104.523 47.6811 105.572 46.786C106.617 45.8672 107.54 44.9435 108.34 44.0148C109.161 43.0587 109.784 42.1582 110.209 41.3133C110.658 40.4646 110.835 39.744 110.741 39.1514C110.715 38.9854 110.682 38.8569 110.644 38.7659C110.41 38.3655 109.961 38.2178 109.298 38.323C109.037 38.3643 108.746 38.4467 108.426 38.5704C108.129 38.6903 107.818 38.8733 107.492 39.1192C106.313 39.962 105.242 40.9457 104.278 42.0703C103.338 43.1912 102.45 44.4861 101.613 45.9551C100.777 47.424 99.9164 49.1275 99.0327 51.0656ZM129.945 61.8062C129.665 61.7289 129.446 61.5693 129.286 61.3274C129.126 61.0854 129.016 60.7748 128.956 60.3955C128.836 59.637 128.867 58.6843 129.05 57.5376C129.253 56.3634 129.463 55.2366 129.681 54.1573C129.865 53.3262 130.051 52.3492 130.237 51.2262C130.444 50.0757 130.643 48.8778 130.834 47.6325C131.046 46.3597 131.241 45.1381 131.42 43.9677C131.599 42.7973 131.74 41.7666 131.842 40.8757C131.964 39.9573 132.04 39.2892 132.071 38.8712C130.338 39.8989 128.818 41.0387 127.51 42.2908C126.198 43.5192 125.001 44.8629 123.92 46.322C122.859 47.7536 121.805 49.3056 120.758 50.978L125.771 50.184C125.866 50.1689 126.081 50.147 126.417 50.1181C126.749 50.0656 127.108 50.033 127.495 50.0203C127.878 49.9839 128.205 49.9807 128.477 50.0105C128.769 50.0128 128.925 50.0733 128.943 50.1918C128.974 50.3814 128.763 50.5849 128.311 50.8022C127.88 50.9921 127.304 51.1926 126.584 51.4038C125.884 51.5876 125.147 51.7651 124.372 51.9364C123.594 52.084 122.874 52.2222 122.214 52.351C121.554 52.4799 121.059 52.5706 120.727 52.6231C120.276 52.6945 119.818 53.0222 119.352 53.6064C118.885 54.1905 118.443 54.9287 118.026 55.821C117.632 56.7096 117.271 57.6536 116.943 58.6532C116.636 59.6253 116.37 60.5544 116.146 61.4403C115.945 62.3225 115.819 63.0594 115.767 63.6508C115.774 63.6982 115.772 63.7594 115.759 63.8342C115.747 63.9091 115.705 63.9522 115.634 63.9634C115.492 63.9859 115.329 63.8781 115.145 63.6399C114.942 63.4291 114.831 63.2645 114.812 63.1459C114.711 62.5059 114.746 61.7348 114.919 60.8327C115.092 59.9305 115.335 59.0052 115.646 58.0568C115.978 57.0809 116.33 56.1625 116.704 55.3014C117.102 54.4365 117.463 53.7233 117.787 53.1617C117.194 53.2555 116.592 53.3631 115.979 53.4844C115.363 53.5821 114.746 53.6797 114.13 53.7773C113.988 53.7998 113.838 53.7749 113.681 53.7026C113.496 53.6104 113.369 53.4969 113.299 53.3622C113.352 53.0864 113.609 52.8636 114.068 52.6937C114.523 52.5001 115.057 52.3426 115.67 52.2213C116.302 52.0725 116.901 51.9412 117.466 51.8274C118.031 51.7136 118.439 51.6005 118.688 51.4881C119.032 50.899 119.511 50.167 120.126 49.2921C120.741 48.4171 121.455 47.4779 122.268 46.4744C123.081 45.4708 123.943 44.4716 124.855 43.4768C125.766 42.4819 126.677 41.56 127.588 40.7112C128.498 39.8623 129.372 39.165 130.209 38.6194C131.042 38.05 131.779 37.7147 132.419 37.6133C132.608 37.5833 132.875 37.5775 133.218 37.5961C133.557 37.5909 133.88 37.637 134.187 37.7341C134.494 37.8313 134.668 38.0103 134.71 38.271C134.758 38.5792 134.688 39.2099 134.499 40.1633C134.334 41.1128 134.09 42.2571 133.767 43.596C133.441 44.9113 133.09 46.3032 132.715 47.772C132.337 49.217 131.972 50.599 131.623 51.918C131.273 53.237 130.975 54.3532 130.731 55.2666C130.396 56.6804 130.162 57.8109 130.029 58.6582C129.92 59.5017 129.903 60.1605 129.978 60.6346C130.034 60.9901 130.154 61.287 130.338 61.5253C130.365 61.5452 130.325 61.6001 130.218 61.69C130.111 61.7799 130.02 61.8186 129.945 61.8062ZM137.645 58.4725C137.242 58.5364 136.732 58.4592 136.114 58.2412C135.496 58.0231 135.053 57.7532 134.783 57.4315C134.603 57.2169 134.487 56.9437 134.434 56.6119C134.314 55.8533 134.427 54.8027 134.774 53.46C135.14 52.0899 135.633 50.6024 136.254 48.9975C136.528 48.2737 136.892 47.4264 137.345 46.4555C137.823 45.4808 138.368 44.4711 138.98 43.4265C139.588 42.3582 140.24 41.3316 140.934 40.3469C141.652 39.3583 142.375 38.4784 143.104 37.7069C143.856 36.9318 144.59 36.3537 145.308 35.9728C145.597 35.8055 145.86 35.7031 146.097 35.6655C146.548 35.5942 146.88 35.6995 147.095 35.9813C147.33 36.2358 147.616 36.4334 147.954 36.5742C148.163 36.6627 148.288 36.8373 148.329 37.0981C148.415 37.6433 148.222 38.3421 147.75 39.1945C147.277 40.0469 146.634 40.9749 145.821 41.9784C145.008 42.9819 144.124 43.9967 143.169 45.0228C142.21 46.0252 141.277 46.9626 140.371 47.8352C139.488 48.704 138.728 49.4318 138.092 50.0185C137.456 50.6053 137.053 50.9729 136.882 51.1214C136.631 51.8415 136.419 52.6526 136.246 53.5548C136.073 54.4569 136.047 55.2873 136.167 56.0458C136.212 56.3303 136.298 56.6447 136.426 56.989C136.573 57.3058 136.837 57.4342 137.216 57.3741C137.571 57.3178 137.966 57.1217 138.398 56.7859C138.831 56.4501 139.248 56.0924 139.65 55.7129C140.048 55.3097 140.36 54.9808 140.587 54.7262C141.125 54.1307 141.589 53.5347 141.981 52.9382C142.372 52.3416 142.835 51.6607 143.37 50.8956C143.41 50.8407 143.452 50.7977 143.496 50.7664C143.535 50.7115 143.591 50.6784 143.662 50.6672C143.804 50.6446 143.889 50.7163 143.915 50.8823C143.937 51.0245 143.899 51.1643 143.799 51.3016C143.016 52.4947 142.191 53.731 141.325 55.0103C140.482 56.2858 139.483 57.3431 138.328 58.1821C138.11 58.3382 137.882 58.435 137.645 58.4725ZM137.727 49.0923C138.063 48.9174 138.516 48.5541 139.085 48.0024C139.65 47.4269 140.273 46.7572 140.954 45.9933C141.658 45.2257 142.357 44.4224 143.05 43.5836C143.764 42.7174 144.411 41.898 144.994 41.1254C145.596 40.3253 146.085 39.6526 146.46 39.1071C146.855 38.5342 147.074 38.1474 147.115 37.9465C147.139 37.7967 147.148 37.6981 147.141 37.6507C147.111 37.4611 146.995 37.3457 146.794 37.3047C146.617 37.2598 146.422 37.2543 146.208 37.2881C146.09 37.3069 145.973 37.3375 145.859 37.38C145.744 37.4225 145.641 37.4631 145.55 37.5018C145.169 37.7078 144.692 38.1479 144.119 38.8219C143.541 39.4722 142.937 40.2604 142.306 41.1865C141.672 42.0889 141.044 43.0387 140.425 44.0359C139.829 45.0294 139.287 45.9779 138.798 46.8815C138.329 47.7576 137.972 48.4945 137.727 49.0923ZM140.969 71.5415C139.878 71.7142 139.247 71.2553 139.074 70.1649C139.055 70.0464 139.048 69.926 139.053 69.8037C139.035 69.6852 139.028 69.5648 139.033 69.4425C139.087 68.5591 139.36 67.6775 139.853 66.7976C140.345 65.9178 140.952 65.0684 141.673 64.2496C142.397 63.4545 143.139 62.693 143.899 61.9652C144.686 61.2574 145.389 60.6357 146.009 60.1002C146.371 59.7756 146.83 59.3749 147.386 58.898C147.966 58.4173 148.576 57.8955 149.215 57.3325C149.859 56.7932 150.471 56.2832 151.051 55.8025C151.206 55.0975 151.268 54.3345 151.235 53.5136C151.222 52.6651 151.159 51.8853 151.047 51.1742L151.002 50.8898C150.785 51.3615 150.449 51.925 149.994 52.5802C149.539 53.2355 149.01 53.8902 148.409 54.5443C147.805 55.1746 147.198 55.7202 146.591 56.1809C145.984 56.6416 145.407 56.9151 144.862 57.0014C144.483 57.0615 144.203 56.9843 144.024 56.7698C143.867 56.5515 143.765 56.2883 143.716 55.9801C143.585 55.1504 143.627 54.2689 143.844 53.3355C144.061 52.4022 144.336 51.5324 144.67 50.7262C145 49.8963 145.304 49.2043 145.581 48.6502C145.853 48.0724 145.984 47.7479 145.973 47.6768C145.969 47.6531 145.944 47.645 145.896 47.6525C145.802 47.6676 145.695 47.6844 145.576 47.7032C145.481 47.7182 145.458 47.649 145.507 47.4955C145.775 47.04 146.134 46.6187 146.583 46.2317C147.031 45.8447 147.481 45.6155 147.932 45.5442C148.097 45.5179 148.298 45.559 148.534 45.6674C148.79 45.7484 148.933 45.8837 148.963 46.0734C148.982 46.1919 148.931 46.3335 148.812 46.4983C148.672 46.6905 148.501 46.912 148.297 47.1629C148.118 47.41 147.874 47.7888 147.566 48.2993C147.39 48.5701 147.156 49.0082 146.863 49.6135C146.566 50.195 146.271 50.8614 145.977 51.6127C145.679 52.3403 145.44 53.0584 145.261 53.7672C145.102 54.4485 145.06 55.0262 145.135 55.5003C145.146 55.5714 145.159 55.6544 145.174 55.7492C145.209 55.8166 145.28 55.8783 145.386 55.9344C145.721 55.9055 146.114 55.6976 146.563 55.3106C147.008 54.8999 147.464 54.4025 147.93 53.8183C148.416 53.2067 148.863 52.577 149.271 51.9293C149.699 51.2541 150.063 50.6375 150.363 50.0797C150.683 49.4943 150.902 49.0345 151.019 48.7C151.205 48.1846 151.558 47.8856 152.08 47.803C152.459 47.743 152.686 47.7922 152.759 47.9506C152.857 48.1052 152.928 48.3248 152.973 48.6093C153.12 49.5337 153.19 50.3609 153.184 51.0908C153.198 51.7933 153.132 52.6056 152.987 53.5277C154.297 51.9837 155.526 50.3798 156.671 48.716C156.688 48.6649 156.726 48.5981 156.785 48.5157C156.869 48.4296 156.934 48.3828 156.982 48.3753C157.124 48.3527 157.206 48.4126 157.229 48.5548C157.259 48.7445 157.218 48.9454 157.106 49.1575C156.934 49.4521 156.738 49.7504 156.519 50.0524C156.323 50.3507 156.127 50.649 155.931 50.9473C155.46 51.6537 154.977 52.362 154.482 53.0722C153.983 53.7587 153.445 54.4271 152.868 55.0774C152.232 58.1183 151.195 60.8582 149.759 63.2969C148.35 65.7555 146.429 67.9673 143.994 69.9324C143.585 70.2645 143.115 70.5941 142.584 70.9212C142.052 71.2484 141.514 71.4551 140.969 71.5415ZM141.646 70.523C142.286 70.4217 142.947 70.0739 143.631 69.4796C144.294 68.9129 144.939 68.2276 145.565 67.4238C146.191 66.6199 146.746 65.8274 147.23 65.0461C147.741 64.2848 148.139 63.6507 148.423 63.144C148.739 62.535 149.044 61.9278 149.337 61.3226C149.634 60.741 149.903 60.1395 150.145 59.518C150.511 58.6095 150.798 57.7379 151.006 56.903C151.019 56.8282 150.988 56.7845 150.913 56.7721C150.865 56.7796 150.842 56.7833 150.842 56.7833C150.189 57.4212 149.523 58.0491 148.844 58.6671C148.191 59.305 147.525 59.9329 146.846 60.5508C146.504 60.8479 146.049 61.2724 145.48 61.8241C144.915 62.3996 144.31 63.03 143.666 63.7153C143.025 64.4243 142.421 65.1395 141.855 65.8609C141.293 66.6061 140.845 67.3087 140.512 67.9689C140.183 68.6528 140.056 69.2318 140.131 69.7059C140.191 70.0852 140.387 70.3215 140.717 70.4149C141.028 70.5358 141.338 70.5719 141.646 70.523ZM159.054 55.1182C158.366 55.2271 157.813 55.0352 157.395 54.5426C156.973 54.0262 156.715 53.4717 156.621 52.8791C156.494 52.0732 156.57 51.1742 156.85 50.1821C157.127 49.1663 157.494 48.1848 157.951 47.2376C158.432 46.2866 158.867 45.501 159.255 44.8807C159.351 44.7197 159.493 44.6242 159.683 44.5942C159.896 44.5604 160.123 44.6096 160.362 44.7417C160.804 44.3073 161.322 43.8972 161.917 43.5113C162.536 43.1218 163.153 42.8782 163.77 42.7806C164.836 42.6116 165.456 43.0723 165.629 44.1627C165.794 45.2057 165.685 46.2071 165.303 47.1667C164.944 48.1226 164.522 49.0642 164.037 49.9915C163.905 50.2311 163.771 50.4589 163.635 50.6748C163.523 50.887 163.387 51.1029 163.227 51.3226C164.225 50.8729 165.063 50.2543 165.74 49.4667C166.417 48.679 167.078 47.8696 167.724 47.0383C167.804 46.9285 167.876 46.8442 167.939 46.7855C168.023 46.6994 168.136 46.6451 168.278 46.6226C168.397 46.6038 168.469 46.6774 168.495 46.8433C168.499 46.867 168.473 46.9319 168.417 47.038C168.361 47.1441 168.325 47.2227 168.308 47.2738C167.676 48.3459 166.845 49.3888 165.815 50.4024C164.805 51.3886 163.687 52.076 162.46 52.4646C162.081 52.9863 161.586 53.5386 160.973 54.1216C160.357 54.6809 159.717 55.0131 159.054 55.1182ZM161.382 51.8699C161.477 51.8549 161.56 51.8418 161.631 51.8305C161.726 51.8155 161.819 51.7886 161.91 51.7499C162.294 51.1059 162.673 50.3534 163.047 49.4923C163.444 48.6274 163.755 47.752 163.979 46.866C164.2 45.9564 164.255 45.1578 164.147 44.4704C164.079 44.0437 163.844 43.8623 163.441 43.9261C163.038 43.9899 162.594 44.1817 162.11 44.5013C161.626 44.8209 161.227 45.1393 160.913 45.4564L160.93 45.563C160.967 45.8001 160.832 46.1738 160.524 46.6843C160.236 47.1673 159.915 47.6678 159.559 48.1857C159.228 48.6999 158.991 49.1261 158.851 49.4643C158.903 50.2579 159.161 50.8853 159.623 51.3468C160.084 51.8082 160.671 51.9826 161.382 51.8699ZM158.993 54.5081C159.444 54.4368 159.856 54.2014 160.23 53.8019C160.628 53.3987 160.958 53.0305 161.222 52.6972C160.645 52.7399 160.094 52.6329 159.567 52.3761C159.06 52.0919 158.583 51.7665 158.137 51.3999C158.088 51.5534 158.036 51.841 157.982 52.2627C157.927 52.6845 157.932 53.0968 157.995 53.4998C158.044 53.808 158.147 54.0712 158.303 54.2895C158.455 54.484 158.685 54.5569 158.993 54.5081ZM175.693 52.4828C175.337 52.5391 174.918 52.4962 174.433 52.3542C173.977 52.2322 173.715 51.9578 173.647 51.5311C173.568 51.0333 173.664 50.4107 173.934 49.6632C174.205 48.9157 174.542 48.1332 174.948 47.3158C175.349 46.4746 175.732 45.6728 176.097 44.9103C176.486 44.144 176.75 43.5069 176.888 42.999C176.757 43.0927 176.543 43.2725 176.245 43.5384C175.967 43.7768 175.69 44.0271 175.416 44.2892C175.138 44.5277 174.937 44.7174 174.814 44.8585C173.914 45.7785 173.149 46.7015 172.518 47.6276C171.911 48.5499 171.311 49.5927 170.718 50.7558C170.573 51.0703 170.419 51.3985 170.254 51.7405C170.113 52.0787 169.959 52.4069 169.79 52.7251C169.714 52.8587 169.567 53.0035 169.349 53.1596C169.154 53.3119 168.962 53.403 168.773 53.4331C168.464 53.4819 168.284 53.3404 168.231 53.0085C168.186 52.724 168.259 52.263 168.45 51.6253C168.664 50.9839 168.936 50.2482 169.267 49.4184C169.597 48.5885 169.953 47.7667 170.334 46.953C170.712 46.1156 171.055 45.3687 171.364 44.7123C171.67 44.0321 171.885 43.5486 172.009 43.2615C171.973 43.3401 171.863 43.4912 171.68 43.7146C171.493 43.9143 171.308 44.1259 171.124 44.3493C170.961 44.5453 170.838 44.6863 170.754 44.7725C170.371 45.2705 170.002 45.7785 169.647 46.2964C169.292 46.8144 168.936 47.3324 168.581 47.8503C168.541 47.9052 168.457 47.9914 168.33 48.1087C168.227 48.2223 168.127 48.2866 168.033 48.3016C167.914 48.3204 167.846 48.2705 167.827 48.152C167.808 48.0335 167.934 47.7583 168.206 47.3265C168.478 46.8946 168.822 46.3786 169.237 45.7782C169.652 45.1779 170.077 44.5638 170.512 43.936C170.971 43.3044 171.368 42.7434 171.704 42.2529C172.039 41.7624 172.265 41.4229 172.381 41.2345C172.569 40.8888 172.778 40.6004 173.009 40.3695C173.264 40.1348 173.58 39.9874 173.96 39.9274C174.173 39.8936 174.451 39.9589 174.793 40.1235C175.131 40.2643 175.32 40.4651 175.362 40.7258C175.377 40.8207 175.362 40.8837 175.319 40.9149C174.702 41.6201 174.113 42.4302 173.553 43.345C173.017 44.2561 172.52 45.1852 172.063 46.1325C171.606 47.0797 171.186 47.9601 170.805 48.7738C171.272 48.0437 171.813 47.3141 172.426 46.5852C173.036 45.8325 173.63 45.1311 174.207 44.4807L176.405 42.0186C176.548 41.8501 176.69 41.6697 176.829 41.4775C176.993 41.2815 177.148 41.1111 177.295 40.9663C177.466 40.8178 177.66 40.7385 177.877 40.7284C178.114 40.6908 178.351 40.6533 178.588 40.6157C178.849 40.5744 179.109 40.6061 179.369 40.7108C179.652 40.8118 179.818 41.0163 179.867 41.3245C179.916 41.6326 179.87 41.8828 179.731 42.075C179.611 42.2398 179.471 42.432 179.312 42.6517C178.969 43.0947 178.55 43.6714 178.055 44.3816C177.584 45.088 177.12 45.8418 176.663 46.6431C176.207 47.4443 175.848 48.2424 175.585 49.0373C175.318 49.8085 175.234 50.5023 175.331 51.1186C175.342 51.1897 175.354 51.2608 175.365 51.3319C175.376 51.403 175.399 51.4723 175.434 51.5396C175.902 51.2711 176.398 50.8766 176.924 50.3561C177.469 49.8081 178.006 49.2127 178.536 48.5699C179.066 47.927 179.548 47.2917 179.984 46.6639C180.442 46.0324 180.816 45.4751 181.104 44.9921C181.144 44.9372 181.182 44.8704 181.218 44.7918C181.278 44.7094 181.355 44.6607 181.45 44.6457C181.568 44.6269 181.641 44.7005 181.667 44.8664C181.682 44.9613 181.664 45.0736 181.611 45.2033C181.255 45.8673 180.761 46.6623 180.13 47.5884C179.499 48.5145 178.839 49.4088 178.149 50.2713C177.456 51.1101 176.819 51.7698 176.239 52.2504C176.089 52.3715 175.906 52.449 175.693 52.4828ZM188.391 50.3988C188.177 50.4326 187.913 50.3772 187.599 50.2326C187.308 50.0843 187.049 49.9066 186.822 49.6996C186.591 49.4689 186.459 49.2468 186.425 49.0335C186.368 48.6779 186.424 48.1832 186.591 47.5493C186.754 46.8917 186.954 46.2403 187.192 45.5951C187.454 44.9462 187.657 44.4644 187.802 44.15C187.515 44.487 187.162 45.0168 186.741 45.7394C186.341 46.4346 185.901 47.1846 185.421 47.9896C184.961 48.7672 184.498 49.448 184.032 50.0322C183.589 50.6126 183.178 50.9328 182.799 50.9929C182.277 51.0755 181.822 50.9653 181.434 50.6622C181.066 50.3318 180.841 49.9058 180.758 49.3843C180.645 48.6732 180.727 47.8827 181.002 47.0129C181.274 46.1194 181.669 45.2427 182.189 44.3828C182.729 43.4955 183.327 42.6717 183.985 41.9115C184.666 41.1476 185.343 40.5178 186.018 40.0222C186.717 39.5227 187.362 39.2261 187.955 39.1323C188.595 39.0309 189.141 39.1024 189.592 39.3467C190.04 39.5673 190.311 39.9739 190.405 40.5666C190.42 40.6614 190.425 40.8429 190.419 41.1112C190.436 41.3757 190.374 41.5192 190.232 41.5417C190.161 41.553 190.025 41.4651 189.825 41.278C189.649 41.0872 189.414 40.9058 189.12 40.7337C188.825 40.5617 188.476 40.5076 188.073 40.5714C187.41 40.6765 186.75 41.0362 186.094 41.6504C185.458 42.2371 184.868 42.9623 184.324 43.826C183.777 44.6659 183.316 45.5165 182.942 46.3775C182.569 47.2386 182.296 47.9743 182.126 48.5845C182.081 48.7617 182.038 48.9507 181.997 49.1516C181.979 49.3488 181.986 49.5422 182.016 49.7318C182.05 49.9452 182.126 50.0424 182.244 50.0237C182.363 50.0049 182.591 49.8351 182.929 49.5143C183.291 49.1897 183.545 48.955 183.692 48.8102C184.428 48.0862 185.103 47.2867 185.718 46.4118C186.356 45.5331 186.908 44.6438 187.373 43.744C187.521 43.4532 187.658 43.1643 187.782 42.8773C187.907 42.5903 188.034 42.3151 188.162 42.0518C188.254 41.8671 188.36 41.7653 188.478 41.7466C188.739 41.7053 189.016 41.8436 189.309 42.1616C189.626 42.4759 189.806 42.7634 189.847 43.0242C189.866 43.1427 189.853 43.2176 189.81 43.2488C189.79 43.2762 189.73 43.3586 189.63 43.4959C189.331 43.9078 189.054 44.4619 188.8 45.1582C188.569 45.8508 188.376 46.5496 188.221 47.2547C188.085 47.9322 187.994 48.5056 187.946 48.9747C187.934 49.0496 187.925 49.1482 187.92 49.2705C187.935 49.3653 188 49.3914 188.115 49.349C188.341 49.2403 188.679 48.9195 189.129 48.3865C189.599 47.8261 190.095 47.2007 190.618 46.5105C191.16 45.7928 191.639 45.1338 192.054 44.5335C192.493 43.9294 192.779 43.5075 192.911 43.2679C192.951 43.213 192.991 43.158 193.03 43.1031C193.09 43.0208 193.156 42.9739 193.227 42.9627C193.393 42.9364 193.489 43.0062 193.515 43.1721C193.53 43.267 193.386 43.5815 193.081 44.1156C192.773 44.6261 192.384 45.2345 191.913 45.9409C191.438 46.6237 190.951 47.3082 190.452 47.9947C189.949 48.6575 189.505 49.226 189.118 49.7003C188.752 50.1472 188.509 50.38 188.391 50.3988Z" fill="#DC3353"/>
</symbol>

 <symbol id="icon-footer-phone" viewBox="0 0 20 20" fill="none" xmlns="http://www.w3.org/2000/svg"><path d="M1.66797 3.92232C1.66797 11.8815 8.12047 18.334 16.0796 18.334L19.168 15.2457L15.5655 11.6432L12.9913 14.2165L5.78547 7.01065L8.3588 4.43732L4.7563 0.833984L1.66797 3.92232Z"/>
 </symbol>

<symbol id="icon-footer-horisontal-line" viewBox="0 0 944 1" fill="none" xmlns="http://www.w3.org/2000/svg">
<line x1="944" y1="0.5" y2="0.5" stroke="white"/>
</symbol>



    <symbol id="reviews-arrow-left" viewBox="0 0 55 32">
<path stroke-linejoin="miter" stroke-linecap="butt" stroke-miterlimit="4" stroke-width="2.2857" d="M18.286 0c0 1.696-1.675 4.229-3.371 6.354-2.181 2.743-4.786 5.136-7.774 6.962-2.24 1.369-4.955 2.683-7.141 2.683M0 16c2.185 0 4.903 1.314 7.141 2.683 2.987 1.829 5.593 4.222 7.774 6.96 1.696 2.128 3.371 4.665 3.371 6.357M0 16h54.857"></path>
</symbol>
<symbol id="reviews-arrow-right" viewBox="0 0 55 32">
<path stroke-linejoin="miter" stroke-linecap="butt" stroke-miterlimit="4" stroke-width="2.2857" d="M36.571 0c0 1.696 1.675 4.229 3.371 6.354 2.181 2.743 4.786 5.136 7.774 6.962 2.24 1.369 4.955 2.683 7.141 2.683M54.857 16c-2.185 0-4.903 1.314-7.141 2.683-2.987 1.829-5.593 4.222-7.774 6.96-1.696 2.128-3.371 4.665-3.371 6.357M54.857 16h-54.857"></path>
</symbol>
    <symbol id="icon-logo" viewBox="0 0 153 56" fill="none" >
<path d="M16.6009 1.10878C16.518 1.95852 16.4558 2.78753 16.4144 3.59582C16.3936 4.38339 16.3833 4.98442 16.3833 5.39893C16.3833 5.79272 16.3936 6.17613 16.4144 6.54919C16.4351 6.90152 16.4558 7.20204 16.4765 7.45075H15.7615C15.5957 6.02069 15.3263 4.90152 14.9532 4.09323C14.5802 3.26422 14.0724 2.68391 13.4299 2.3523C12.8081 1.99997 11.9895 1.8238 10.974 1.8238H9.26411C8.64235 1.8238 8.16566 1.87562 7.83406 1.97924C7.50245 2.08287 7.27447 2.30049 7.15012 2.63209C7.04649 2.9637 6.99468 3.47147 6.99468 4.15541V20.0725C6.99468 20.7357 7.04649 21.2435 7.15012 21.5958C7.27447 21.9274 7.50245 22.145 7.83406 22.2487C8.16566 22.3523 8.64235 22.4041 9.26411 22.4041H11.0361C12.0931 22.4041 12.974 22.2072 13.6786 21.8134C14.404 21.4197 14.9843 20.7772 15.4195 19.886C15.8548 18.9741 16.176 17.7305 16.3833 16.1554H17.0983C17.0361 16.7979 17.005 17.6269 17.005 18.6425C17.005 19.0777 17.0154 19.7098 17.0361 20.5388C17.0776 21.3678 17.1398 22.2279 17.2227 23.1191C16.1657 23.0777 14.974 23.057 13.6475 23.057C12.3211 23.0362 11.1398 23.0259 10.1035 23.0259C9.6268 23.0259 8.99468 23.0259 8.20711 23.0259C7.44027 23.0259 6.60089 23.0362 5.68898 23.057C4.79779 23.057 3.88587 23.0673 2.95323 23.0881C2.04131 23.0881 1.17084 23.0984 0.341827 23.1191V22.4974C1.02577 22.4559 1.53354 22.373 1.86514 22.2487C2.21748 22.1243 2.44545 21.8756 2.54908 21.5026C2.67343 21.1295 2.73561 20.5699 2.73561 19.8238V4.40411C2.73561 3.63727 2.67343 3.07769 2.54908 2.72536C2.44545 2.3523 2.21748 2.1036 1.86514 1.97924C1.53354 1.83417 1.02577 1.75126 0.341827 1.73054V1.10878C1.17084 1.1295 2.04131 1.15023 2.95323 1.17095C3.88587 1.17095 4.79779 1.18132 5.68898 1.20204C6.60089 1.20204 7.44027 1.20204 8.20711 1.20204C8.99468 1.20204 9.6268 1.20204 10.1035 1.20204C11.0569 1.20204 12.1346 1.20204 13.3366 1.20204C14.5594 1.18132 15.6475 1.15023 16.6009 1.10878ZM11.5957 11.7409C11.5957 11.7409 11.5957 11.8445 11.5957 12.0518C11.5957 12.259 11.5957 12.3627 11.5957 12.3627H6.06203C6.06203 12.3627 6.06203 12.259 6.06203 12.0518C6.06203 11.8445 6.06203 11.7409 6.06203 11.7409H11.5957ZM12.4973 7.63727C12.4144 8.81862 12.3729 9.72018 12.3729 10.3419C12.3936 10.9637 12.404 11.5336 12.404 12.0518C12.404 12.5699 12.4144 13.1399 12.4351 13.7616C12.4558 14.3834 12.5076 15.2849 12.5905 16.4663H11.8755C11.7719 15.7616 11.6061 15.0984 11.3781 14.4767C11.1708 13.8342 10.8289 13.3264 10.3522 12.9533C9.89623 12.5596 9.23302 12.3627 8.36255 12.3627V11.7409C9.00504 11.7409 9.52317 11.6062 9.91696 11.3368C10.3315 11.0673 10.6631 10.7254 10.9118 10.3108C11.1605 9.87562 11.347 9.43002 11.4714 8.97406C11.6164 8.49738 11.7201 8.05178 11.7822 7.63727H12.4973ZM39.948 1.10878V1.73054C39.2848 1.79271 38.7771 1.94815 38.4247 2.19686C38.0724 2.42484 37.8341 2.7979 37.7097 3.31603C37.6061 3.81344 37.5543 4.52847 37.5543 5.46111V23.2124C37.3677 23.1917 37.1605 23.1813 36.9325 23.1813C36.7252 23.1813 36.4973 23.1917 36.2486 23.2124L22.9118 5.08805V18.5181C22.9118 19.5129 22.974 20.2901 23.0983 20.8497C23.2227 21.3886 23.4921 21.7824 23.9066 22.0311C24.3418 22.259 24.9947 22.4145 25.8651 22.4974V23.1191C25.4714 23.0777 24.9636 23.057 24.3418 23.057C23.7201 23.0362 23.1294 23.0259 22.5698 23.0259C22.0724 23.0259 21.5646 23.0362 21.0465 23.057C20.5491 23.057 20.1346 23.0777 19.803 23.1191V22.4974C20.4869 22.4145 20.9947 22.259 21.3263 22.0311C21.6786 21.8031 21.9066 21.43 22.0102 20.9119C22.1346 20.3938 22.1967 19.6787 22.1967 18.7668V4.40411C22.1967 3.63727 22.1346 3.07769 22.0102 2.72536C21.9066 2.3523 21.6786 2.1036 21.3263 1.97924C20.9947 1.83417 20.4869 1.75126 19.803 1.73054V1.10878C20.1346 1.1295 20.5491 1.15023 21.0465 1.17095C21.5646 1.19168 22.0724 1.20204 22.5698 1.20204C23.0465 1.20204 23.5128 1.19168 23.9688 1.17095C24.4247 1.15023 24.8289 1.1295 25.1812 1.10878L36.8392 16.6217V5.70981C36.8392 4.69427 36.7771 3.91707 36.6527 3.37821C36.5284 2.83935 36.2589 2.44556 35.8444 2.19686C35.4299 1.94815 34.7771 1.79271 33.8859 1.73054V1.10878C34.2797 1.1295 34.7874 1.15023 35.4092 1.17095C36.0517 1.19168 36.6423 1.20204 37.1812 1.20204C37.6993 1.20204 38.2071 1.19168 38.7045 1.17095C39.2227 1.15023 39.6372 1.1295 39.948 1.10878ZM52.9735 0.673543C54.3621 0.673543 55.4916 0.880797 56.3621 1.29531C57.2325 1.68909 58.0305 2.15541 58.7558 2.69427C59.0046 2.90152 59.2118 3.00515 59.3776 3.00515C59.7714 3.00515 60.0305 2.37303 60.1548 1.10878H60.8698C60.8284 1.89634 60.7973 2.86007 60.7766 3.99997C60.7558 5.13987 60.7455 6.64246 60.7455 8.50774H60.0305C59.8854 7.38857 59.6781 6.38339 59.4087 5.4922C59.1393 4.60101 58.6522 3.84453 57.9476 3.22277C57.4087 2.64246 56.7248 2.19686 55.8957 1.88598C55.0875 1.55437 54.2688 1.38857 53.4398 1.38857C52.3413 1.38857 51.3776 1.67872 50.5486 2.25904C49.7403 2.81862 49.0564 3.59582 48.4968 4.59064C47.9579 5.56474 47.5538 6.70463 47.2843 8.01033C47.0149 9.29531 46.8802 10.6735 46.8802 12.145C46.8802 15.8756 47.4191 18.6114 48.4968 20.3523C49.5952 22.0725 51.2014 22.9326 53.3154 22.9326C53.8957 22.9326 54.3932 22.8601 54.8077 22.715C55.2429 22.5492 55.5952 22.3834 55.8647 22.2176C56.1963 21.9896 56.4139 21.7513 56.5175 21.5026C56.6211 21.2539 56.6729 20.943 56.6729 20.5699V17.5233C56.6729 16.6114 56.59 15.9378 56.4242 15.5026C56.2584 15.0466 55.9476 14.7357 55.4916 14.5699C55.0564 14.4041 54.4035 14.3108 53.5331 14.2901V13.6684C53.9476 13.6891 54.4346 13.7098 54.9942 13.7305C55.5745 13.7305 56.1755 13.7409 56.7973 13.7616C57.4398 13.7616 58.0201 13.7616 58.5382 13.7616C59.3465 13.7616 60.0823 13.7513 60.7455 13.7305C61.4087 13.7098 61.9579 13.6891 62.3932 13.6684V14.2901C61.9786 14.3108 61.6574 14.3834 61.4294 14.5077C61.2222 14.6321 61.0875 14.8808 61.0253 15.2539C60.9631 15.6269 60.932 16.1969 60.932 16.9637V23.1191H60.3103C60.2895 22.7668 60.2066 22.3834 60.0615 21.9689C59.9165 21.5544 59.6989 21.3471 59.4087 21.3471C59.2636 21.3471 59.0978 21.3886 58.9113 21.4715C58.7248 21.5336 58.4035 21.6891 57.9476 21.9378C57.2222 22.4145 56.445 22.8083 55.616 23.1191C54.8077 23.4093 53.9165 23.5544 52.9424 23.5544C50.6211 23.5544 48.6522 23.1191 47.0356 22.2487C45.4398 21.3575 44.2274 20.0829 43.3983 18.4248C42.5693 16.7461 42.1548 14.7461 42.1548 12.4248C42.1548 10.0414 42.6211 7.96888 43.5538 6.20722C44.4864 4.44556 45.761 3.08805 47.3776 2.13468C49.0149 1.16059 50.8802 0.673543 52.9735 0.673543ZM73.4802 1.10878V1.73054C72.7755 1.75126 72.2367 1.83417 71.8636 1.97924C71.5113 2.1036 71.2729 2.3523 71.1486 2.72536C71.0242 3.07769 70.9621 3.63727 70.9621 4.40411V20.0725C70.9621 20.7357 71.0139 21.2435 71.1175 21.5958C71.2418 21.9274 71.4595 22.145 71.7703 22.2487C72.0812 22.3523 72.5268 22.4041 73.1071 22.4041H74.8792C75.6874 22.4041 76.3921 22.259 76.9931 21.9689C77.6149 21.6787 78.1538 21.2539 78.6097 20.6943C79.0657 20.1347 79.4387 19.4507 79.7289 18.6425C80.019 17.8134 80.2263 16.8808 80.3507 15.8445H81.0657C81.0035 16.5285 80.9724 17.4197 80.9724 18.5181C80.9724 18.9741 80.9828 19.6269 81.0035 20.4767C81.045 21.3264 81.1071 22.2072 81.19 23.1191C80.133 23.0777 78.9413 23.057 77.6149 23.057C76.2885 23.0362 75.1071 23.0259 74.0709 23.0259C73.5735 23.0259 72.9413 23.0259 72.1745 23.0259C71.4076 23.0259 70.5683 23.0362 69.6564 23.057C68.7652 23.057 67.8532 23.0673 66.9206 23.0881C66.0087 23.0881 65.1382 23.0984 64.3092 23.1191V22.4974C64.9931 22.4559 65.5009 22.373 65.8325 22.2487C66.1849 22.1243 66.4128 21.8756 66.5165 21.5026C66.6408 21.1295 66.703 20.5699 66.703 19.8238V4.40411C66.703 3.63727 66.6408 3.07769 66.5165 2.72536C66.4128 2.3523 66.1849 2.1036 65.8325 1.97924C65.5009 1.83417 64.9931 1.75126 64.3092 1.73054V1.10878C64.8273 1.1295 65.4906 1.15023 66.2988 1.17095C67.1071 1.19168 67.9776 1.20204 68.9102 1.20204C69.76 1.20204 70.5994 1.19168 71.4284 1.17095C72.2574 1.15023 72.9413 1.1295 73.4802 1.10878ZM92.0876 1.10878V1.73054C91.4244 1.75126 90.9166 1.83417 90.5643 1.97924C90.2327 2.1036 90.0047 2.3523 89.8804 2.72536C89.756 3.07769 89.6938 3.63727 89.6938 4.40411V19.8238C89.6938 20.5699 89.756 21.1295 89.8804 21.5026C90.0047 21.8756 90.2327 22.1243 90.5643 22.2487C90.9166 22.373 91.4244 22.4559 92.0876 22.4974V23.1191C91.5695 23.0777 90.9063 23.057 90.098 23.057C89.2897 23.0362 88.471 23.0259 87.642 23.0259C86.7094 23.0259 85.8389 23.0362 85.0306 23.057C84.2223 23.057 83.5591 23.0777 83.041 23.1191V22.4974C83.7249 22.4559 84.2327 22.373 84.5643 22.2487C84.9166 22.1243 85.1446 21.8756 85.2482 21.5026C85.3726 21.1295 85.4348 20.5699 85.4348 19.8238V4.40411C85.4348 3.63727 85.3726 3.07769 85.2482 2.72536C85.1446 2.3523 84.9166 2.1036 84.5643 1.97924C84.2327 1.83417 83.7249 1.75126 83.041 1.73054V1.10878C83.5591 1.1295 84.2223 1.15023 85.0306 1.17095C85.8389 1.19168 86.7094 1.20204 87.642 1.20204C88.471 1.20204 89.2897 1.19168 90.098 1.17095C90.9063 1.15023 91.5695 1.1295 92.0876 1.10878ZM101.764 0.73572C102.925 0.73572 103.816 0.860072 104.438 1.10878C105.059 1.35748 105.598 1.62691 106.054 1.91707C106.303 2.06214 106.5 2.17613 106.645 2.25904C106.811 2.32121 106.966 2.3523 107.111 2.3523C107.318 2.3523 107.464 2.23831 107.546 2.01033C107.65 1.78235 107.733 1.44038 107.795 0.984425H108.51C108.489 1.37821 108.458 1.83417 108.417 2.3523C108.396 2.87044 108.375 3.56474 108.355 4.4352C108.355 5.28494 108.355 6.41448 108.355 7.8238H107.64C107.578 6.76681 107.339 5.75126 106.925 4.77717C106.531 3.80308 105.961 3.00515 105.215 2.38339C104.489 1.7409 103.557 1.41966 102.417 1.41966C101.401 1.41966 100.552 1.72018 99.8677 2.32121C99.2044 2.92225 98.8728 3.73054 98.8728 4.74608C98.8728 5.61655 99.0905 6.3523 99.5257 6.95334C99.9609 7.53365 100.572 8.1036 101.36 8.66318C102.168 9.20204 103.122 9.8238 104.22 10.5285C105.236 11.1917 106.147 11.8549 106.956 12.5181C107.764 13.1606 108.396 13.8756 108.852 14.6632C109.329 15.4507 109.567 16.4145 109.567 17.5544C109.567 18.9015 109.236 20.0207 108.572 20.9119C107.909 21.8031 107.018 22.4663 105.899 22.9015C104.78 23.3368 103.557 23.5544 102.23 23.5544C101.008 23.5544 100.033 23.43 99.3081 23.1813C98.6034 22.9326 97.992 22.6735 97.4739 22.4041C97.0179 22.114 96.6656 21.9689 96.4169 21.9689C96.2096 21.9689 96.0542 22.0829 95.9506 22.3109C95.8677 22.5388 95.7951 22.8808 95.7329 23.3368H95.0179C95.0594 22.8601 95.0801 22.3005 95.0801 21.658C95.1008 21.0155 95.1112 20.1865 95.1112 19.171C95.1319 18.1347 95.1423 16.829 95.1423 15.2539H95.8573C95.9402 16.5803 96.1682 17.8238 96.5412 18.9844C96.935 20.1243 97.5257 21.0466 98.3133 21.7513C99.1215 22.4559 100.189 22.8083 101.515 22.8083C102.241 22.8083 102.894 22.6839 103.474 22.4352C104.075 22.1658 104.552 21.7616 104.904 21.2228C105.256 20.6632 105.432 19.9585 105.432 19.1088C105.432 18.259 105.236 17.5129 104.842 16.8704C104.448 16.2279 103.899 15.6269 103.194 15.0673C102.489 14.5077 101.66 13.9378 100.707 13.3575C99.7329 12.7357 98.821 12.1036 97.9713 11.4611C97.1215 10.8186 96.4376 10.0932 95.9195 9.28494C95.4221 8.45593 95.1734 7.46111 95.1734 6.30049C95.1734 5.01551 95.4842 3.96888 96.106 3.16059C96.7278 2.33157 97.5361 1.72018 98.5309 1.32639C99.5464 0.932611 100.624 0.73572 101.764 0.73572ZM125.184 23.1191V22.4974C125.868 22.4559 126.376 22.373 126.707 22.2487C127.059 22.1243 127.287 21.8756 127.391 21.5026C127.515 21.1295 127.578 20.5699 127.578 19.8238V4.40411C127.578 3.63727 127.515 3.07769 127.391 2.72536C127.287 2.3523 127.059 2.1036 126.707 1.97924C126.376 1.83417 125.868 1.75126 125.184 1.73054V1.10878C125.743 1.1295 126.438 1.15023 127.267 1.17095C128.096 1.19168 128.925 1.20204 129.754 1.20204C130.666 1.20204 131.515 1.19168 132.303 1.17095C133.111 1.15023 133.754 1.1295 134.23 1.10878V1.73054C133.567 1.75126 133.059 1.83417 132.707 1.97924C132.376 2.1036 132.148 2.3523 132.023 2.72536C131.899 3.07769 131.837 3.63727 131.837 4.40411V19.8238C131.837 20.5699 131.899 21.1295 132.023 21.5026C132.148 21.8756 132.376 22.1243 132.707 22.2487C133.059 22.373 133.567 22.4559 134.23 22.4974V23.1191C133.754 23.0777 133.111 23.057 132.303 23.057C131.515 23.0362 130.666 23.0259 129.754 23.0259C128.925 23.0259 128.096 23.0362 127.267 23.057C126.438 23.057 125.743 23.0777 125.184 23.1191ZM112.065 23.1191V22.4974C112.749 22.4559 113.256 22.373 113.588 22.2487C113.94 22.1243 114.168 21.8756 114.272 21.5026C114.396 21.1295 114.458 20.5699 114.458 19.8238V4.40411C114.458 3.63727 114.396 3.07769 114.272 2.72536C114.168 2.3523 113.94 2.1036 113.588 1.97924C113.256 1.83417 112.749 1.75126 112.065 1.73054V1.10878C112.583 1.1295 113.246 1.15023 114.054 1.17095C114.863 1.19168 115.733 1.20204 116.666 1.20204C117.495 1.20204 118.313 1.19168 119.122 1.17095C119.93 1.15023 120.593 1.1295 121.111 1.10878V1.73054C120.448 1.75126 119.94 1.83417 119.588 1.97924C119.256 2.1036 119.028 2.3523 118.904 2.72536C118.78 3.07769 118.717 3.63727 118.717 4.40411V19.8238C118.717 20.5699 118.78 21.1295 118.904 21.5026C119.028 21.8756 119.256 22.1243 119.588 22.2487C119.94 22.373 120.448 22.4559 121.111 22.4974V23.1191C120.593 23.0777 119.93 23.057 119.122 23.057C118.313 23.0362 117.495 23.0259 116.666 23.0259C115.733 23.0259 114.863 23.0362 114.054 23.057C113.246 23.057 112.583 23.0777 112.065 23.1191ZM117.008 12.3627V11.7409H129.287V12.3627H117.008Z" fill="#292929"/>
<path d="M47.8633 45.102C47.5133 45.1575 47.1525 45.0258 46.7809 44.7069C46.4278 44.3851 46.225 44.0584 46.1725 43.7268C46.1579 43.6347 46.1554 43.5596 46.1651 43.5014C46.3566 42.5645 46.652 41.6868 47.0511 40.8682C47.4657 40.0282 47.8697 39.1805 48.263 38.325C48.2785 38.3037 48.2833 38.2746 48.2775 38.2377C48.2688 38.1824 48.2523 38.1378 48.228 38.1039C48.2008 38.0516 48.1829 37.9978 48.1741 37.9425C48.1449 37.7583 48.2248 37.5473 48.4138 37.3096C48.6212 37.069 48.8514 36.8532 49.1044 36.662C49.3758 36.4679 49.5945 36.3578 49.7603 36.3315C49.9629 36.2994 50.168 36.3425 50.3756 36.4607C50.5987 36.5575 50.7277 36.7165 50.7628 36.9376C50.6019 37.1142 50.3756 37.4144 50.0839 37.8383C49.7922 38.2622 49.4817 38.7458 49.1522 39.289C48.8383 39.8108 48.5365 40.3496 48.2468 40.9054C47.9726 41.4399 47.7493 41.9379 47.5769 42.3996C47.4201 42.8399 47.3591 43.1706 47.3941 43.3917C47.4233 43.5759 47.5208 43.6549 47.6866 43.6286C47.8709 43.5995 48.1176 43.4282 48.4268 43.1148C48.7514 42.7801 49.0936 42.3766 49.4531 41.9041C49.8126 41.4317 50.1601 40.9423 50.4953 40.436C50.8306 39.9296 51.1271 39.4766 51.3849 39.077C51.6581 38.656 51.8461 38.3524 51.9488 38.1661C52.1048 37.8393 52.2651 37.54 52.4299 37.2684C52.6101 36.9755 52.8126 36.5846 53.0373 36.0958C53.1555 35.8882 53.2873 35.7068 53.4327 35.5516C53.5752 35.3779 53.7385 35.2765 53.9227 35.2473C54.0149 35.2327 54.1603 35.2569 54.3591 35.3198C54.558 35.3828 54.7214 35.4608 54.8494 35.5538C54.9746 35.6284 55.0474 35.7302 55.0678 35.8592C55.094 36.025 55.05 36.1641 54.9356 36.2767C54.7583 36.588 54.5432 37.0187 54.2904 37.5686C54.0531 38.0973 53.823 38.6719 53.6003 39.2926C53.3931 39.892 53.2275 40.4565 53.1036 40.986C52.9798 41.5155 52.9397 41.9185 52.9835 42.1948C53.0243 42.4527 53.1199 42.5792 53.2702 42.5743C53.4884 42.5209 53.7802 42.2764 54.1455 41.8408C54.5109 41.4052 54.8985 40.8717 55.3084 40.2402C55.7338 39.5874 56.1393 38.9283 56.525 38.2629C56.9077 37.579 57.2376 36.9791 57.5147 36.4631C57.5174 36.1227 57.5153 35.8114 57.5084 35.5293C57.517 35.2257 57.5735 34.8674 57.6781 34.4542C57.7381 34.237 57.8316 34.0522 57.9585 33.8999C58.0826 33.7292 58.2551 33.6263 58.4762 33.5913C58.6789 33.5592 58.8733 33.5945 59.0596 33.6972C59.2642 33.797 59.3826 33.9482 59.4147 34.1509C59.4526 34.3904 59.3955 34.626 59.2434 34.8579C59.0912 35.0897 58.9479 35.3768 58.8132 35.7192C58.6786 36.0616 58.6565 36.5183 58.747 37.0894L58.7645 37.2C58.7762 37.2737 58.7815 37.3672 58.7806 37.4807C58.7797 37.5941 58.7332 37.6582 58.6411 37.6728C58.5121 37.6932 58.3623 37.6414 58.1915 37.5173C58.0208 37.3933 57.916 37.2682 57.8772 37.1422C57.4983 37.731 57.0957 38.4085 56.6694 39.1748C56.2615 39.9382 55.8507 40.6831 55.437 41.4096C55.0388 42.1148 54.6551 42.7327 54.2858 43.2633C53.9321 43.7726 53.6137 44.0874 53.3306 44.2078C53.2599 44.2379 53.1692 44.2617 53.0587 44.2792C52.856 44.3113 52.6553 44.2959 52.4565 44.2329C52.2576 44.17 52.0564 44.0319 51.8526 43.8187C51.8284 43.7847 51.8118 43.7401 51.8031 43.6849C51.7943 43.6296 51.7778 43.585 51.7536 43.5511C51.7235 43.4803 51.6842 43.411 51.6357 43.3431C51.6026 43.2539 51.5788 43.1633 51.5642 43.0711C51.4971 42.6474 51.5381 42.131 51.6871 41.522C51.8546 40.91 52.0483 40.2844 52.2681 39.6453C52.4879 39.0061 52.6641 38.4494 52.7967 37.9752C51.9392 39.3574 51.1597 40.5763 50.4581 41.6316C49.772 42.6657 49.1107 43.6769 48.474 44.6654C48.3965 44.7721 48.3083 44.871 48.2095 44.9622C48.1261 45.0321 48.0107 45.0787 47.8633 45.102ZM64.1357 31.8451C63.712 31.9122 63.4753 31.7892 63.4257 31.476C63.3907 31.2549 63.4725 30.9964 63.6711 30.7006C63.8698 30.4047 64.1907 30.165 64.6337 29.9815C64.8984 29.8641 65.1136 29.7922 65.2795 29.766C65.4608 29.7183 65.63 29.6538 65.787 29.5723C65.7688 29.934 65.672 30.3364 65.4967 30.7797C65.3398 31.22 65.0844 31.5154 64.7305 31.6659C64.5551 31.7503 64.3568 31.8101 64.1357 31.8451ZM61.4561 43.544C61.1614 43.5907 60.8661 43.5147 60.5702 43.3161C60.2928 43.1145 60.1045 42.8799 60.0055 42.6124C60.0053 42.2536 60.058 41.8109 60.1634 41.2843C60.2844 40.7363 60.43 40.1656 60.6004 39.572C60.7708 38.9785 60.947 38.4218 61.1291 37.9019C61.3082 37.3636 61.4666 36.9325 61.6041 36.6086C61.3037 36.9772 60.9814 37.3871 60.6374 37.8381C60.3118 38.2863 60.0002 38.7039 59.7027 39.091C59.6872 39.1123 59.647 39.1565 59.582 39.2234C59.5355 39.2874 59.4846 39.3238 59.4294 39.3326C59.3004 39.353 59.2272 39.3079 59.2097 39.1974C59.1951 39.1053 59.2188 39.0165 59.2808 38.9312C59.6907 38.2997 60.119 37.6653 60.5657 37.028C61.0309 36.3877 61.4747 35.732 61.8972 35.0608C62.0309 34.8318 62.1443 34.6534 62.2373 34.5253C62.3458 34.3759 62.5291 34.2808 62.787 34.24C62.8975 34.2224 63.0677 34.2238 63.2976 34.2441C63.5429 34.243 63.748 34.286 63.9129 34.3732C64.0962 34.4575 64.1457 34.5913 64.0615 34.7746C63.9646 34.9977 63.796 35.3643 63.5558 35.8745C63.3155 36.3847 63.0395 36.9667 62.7275 37.6204C62.434 38.2712 62.142 38.9313 61.8514 39.6005C61.5763 40.2484 61.3569 40.8308 61.1933 41.3478C61.0296 41.8647 60.9668 42.2429 61.0047 42.4824C61.0222 42.593 61.0678 42.6424 61.1415 42.6307C61.2521 42.6132 61.4202 42.4827 61.6461 42.2392C61.8903 41.9928 62.1239 41.7386 62.3468 41.4767C62.5852 41.1934 62.7447 41.0076 62.8251 40.9193C63.2864 40.3741 63.7371 39.8212 64.1771 39.2605C64.6141 38.6814 65.0206 38.0882 65.3966 37.481C65.4276 37.4383 65.4649 37.3757 65.5085 37.2933C65.5705 37.2079 65.6384 37.1594 65.7121 37.1477C65.8042 37.1331 65.859 37.1811 65.8765 37.2916C65.8969 37.4206 65.8713 37.5568 65.7996 37.7004C65.6068 38.0331 65.3864 38.3702 65.1383 38.7116C64.8873 39.0347 64.6547 39.3548 64.4405 39.672C64.0374 40.2269 63.6435 40.7803 63.2588 41.3322C62.8895 41.8628 62.5233 42.4119 62.1599 42.9793C62.0853 43.1045 61.9816 43.2248 61.8488 43.3402C61.7344 43.4528 61.6035 43.5207 61.4561 43.544ZM67.3638 42.75C67.0322 42.8025 66.7291 42.7372 66.4546 42.5541C66.1985 42.368 65.9812 42.1286 65.8026 41.8358C65.6396 41.5217 65.5347 41.2173 65.488 40.9225C65.4413 40.6277 65.4329 40.3363 65.4628 40.0483C65.4898 39.7419 65.5459 39.4403 65.6311 39.1435C65.9409 37.9991 66.3224 36.8905 66.7758 35.8178C67.2291 34.7451 67.7178 33.6573 68.2419 32.5545C67.9132 32.6254 67.4652 32.6586 66.8979 32.654C66.349 32.6465 65.8666 32.5813 65.4505 32.4584C65.2517 32.3954 65.0824 32.2806 64.9427 32.1139C64.8185 31.9258 64.7461 31.7673 64.7257 31.6383C64.6995 31.4725 64.7445 31.3993 64.8609 31.4186C65.5854 31.7005 66.2342 31.8621 66.8073 31.9035C67.396 31.9236 68.0049 31.8932 68.6342 31.8125C69.1293 30.8842 69.6627 29.9593 70.2344 29.0378C70.8245 28.1134 71.4196 27.3393 72.0195 26.7155C72.1029 26.6456 72.1722 26.6063 72.2275 26.5975C72.3748 26.5742 72.5155 26.6275 72.6494 26.7574C72.8017 26.8843 72.8909 27.0307 72.9172 27.1965C72.9551 27.436 72.8893 27.6164 72.7196 27.7377C71.8213 28.862 70.9307 30.1551 70.048 31.6169C70.3641 31.5857 70.6986 31.5516 71.0516 31.5146C71.4016 31.4591 71.7517 31.4037 72.1017 31.3482C72.636 31.2636 73.1596 31.1713 73.6725 31.0711C74.1855 30.971 74.631 30.8627 75.0091 30.7461C77.0123 26.1041 79.1097 22.8919 81.3014 21.1095C81.7676 20.7146 82.2039 20.4283 82.6101 20.2506C83.0134 20.0546 83.3901 19.9288 83.7401 19.8734C84.2744 19.7888 84.7263 19.8399 85.0958 20.0269C85.4809 20.1925 85.8102 20.4237 86.0838 20.7203C86.1993 20.8531 86.2731 21.0208 86.3052 21.2234C86.3839 21.7209 86.2252 22.3881 85.829 23.2252C85.4299 24.0438 84.7971 24.9372 83.9306 25.9054C83.0612 26.8552 81.9727 27.7924 80.665 28.7172C79.3544 29.6235 77.827 30.4131 76.0828 31.086C75.4385 32.2645 74.8897 33.3901 74.4363 34.4628C73.983 35.5355 73.6353 36.4405 73.3933 37.1776C73.8332 36.6169 74.3241 36.0198 74.8659 35.3863C75.4232 34.7315 75.9649 34.098 76.4912 33.4858C77.0145 32.8553 77.439 32.3159 77.7646 31.8677C77.8422 31.761 77.9517 31.6776 78.0932 31.6174C78.2532 31.5543 78.37 31.5169 78.4437 31.5052C78.7017 31.4644 78.98 31.5525 79.2788 31.7696C79.596 31.9837 79.7794 32.2474 79.829 32.5606C79.8728 32.8369 79.7924 33.1046 79.5879 33.3636C79.114 33.9486 78.644 34.6179 78.1779 35.3716C77.709 36.1069 77.3011 36.8702 76.9543 37.6617C76.8603 37.9032 76.7272 38.2548 76.5548 38.7164C76.4008 39.1752 76.3443 39.5335 76.3851 39.7915C76.4143 39.9757 76.4842 40.059 76.5947 40.0415C76.8158 40.0065 77.1008 39.8386 77.4497 39.5378C77.8171 39.2342 78.2019 38.8616 78.6041 38.4202C79.0219 37.9574 79.4289 37.4869 79.8253 37.0087C80.2401 36.5275 80.604 36.0827 80.9171 35.6743C81.2301 35.2659 81.4549 34.9565 81.5915 34.746C81.6846 34.6179 81.7679 34.5481 81.8416 34.5364C81.9522 34.5189 82.0162 34.5654 82.0337 34.6759C82.0424 34.7312 82.0187 34.8199 81.9625 34.9421C81.7726 35.2933 81.4853 35.7448 81.1006 36.2968C80.713 36.8303 80.2822 37.3895 79.8083 37.9745C79.3315 38.5411 78.8672 39.0678 78.4156 39.5548C77.9794 40.0205 77.6116 40.3809 77.3121 40.6361C77.1948 40.7302 77.0348 40.7933 76.8322 40.8254C76.5558 40.8692 76.2188 40.8282 75.8212 40.7023C75.4235 40.5764 75.1999 40.3569 75.1503 40.0437C75.1065 39.7673 75.1524 39.4012 75.288 38.9454C75.4235 38.4896 75.6007 37.9988 75.8196 37.4731C76.0385 36.9474 76.2696 36.4387 76.5127 35.947C76.753 35.4368 76.9588 35.0076 77.1303 34.6594C77.3173 34.2898 77.4297 34.0454 77.4674 33.9261C77.6699 33.5352 77.7915 33.2893 77.8322 33.1885C77.8728 33.0876 77.898 33.0081 77.9077 32.9499C77.7778 33.0837 77.5752 33.2952 77.3 33.5844C77.0218 33.855 76.7451 34.1349 76.4698 34.424C76.1946 34.7131 75.9935 34.9338 75.8665 35.0862C74.9778 36.1523 74.249 37.1553 73.6803 38.0953C73.127 39.0138 72.6285 39.9804 72.1849 40.9949C72.1694 41.0163 72.1262 41.042 72.0555 41.0721C71.9818 41.0838 71.9265 41.0925 71.8897 41.0984C71.7791 41.1159 71.6089 41.1145 71.3791 41.0942C71.1677 41.0711 71.0658 40.9644 71.0735 40.7744C71.1403 40.4805 71.2409 40.1624 71.3756 39.82C71.5102 39.4777 71.701 39.0131 71.948 38.4263C72.1921 37.8211 72.5025 36.9787 72.8792 35.8992C72.945 35.7188 73.0593 35.4269 73.222 35.0234C73.3848 34.6199 73.5615 34.1859 73.7523 33.7213C73.9616 33.2538 74.1553 32.8077 74.3335 32.3828C74.5118 31.958 74.6493 31.6341 74.7462 31.411C74.402 31.5033 73.9196 31.6174 73.299 31.7535C72.6756 31.8711 72.0414 31.981 71.3966 32.0831C71.0834 32.1327 70.7794 32.1809 70.4847 32.2276C70.187 32.2558 69.9077 32.2812 69.6469 32.3036C69.3678 32.6878 69.0412 33.2494 68.6673 33.9885C68.3117 34.7247 67.9693 35.5438 67.6401 36.4457C67.3079 37.3293 67.0494 38.2012 66.8646 39.0614C66.6982 39.9188 66.6661 40.6698 66.7682 41.3146C66.7828 41.4067 66.8037 41.479 66.8309 41.5313C66.858 41.5837 66.9177 41.6026 67.0098 41.588C67.1203 41.5705 67.2173 41.5268 67.3006 41.4569C67.3995 41.3657 67.48 41.2774 67.542 41.1921C67.7678 40.9486 67.9708 40.6803 68.1511 40.3874C68.3468 40.0731 68.5362 39.7787 68.7194 39.5042C69.0547 38.9978 69.4006 38.4993 69.7572 38.0084C70.1138 37.5176 70.4613 37.0282 70.7995 36.5402C70.8305 36.4976 70.8629 36.4641 70.8969 36.4398C70.9279 36.3971 70.9618 36.3729 70.9986 36.3671C71.1276 36.3466 71.2038 36.4101 71.2271 36.5575C71.2359 36.6128 71.2121 36.7015 71.156 36.8237C70.9816 37.1535 70.7888 37.4862 70.5775 37.8218C70.3634 38.139 70.1599 38.464 69.9671 38.7967C69.5785 39.4437 69.1885 40.0814 68.797 40.71C68.424 41.3357 68.0539 41.9797 67.6867 42.6422C67.6343 42.6694 67.5805 42.6874 67.5252 42.6961C67.4729 42.7233 67.4191 42.7412 67.3638 42.75ZM76.2817 30.3746C77.0942 30.0193 77.9366 29.5554 78.8091 28.9828C79.6971 28.3889 80.5487 27.7441 81.3638 27.0485C82.1761 26.3344 82.8934 25.6164 83.5156 24.8947C84.1533 24.1516 84.6373 23.4517 84.9677 22.795C85.3165 22.1355 85.4544 21.5754 85.3815 21.1148C85.361 20.9858 85.3358 20.886 85.3057 20.8152C85.1242 20.504 84.7755 20.3893 84.2597 20.471C84.057 20.5031 83.8311 20.5672 83.5819 20.6633C83.3512 20.7565 83.1093 20.8987 82.8563 21.0898C81.9402 21.7448 81.1076 22.5093 80.3584 23.3834C79.6277 24.2546 78.9373 25.261 78.2871 26.4027C77.637 27.5443 76.9685 28.8683 76.2817 30.3746ZM100.307 38.7222C100.089 38.6621 99.9186 38.5381 99.7944 38.35C99.6701 38.162 99.5847 37.9206 99.538 37.6258C99.4446 37.0362 99.469 36.2958 99.6111 35.4046C99.7688 34.492 99.9322 33.6163 100.102 32.7774C100.245 32.1315 100.389 31.3722 100.534 30.4994C100.694 29.6052 100.849 28.6742 100.998 27.7063C101.162 26.7172 101.314 25.7677 101.453 24.8581C101.593 23.9484 101.702 23.1474 101.781 22.455C101.876 21.7412 101.935 21.2219 101.959 20.897C100.613 21.6957 99.4309 22.5817 98.4142 23.5548C97.3945 24.5095 96.4645 25.5538 95.6243 26.6878C94.7996 27.8005 93.9803 29.0067 93.1664 30.3065L97.0629 29.6894C97.1366 29.6777 97.3039 29.6606 97.5647 29.6382C97.8226 29.5974 98.1019 29.572 98.4025 29.5622C98.7002 29.5339 98.9547 29.5314 99.1661 29.5545C99.3931 29.5564 99.5138 29.6033 99.5284 29.6955C99.5517 29.8428 99.3879 30.001 99.037 30.1699C98.7015 30.3174 98.2541 30.4733 97.6946 30.6374C97.1507 30.7802 96.5777 30.9182 95.9755 31.0514C95.3705 31.1661 94.8115 31.2735 94.2986 31.3736C93.7856 31.4737 93.4002 31.5442 93.1423 31.5851C92.7922 31.6405 92.436 31.8952 92.0735 32.3492C91.7111 32.8032 91.3676 33.377 91.0431 34.0705C90.737 34.7611 90.4566 35.4948 90.2019 36.2717C89.9627 37.0272 89.7561 37.7492 89.5818 38.4378C89.426 39.1235 89.3279 39.6962 89.2874 40.1558C89.2932 40.1927 89.2913 40.2402 89.2816 40.2984C89.272 40.3566 89.2395 40.39 89.1842 40.3988C89.0737 40.4163 88.9471 40.3325 88.8045 40.1473C88.6463 39.9835 88.5599 39.8556 88.5454 39.7634C88.4666 39.266 88.4944 38.6667 88.6289 37.9655C88.7633 37.2644 88.9516 36.5452 89.1937 35.8081C89.4512 35.0497 89.7253 34.3359 90.0159 33.6666C90.3249 32.9945 90.6054 32.4401 90.8573 32.0036C90.3968 32.0766 89.9284 32.1602 89.4523 32.2545C88.9733 32.3304 88.4943 32.4062 88.0153 32.4821C87.9048 32.4996 87.7884 32.4803 87.6662 32.4241C87.5226 32.3524 87.4237 32.2642 87.3693 32.1595C87.4109 31.9452 87.6101 31.772 87.9669 31.6399C88.3208 31.4894 88.7358 31.3671 89.2119 31.2728C89.7035 31.1571 90.1689 31.0551 90.6081 30.9666C91.0473 30.8782 91.3639 30.7903 91.5578 30.7029C91.8252 30.2451 92.1978 29.6762 92.6756 28.9962C93.1533 28.3162 93.7081 27.5862 94.34 26.8062C94.9719 26.0263 95.6421 25.2497 96.3506 24.4765C97.0591 23.7033 97.7671 22.9868 98.4747 22.3271C99.1823 21.6673 99.8613 21.1254 100.512 20.7014C101.159 20.2589 101.732 19.9982 102.229 19.9194C102.377 19.8961 102.584 19.8916 102.85 19.906C103.114 19.902 103.365 19.9378 103.604 20.0133C103.842 20.0888 103.978 20.2279 104.01 20.4306C104.048 20.6701 103.993 21.1603 103.846 21.9012C103.718 22.6393 103.528 23.5286 103.277 24.5692C103.024 25.5914 102.751 26.6732 102.46 27.8147C102.166 28.9378 101.883 30.0119 101.611 31.037C101.339 32.0621 101.108 32.9297 100.918 33.6396C100.658 34.7384 100.476 35.6171 100.372 36.2755C100.287 36.9311 100.274 37.4431 100.332 37.8116C100.376 38.0879 100.469 38.3187 100.612 38.5038C100.633 38.5193 100.602 38.562 100.519 38.6319C100.436 38.7017 100.365 38.7318 100.307 38.7222ZM106.291 36.1313C105.978 36.1809 105.581 36.1209 105.101 35.9515C104.621 35.782 104.276 35.5722 104.067 35.3221C103.927 35.1554 103.837 34.9431 103.796 34.6851C103.703 34.0956 103.79 33.2791 104.06 32.2355C104.344 31.1706 104.728 30.0146 105.21 28.7673C105.423 28.2047 105.706 27.5462 106.058 26.7915C106.429 26.034 106.853 25.2493 107.329 24.4374C107.801 23.6071 108.308 22.8093 108.847 22.0439C109.406 21.2757 109.968 20.5917 110.534 19.9922C111.118 19.3897 111.689 18.9405 112.247 18.6444C112.472 18.5144 112.676 18.4348 112.86 18.4056C113.21 18.3502 113.469 18.432 113.636 18.651C113.818 18.8488 114.041 19.0024 114.304 19.1118C114.466 19.1806 114.563 19.3163 114.595 19.519C114.662 19.9427 114.512 20.4858 114.145 21.1483C113.777 21.8108 113.278 22.532 112.646 23.312C112.014 24.0919 111.327 24.8806 110.585 25.6781C109.839 26.4571 109.114 27.1857 108.41 27.8639C107.723 28.5392 107.133 29.1048 106.639 29.5608C106.144 30.0168 105.831 30.3025 105.698 30.418C105.503 30.9776 105.339 31.608 105.204 32.3092C105.07 33.0103 105.049 33.6557 105.143 34.2452C105.178 34.4663 105.245 34.7106 105.344 34.9782C105.458 35.2245 105.663 35.3243 105.958 35.2776C106.234 35.2338 106.54 35.0814 106.877 34.8204C107.213 34.5594 107.537 34.2814 107.85 33.9865C108.159 33.6731 108.401 33.4175 108.578 33.2196C108.996 32.7568 109.357 32.2936 109.661 31.8299C109.965 31.3663 110.325 30.8371 110.741 30.2425C110.772 30.1998 110.804 30.1663 110.838 30.1421C110.869 30.0994 110.912 30.0737 110.968 30.0649C111.078 30.0474 111.144 30.1031 111.164 30.2321C111.182 30.3426 111.152 30.4512 111.074 30.558C110.466 31.4853 109.825 32.4461 109.151 33.4404C108.496 34.4317 107.72 35.2535 106.822 35.9055C106.652 36.0268 106.475 36.1021 106.291 36.1313ZM106.355 28.8409C106.616 28.705 106.968 28.4227 107.41 27.9938C107.849 27.5466 108.333 27.0261 108.863 26.4324C109.41 25.8357 109.953 25.2115 110.492 24.5596C111.047 23.8863 111.55 23.2495 112.003 22.649C112.471 22.0272 112.851 21.5043 113.142 21.0804C113.45 20.6352 113.619 20.3345 113.651 20.1783C113.67 20.062 113.677 19.9854 113.671 19.9485C113.648 19.8011 113.558 19.7115 113.402 19.6795C113.264 19.6447 113.113 19.6404 112.947 19.6667C112.855 19.6813 112.764 19.7051 112.675 19.7381C112.586 19.7711 112.506 19.8026 112.435 19.8327C112.139 19.9929 111.768 20.3349 111.323 20.8587C110.874 21.3642 110.404 21.9768 109.914 22.6965C109.421 23.3979 108.933 24.1361 108.452 24.9111C107.989 25.6832 107.567 26.4204 107.187 27.1227C106.823 27.8036 106.545 28.3763 106.355 28.8409ZM108.874 46.2885C108.027 46.4227 107.536 46.0661 107.402 45.2186C107.387 45.1265 107.382 45.0329 107.386 44.9379C107.371 44.8458 107.366 44.7522 107.37 44.6572C107.412 43.9706 107.624 43.2854 108.007 42.6015C108.39 41.9177 108.861 41.2576 109.422 40.6212C109.985 40.0032 110.561 39.4114 111.152 38.8458C111.763 38.2957 112.31 37.8125 112.792 37.3963C113.073 37.144 113.43 36.8325 113.862 36.4619C114.313 36.0883 114.787 35.6828 115.284 35.2452C115.784 34.826 116.259 34.4297 116.71 34.0561C116.831 33.5082 116.879 32.9152 116.853 32.2771C116.843 31.6177 116.795 31.0117 116.707 30.459L116.672 30.2379C116.503 30.6045 116.242 31.0425 115.889 31.5518C115.535 32.061 115.124 32.5698 114.657 33.0782C114.187 33.5681 113.716 33.9921 113.244 34.3502C112.772 34.7082 112.324 34.9208 111.9 34.9879C111.606 35.0346 111.388 34.9746 111.249 34.8078C111.127 34.6382 111.048 34.4336 111.01 34.1941C110.908 33.5493 110.941 32.8642 111.109 32.1388C111.278 31.4133 111.492 30.7374 111.751 30.1108C112.008 29.4658 112.244 28.928 112.459 28.4973C112.671 28.0483 112.773 27.7961 112.764 27.7408C112.761 27.7224 112.741 27.7161 112.704 27.7219C112.63 27.7336 112.548 27.7467 112.455 27.7613C112.382 27.773 112.364 27.7192 112.402 27.5999C112.61 27.2458 112.889 26.9184 113.237 26.6177C113.586 26.3169 113.936 26.1388 114.286 26.0833C114.415 26.0629 114.571 26.0948 114.754 26.1791C114.953 26.242 115.064 26.3472 115.088 26.4946C115.102 26.5867 115.063 26.6968 114.97 26.8248C114.861 26.9742 114.728 27.1464 114.57 27.3414C114.431 27.5335 114.241 27.8279 114.002 28.2246C113.865 28.4351 113.683 28.7755 113.455 29.246C113.225 29.698 112.995 30.2159 112.767 30.7998C112.535 31.3652 112.35 31.9234 112.21 32.4743C112.087 33.0038 112.054 33.4528 112.112 33.8212C112.121 33.8765 112.131 33.941 112.143 34.0147C112.17 34.067 112.225 34.115 112.307 34.1586C112.568 34.1362 112.873 33.9746 113.222 33.6738C113.568 33.3546 113.922 32.968 114.285 32.514C114.663 32.0386 115.01 31.5493 115.327 31.0458C115.659 30.5211 115.942 30.0419 116.176 29.6083C116.425 29.1534 116.595 28.796 116.686 28.536C116.83 28.1355 117.105 27.9031 117.51 27.8389C117.805 27.7922 117.981 27.8304 118.038 27.9536C118.114 28.0738 118.169 28.2444 118.204 28.4655C118.318 29.184 118.373 29.8269 118.368 30.3942C118.379 30.9401 118.328 31.5714 118.215 32.2881C119.233 31.0881 120.188 29.8415 121.079 28.5485C121.091 28.5087 121.121 28.4568 121.167 28.3928C121.232 28.3259 121.283 28.2895 121.32 28.2836C121.43 28.2661 121.494 28.3126 121.512 28.4232C121.535 28.5706 121.503 28.7267 121.416 28.8916C121.282 29.1205 121.13 29.3524 120.96 29.5871C120.808 29.8189 120.655 30.0508 120.503 30.2826C120.137 30.8316 119.762 31.3821 119.377 31.9341C118.989 32.4676 118.571 32.9871 118.122 33.4925C117.628 35.856 116.823 37.9854 115.706 39.8807C114.612 41.7916 113.118 43.5106 111.226 45.0379C110.908 45.296 110.542 45.5522 110.129 45.8064C109.717 46.0607 109.298 46.2214 108.874 46.2885ZM109.401 45.4969C109.898 45.4182 110.412 45.1478 110.944 44.686C111.459 44.2455 111.96 43.7129 112.447 43.0882C112.933 42.4634 113.365 41.8475 113.74 41.2402C114.138 40.6485 114.447 40.1558 114.668 39.7619C114.914 39.2886 115.151 38.8167 115.378 38.3463C115.609 37.8943 115.818 37.4268 116.006 36.9438C116.291 36.2377 116.514 35.5603 116.676 34.9114C116.685 34.8533 116.661 34.8193 116.603 34.8097C116.566 34.8155 116.548 34.8184 116.548 34.8184C116.041 35.3142 115.523 35.8022 114.995 36.2825C114.488 36.7782 113.97 37.2662 113.442 37.7465C113.176 37.9774 112.823 38.3073 112.381 38.7361C111.942 39.1834 111.472 39.6733 110.97 40.2059C110.472 40.7569 110.003 41.3128 109.563 41.8735C109.126 42.4526 108.778 42.9988 108.52 43.5119C108.264 44.0434 108.165 44.4934 108.224 44.8619C108.27 45.1566 108.422 45.3403 108.679 45.4129C108.921 45.5069 109.161 45.5349 109.401 45.4969ZM122.93 33.5243C122.396 33.6089 121.966 33.4597 121.641 33.0769C121.313 32.6756 121.113 32.2446 121.04 31.784C120.941 31.1576 121 30.4589 121.218 29.6879C121.433 28.8985 121.718 28.1356 122.073 27.3995C122.447 26.6604 122.785 26.0498 123.086 25.5677C123.161 25.4425 123.272 25.3683 123.419 25.345C123.585 25.3187 123.761 25.3569 123.947 25.4596C124.29 25.122 124.693 24.8032 125.156 24.5034C125.636 24.2006 126.116 24.0113 126.595 23.9354C127.424 23.8041 127.906 24.1622 128.04 25.0096C128.169 25.8203 128.084 26.5985 127.787 27.3444C127.508 28.0873 127.18 28.8191 126.803 29.5398C126.7 29.726 126.596 29.903 126.491 30.0709C126.403 30.2357 126.298 30.4036 126.174 30.5743C126.949 30.2248 127.6 29.744 128.127 29.1319C128.653 28.5197 129.167 27.8906 129.669 27.2446C129.731 27.1592 129.787 27.0937 129.836 27.0481C129.901 26.9812 129.989 26.9389 130.099 26.9214C130.192 26.9068 130.248 26.964 130.268 27.093C130.271 27.1114 130.251 27.1618 130.207 27.2443C130.164 27.3267 130.135 27.3878 130.123 27.4276C129.632 28.2608 128.986 29.0713 128.185 29.8591C127.4 30.6256 126.531 31.1598 125.578 31.4619C125.283 31.8673 124.898 32.2966 124.422 32.7497C123.943 33.1844 123.446 33.4426 122.93 33.5243ZM124.74 30.9997C124.813 30.988 124.878 30.9778 124.933 30.9691C125.007 30.9574 125.079 30.9365 125.15 30.9064C125.448 30.4059 125.743 29.821 126.033 29.1518C126.342 28.4796 126.584 27.7992 126.758 27.1107C126.93 26.4037 126.973 25.783 126.888 25.2487C126.836 24.9171 126.653 24.7761 126.34 24.8257C126.027 24.8753 125.682 25.0244 125.306 25.2728C124.93 25.5212 124.619 25.7686 124.375 26.0151L124.388 26.098C124.418 26.2822 124.312 26.5727 124.073 26.9694C123.849 27.3448 123.599 27.7338 123.323 28.1363C123.065 28.536 122.882 28.8672 122.772 29.1301C122.813 29.7468 123.013 30.2345 123.372 30.5931C123.731 30.9517 124.187 31.0872 124.74 30.9997ZM122.883 33.0501C123.233 32.9946 123.554 32.8117 123.844 32.5013C124.154 32.1879 124.411 31.9017 124.615 31.6427C124.167 31.6759 123.738 31.5927 123.329 31.3931C122.935 31.1722 122.565 30.9193 122.217 30.6344C122.18 30.7537 122.139 30.9772 122.097 31.305C122.054 31.6328 122.058 31.9532 122.108 32.2664C122.146 32.5059 122.225 32.7105 122.346 32.8802C122.465 33.0314 122.644 33.088 122.883 33.0501ZM135.862 31.476C135.586 31.5198 135.26 31.4865 134.883 31.3761C134.528 31.2812 134.325 31.068 134.272 30.7364C134.211 30.3495 134.285 29.8656 134.495 29.2846C134.706 28.7036 134.968 28.0955 135.283 27.4602C135.595 26.8065 135.893 26.1833 136.177 25.5906C136.479 24.9951 136.684 24.4999 136.791 24.1052C136.689 24.178 136.523 24.3177 136.291 24.5244C136.075 24.7097 135.86 24.9042 135.647 25.108C135.431 25.2933 135.275 25.4408 135.179 25.5504C134.48 26.2654 133.885 26.9828 133.395 27.7026C132.923 28.4194 132.457 29.2298 131.995 30.1338C131.883 30.3782 131.763 30.6333 131.635 30.8991C131.526 31.1619 131.405 31.417 131.275 31.6644C131.216 31.7682 131.101 31.8807 130.932 32.002C130.78 32.1204 130.631 32.1912 130.484 32.2146C130.244 32.2525 130.104 32.1425 130.063 31.8846C130.028 31.6635 130.085 31.3052 130.233 30.8096C130.399 30.3111 130.611 29.7393 130.868 29.0943C131.124 28.4493 131.401 27.8107 131.697 27.1783C131.991 26.5274 132.258 25.9469 132.498 25.4368C132.735 24.9081 132.902 24.5323 132.999 24.3092C132.971 24.3703 132.886 24.4877 132.743 24.6614C132.598 24.8166 132.454 24.981 132.312 25.1547C132.185 25.307 132.089 25.4166 132.024 25.4835C131.726 25.8706 131.439 26.2654 131.163 26.668C130.887 27.0705 130.611 27.4731 130.335 27.8757C130.304 27.9183 130.239 27.9853 130.14 28.0765C130.059 28.1648 129.982 28.2147 129.909 28.2264C129.816 28.241 129.763 28.2022 129.749 28.1101C129.734 28.018 129.832 27.8041 130.044 27.4685C130.255 27.1329 130.522 26.7318 130.844 26.2652C131.167 25.7986 131.498 25.3214 131.836 24.8334C132.192 24.3426 132.501 23.9065 132.762 23.5253C133.022 23.1441 133.198 22.8803 133.288 22.7338C133.434 22.4651 133.597 22.241 133.776 22.0615C133.974 21.8791 134.22 21.7646 134.515 21.7179C134.681 21.6916 134.897 21.7424 135.162 21.8703C135.425 21.9798 135.573 22.1358 135.605 22.3385C135.616 22.4122 135.605 22.4612 135.571 22.4854C135.092 23.0335 134.634 23.6631 134.199 24.3741C133.783 25.0822 133.396 25.8043 133.041 26.5405C132.685 27.2767 132.359 27.961 132.063 28.5934C132.426 28.0259 132.846 27.4589 133.323 26.8924C133.797 26.3074 134.259 25.7622 134.707 25.2568L136.415 23.3432C136.527 23.2122 136.637 23.0721 136.745 22.9227C136.872 22.7704 136.993 22.6379 137.107 22.5254C137.24 22.4099 137.391 22.3483 137.56 22.3405C137.744 22.3113 137.928 22.2821 138.112 22.2529C138.315 22.2208 138.517 22.2455 138.719 22.3268C138.939 22.4053 139.068 22.5642 139.106 22.8037C139.144 23.0432 139.109 23.2377 139 23.3871C138.907 23.5151 138.799 23.6645 138.675 23.8352C138.408 24.1796 138.083 24.6278 137.698 25.1797C137.332 25.7288 136.971 26.3146 136.616 26.9374C136.262 27.5601 135.982 28.1804 135.778 28.7982C135.571 29.3975 135.505 29.9367 135.581 30.4157C135.59 30.471 135.599 30.5263 135.607 30.5816C135.616 30.6368 135.634 30.6906 135.661 30.743C136.025 30.5343 136.411 30.2277 136.819 29.8231C137.242 29.3972 137.66 28.9345 138.072 28.4349C138.484 27.9353 138.859 27.4415 139.197 26.9536C139.554 26.4627 139.844 26.0296 140.068 25.6542C140.099 25.6116 140.128 25.5597 140.156 25.4986C140.203 25.4345 140.263 25.3967 140.337 25.385C140.429 25.3704 140.485 25.4276 140.505 25.5566C140.517 25.6303 140.503 25.7175 140.462 25.8184C140.185 26.3344 139.801 26.9523 139.311 27.6721C138.82 28.3919 138.307 29.0869 137.771 29.7572C137.232 30.4091 136.738 30.9219 136.287 31.2954C136.17 31.3895 136.028 31.4497 135.862 31.476ZM145.731 29.8563C145.565 29.8826 145.36 29.8395 145.115 29.7272C144.889 29.6119 144.688 29.4738 144.512 29.3129C144.332 29.1336 144.229 28.961 144.203 28.7952C144.159 28.5189 144.202 28.1343 144.332 27.6417C144.459 27.1306 144.615 26.6243 144.8 26.1229C145.003 25.6185 145.161 25.2441 145.273 24.9997C145.05 25.2616 144.776 25.6734 144.449 26.235C144.138 26.7753 143.796 27.3583 143.423 27.9839C143.065 28.5882 142.705 29.1174 142.343 29.5714C141.999 30.0225 141.68 30.2713 141.385 30.318C140.979 30.3822 140.626 30.2966 140.324 30.0611C140.038 29.8042 139.863 29.4732 139.799 29.0679C139.711 28.5152 139.774 27.9008 139.988 27.2248C140.199 26.5304 140.507 25.849 140.911 25.1807C141.331 24.491 141.796 23.8508 142.306 23.26C142.836 22.6663 143.362 22.1768 143.887 21.7916C144.43 21.4034 144.931 21.1729 145.392 21.0999C145.889 21.0212 146.314 21.0767 146.665 21.2666C147.013 21.4381 147.224 21.7541 147.297 22.2147C147.308 22.2884 147.312 22.4295 147.307 22.638C147.321 22.8435 147.272 22.9551 147.162 22.9726C147.106 22.9813 147.001 22.913 146.846 22.7676C146.709 22.6193 146.526 22.4783 146.297 22.3446C146.068 22.2109 145.797 22.1689 145.484 22.2185C144.968 22.3002 144.456 22.5797 143.946 23.057C143.451 23.513 142.993 24.0767 142.57 24.7479C142.145 25.4007 141.787 26.0618 141.496 26.731C141.206 27.4002 140.994 27.972 140.862 28.4462C140.827 28.584 140.793 28.7309 140.762 28.887C140.748 29.0403 140.753 29.1906 140.776 29.3379C140.803 29.5038 140.862 29.5794 140.954 29.5648C141.046 29.5502 141.223 29.4182 141.486 29.1689C141.767 28.9166 141.965 28.7342 142.079 28.6217C142.651 28.059 143.176 27.4376 143.654 26.7576C144.15 26.0747 144.579 25.3836 144.94 24.6842C145.055 24.4582 145.161 24.2337 145.258 24.0106C145.355 23.7875 145.453 23.5737 145.553 23.369C145.625 23.2254 145.707 23.1464 145.799 23.1318C146.002 23.0997 146.217 23.2072 146.445 23.4544C146.691 23.6986 146.831 23.9221 146.863 24.1248C146.877 24.2169 146.868 24.2751 146.834 24.2993C146.818 24.3207 146.772 24.3847 146.694 24.4914C146.461 24.8115 146.246 25.2422 146.049 25.7834C145.87 26.3216 145.72 26.8647 145.599 27.4127C145.493 27.9393 145.422 28.3849 145.386 28.7495C145.376 28.8077 145.369 28.8843 145.365 28.9794C145.377 29.0531 145.427 29.0734 145.517 29.0404C145.692 28.956 145.955 28.7066 146.305 28.2924C146.67 27.8568 147.056 27.3708 147.462 26.8343C147.883 26.2765 148.255 25.7644 148.578 25.2978C148.919 24.8283 149.141 24.5004 149.244 24.3142C149.275 24.2715 149.306 24.2288 149.337 24.1861C149.383 24.1221 149.434 24.0857 149.49 24.077C149.619 24.0565 149.693 24.1108 149.714 24.2398C149.725 24.3135 149.613 24.5579 149.377 24.973C149.137 25.3698 148.834 25.8426 148.468 26.3917C148.099 26.9223 147.72 27.4543 147.333 27.9879C146.942 28.503 146.597 28.9449 146.296 29.3135C146.011 29.6608 145.823 29.8417 145.731 29.8563Z" fill="#DC3353"/>
</symbol>
<symbol id="icon-menu" viewBox="0 0 32 32">
<path d="M5.334 23.027v-1.333h21.333v1.333h-21.333zM5.334 16.667v-1.333h21.333v1.333h-21.333zM5.334 10.307v-1.333h21.333v1.333h-21.333z"></path>
</symbol>
<symbol id="icon-menu-close" viewBox="0 0 14 14" fill="none" xmlns="http://www.w3.org/2000/svg">
  <path d="M1.4 14L0 12.6L5.6 7L0 1.4L1.4 0L7 5.6L12.6 0L14 1.4L8.4 7L14 12.6L12.6 14L7 8.4L1.4 14Z" fill="#292929" />
</symbol>
<symbol id="icon-horisontal-line" viewBox="0 0 352 1" fill="none" xmlns="http://www.w3.org/2000/svg">
<line x1="352" y1="0.5" y2="0.5" stroke="#292929"/>
</symbol>
<symbol id="icon-vertical-line" viewBox="0 0 2 18" fill="none" xmlns="http://www.w3.org/2000/svg">
<path opacity="0.32" d="M0.0520001 17.492V0.643999H1.24V17.492H0.0520001Z" fill="#292929"/>
</symbol>
<symbol id="icon-switch-arrow" view`ll="none" xmlns="http://www.w3.org/2000/svg">
<path d="M0 0L5 5L10 0H0Z" fill="#292929"/>
</symbol>
  </defs>
</svg>