<svg xmlns="http://www.w3.org/2000/svg" width="16" height="16" viewBox="0 0 16 16" fill="none">
  <rect width="16" height="16" rx="4" fill="white" />
  <path
    d="M3.79285 2.5C2.63716 3.41327 1.62067 4.36024 1.41855 5.77382C1.11754 6.88547 1.22653 10.0351 1.88611 11.4891C2.54569 12.943 3.99491 13.9608 5.37605 14.4976C6.75719 15.0343 8.76037 15.1962 10.173 14.7098M3.79285 2.5C4.94854 1.58673 6.65521 1.08331 8.1224 1.11189C9.5896 1.14048 11.4777 1.77011 12.596 2.74946C14.0003 4.01942 14.6228 5.51644 14.8321 6.98799C15.0413 8.45955 14.8351 10.3546 14.0586 11.6416C13.2821 12.9286 11.5855 14.2233 10.173 14.7098M3.79285 2.5C2.58151 3.39971 1.4256 4.9929 1.11754 6.39935C0.809492 7.80579 1.12126 9.73273 1.88488 10.9837C3 12.8105 4.01648 13.6345 5.36547 14.2901C6.71445 14.9457 8.75389 15.1284 10.173 14.7098M3.79285 2.5C5.0042 1.60029 6.92957 0.96808 8.38562 1.00111C9.84167 1.03413 11.411 1.76889 12.5037 2.77649C13.5963 3.78408 14.7121 5.5464 14.9415 7.04669C15.1709 8.54698 14.6787 10.6882 13.8515 12C13.0244 13.3118 11.592 14.2911 10.173 14.7098"
    stroke="#DC3353" stroke-width="0.2" />
  <path
    d="M6.83673 4.5C6.80952 4.7691 6.78912 5.03165 6.77551 5.28762C6.76871 5.53704 6.76531 5.72738 6.76531 5.85865C6.76531 5.98336 6.76871 6.10478 6.77551 6.22292C6.78231 6.33451 6.78912 6.42968 6.79592 6.50844H6.56122C6.5068 6.05556 6.41837 5.70113 6.29592 5.44515C6.17347 5.18261 6.0068 4.99883 5.79592 4.89381C5.59184 4.78223 5.32313 4.72644 4.9898 4.72644H4.42857C4.22449 4.72644 4.06803 4.74285 3.95918 4.77567C3.85034 4.80849 3.77551 4.8774 3.73469 4.98242C3.70068 5.08744 3.68367 5.24824 3.68367 5.46484V10.5056C3.68367 10.7157 3.70068 10.8765 3.73469 10.988C3.77551 11.0931 3.85034 11.162 3.95918 11.1948C4.06803 11.2276 4.22449 11.244 4.42857 11.244H5.0102C5.35714 11.244 5.64626 11.1817 5.87755 11.057C6.11565 10.9323 6.30612 10.7288 6.44898 10.4466C6.59184 10.1578 6.69728 9.76395 6.76531 9.26512H7C6.97959 9.46859 6.96939 9.73113 6.96939 10.0527C6.96939 10.1906 6.97279 10.3908 6.97959 10.6533C6.9932 10.9158 7.01361 11.1882 7.04082 11.4705C6.69388 11.4573 6.30272 11.4508 5.86735 11.4508C5.43197 11.4442 5.04422 11.4409 4.70408 11.4409C4.54762 11.4409 4.34014 11.4409 4.08163 11.4409C3.82993 11.4409 3.55442 11.4442 3.2551 11.4508C2.96259 11.4508 2.66327 11.4541 2.35714 11.4606C2.05782 11.4606 1.77211 11.4639 1.5 11.4705V11.2736C1.72449 11.2604 1.89116 11.2342 2 11.1948C2.11565 11.1554 2.19048 11.0767 2.22449 10.9585C2.26531 10.8404 2.28571 10.6632 2.28571 10.4269V5.5436C2.28571 5.30075 2.26531 5.12353 2.22449 5.01195C2.19048 4.89381 2.11565 4.81505 2 4.77567C1.89116 4.72972 1.72449 4.70347 1.5 4.69691V4.5C1.77211 4.50656 2.05782 4.51313 2.35714 4.51969C2.66327 4.51969 2.96259 4.52297 3.2551 4.52954C3.55442 4.52954 3.82993 4.52954 4.08163 4.52954C4.34014 4.52954 4.54762 4.52954 4.70408 4.52954C5.01701 4.52954 5.37075 4.52954 5.76531 4.52954C6.16667 4.52297 6.52381 4.51313 6.83673 4.5ZM5.19388 7.86709C5.19388 7.86709 5.19388 7.89991 5.19388 7.96554C5.19388 8.03118 5.19388 8.06399 5.19388 8.06399H3.37755C3.37755 8.06399 3.37755 8.03118 3.37755 7.96554C3.37755 7.89991 3.37755 7.86709 3.37755 7.86709H5.19388ZM5.4898 6.56751C5.46258 6.94163 5.44898 7.22714 5.44898 7.42405C5.45578 7.62096 5.45918 7.80145 5.45918 7.96554C5.45918 8.12963 5.46259 8.31013 5.46939 8.50703C5.47619 8.70394 5.4932 8.98945 5.52041 9.36357H5.28571C5.2517 9.14041 5.19728 8.93038 5.12245 8.73347C5.05442 8.53 4.94218 8.3692 4.78571 8.25105C4.63605 8.12635 4.41837 8.06399 4.13265 8.06399V7.86709C4.34354 7.86709 4.51361 7.82443 4.64286 7.7391C4.77891 7.65377 4.88776 7.54548 4.96939 7.41421C5.05102 7.27637 5.11224 7.13526 5.15306 6.99086C5.20068 6.8399 5.23469 6.69878 5.2551 6.56751H5.4898Z"
    fill="#292929" />
  <path
    d="M14.5 4.5V4.69691C14.2823 4.7166 14.1156 4.76582 14 4.84458C13.8844 4.91678 13.8061 5.03493 13.7653 5.19902C13.7313 5.35654 13.7143 5.58298 13.7143 5.87834V11.5C13.6531 11.4934 13.585 11.4902 13.5102 11.4902C13.4422 11.4902 13.3673 11.4934 13.2857 11.5L8.90816 5.7602V10.0134C8.90816 10.3284 8.92857 10.5745 8.96939 10.7518C9.0102 10.9224 9.09864 11.0471 9.23469 11.1259C9.37755 11.1981 9.59184 11.2473 9.87755 11.2736V11.4705C9.7483 11.4573 9.58163 11.4508 9.37755 11.4508C9.17347 11.4442 8.97959 11.4409 8.79592 11.4409C8.63265 11.4409 8.46599 11.4442 8.29592 11.4508C8.13265 11.4508 7.9966 11.4573 7.88775 11.4705V11.2736C8.11224 11.2473 8.27891 11.1981 8.38775 11.1259C8.5034 11.0537 8.57823 10.9355 8.61224 10.7714C8.65306 10.6074 8.67347 10.3809 8.67347 10.0921V5.5436C8.67347 5.30075 8.65306 5.12353 8.61224 5.01195C8.57823 4.89381 8.5034 4.81505 8.38775 4.77567C8.27891 4.72972 8.11224 4.70347 7.88775 4.69691V4.5C7.9966 4.50656 8.13265 4.51313 8.29592 4.51969C8.46599 4.52625 8.63265 4.52954 8.79592 4.52954C8.95238 4.52954 9.10544 4.52625 9.2551 4.51969C9.40476 4.51313 9.53742 4.50656 9.65306 4.5L13.4796 9.4128V5.9571C13.4796 5.63549 13.4592 5.38936 13.4184 5.21871C13.3776 5.04805 13.2891 4.92335 13.1531 4.84458C13.017 4.76582 12.8027 4.7166 12.5102 4.69691V4.5C12.6395 4.50656 12.8061 4.51313 13.0102 4.51969C13.2211 4.52625 13.415 4.52954 13.5918 4.52954C13.7619 4.52954 13.9286 4.52625 14.0918 4.51969C14.2619 4.51313 14.398 4.50656 14.5 4.5Z"
    fill="#292929" />
    
 <symbol id="footer-icon-phone" viewBox="0 0 20 20" fill="none" xmlns="http://www.w3.org/2000/svg"><path d="M1.66797 3.92232C1.66797 11.8815 8.12047 18.334 16.0796 18.334L19.168 15.2457L15.5655 11.6432L12.9913 14.2165L5.78547 7.01065L8.3588 4.43732L4.7563 0.833984L1.66797 3.92232Z"/>
 </symbol>
</svg>